<?xml version="1.0" encoding="UTF-8"?>
<svg height="17px" version="1.1" viewBox="0 0 17 17" width="17px"
    xmlns="http://www.w3.org/2000/svg">
    <title>Path Copy</title>
    <g fill="none" fill-rule="evenodd" id="Page-1" stroke="none" stroke-width="1">
        <g fill="#D9D9D9" fill-rule="nonzero" id="câu-gợi-ý-xét-mình--c2--copy" stroke="#D9D9D9"
            transform="translate(-305.000000, -164.000000)">
            <path
                d="M320.4375,171.9375 L314.0625,171.9375 L314.0625,165.5625 C314.0625,165.251807 313.810693,165 313.5,165 C313.189307,165 312.9375,165.251807 312.9375,165.5625 L312.9375,171.9375 L306.5625,171.9375 C306.251807,171.9375 306,172.189307 306,172.5 C306,172.810693 306.251807,173.0625 306.5625,173.0625 L312.9375,173.0625 L312.9375,179.4375 C312.9375,179.748193 313.189307,180 313.5,180 C313.810693,180 314.0625,179.748193 314.0625,179.4375 L314.0625,173.0625 L320.4375,173.0625 C320.748193,173.0625 321,172.810693 321,172.5 C321,172.189307 320.748193,171.9375 320.4375,171.9375 Z"
                id="Path-Copy"></path>
        </g>
    </g>
</svg>