<svg xmlns="http://www.w3.org/2000/svg" xmlns:xlink="http://www.w3.org/1999/xlink" width="92" height="73" viewBox="0 0 92 73">
    <defs>
        <path id="1u9go10dua" d="M0 0.022L91.933 0.022 91.933 72.99 0 72.99z"/>
    </defs>
    <g fill="none" fill-rule="evenodd">
        <g>
            <g>
                <g>
                    <g transform="translate(-204 -463) translate(65 463) translate(139)">
                        <mask id="43yqr1uidb" fill="#fff">
                            <use xlink:href="#1u9go10dua"/>
                        </mask>
                        <path fill="#F5C376" d="M44.28 72.39c-1.747-.623-17.312-6.25-25.382-12.063-6.656-4.794-11.739-10.8-15.11-17.854C.37 35.316 0 29.831 0 27.805c0-7.782 2.203-14.517 6.37-19.477C10.936 2.894 17.468.022 25.26.022c7.882 0 15.329 3.198 20.706 8.734C51.344 3.22 58.79.022 66.672.022c7.792 0 14.325 2.872 18.89 8.306 4.168 4.96 6.37 11.695 6.37 19.477 0 2.026-.369 7.511-3.788 14.668-3.37 7.053-8.454 13.06-15.109 17.854-8.072 5.814-23.635 11.44-25.383 12.062l-1.686.6-1.685-.6z" mask="url(#43yqr1uidb)"/>
                    </g>
                    <path fill="#E5AE48" d="M46.299 16.804C42.223 9.63 34.489 4.787 25.619 4.787c-13.112 0-20.242 9.804-20.242 22.856 0 5.261 3.202 18.717 16.815 28.548 7.719 5.574 24.107 11.424 24.107 11.424s16.387-5.85 24.106-11.424C84.02 46.36 87.221 32.904 87.221 27.643c0-13.052-7.13-22.856-20.242-22.856-8.87 0-16.605 4.843-20.68 12.017z" transform="translate(-204 -463) translate(65 463) translate(139)"/>
                    <g>
                        <g>
                            <path fill="#9B7A5A" d="M32.798 50.575c-8.175-1.543-15.283-5.243-21.13-10.999C5.979 33.972 2.184 27.168.393 19.351c-1.07-4.665.076-9.503 3.136-13.275C6.665 2.214 11.34 0 16.353 0c6.773 0 12.766 4.094 15.27 10.428.999 2.534 2.224 4.524 3.638 5.917 1.475 1.453 3.686 2.766 6.57 3.906 6.416 2.533 10.484 8.788 10.12 15.568-.245 4.582-2.488 8.832-6.157 11.66-2.863 2.209-6.373 3.382-9.953 3.382-1.012 0-2.032-.093-3.043-.286" transform="translate(-204 -463) translate(65 463) translate(139) translate(9.558 9.172) translate(0 1)"/>
                            <path fill="#FDFAFB" d="M4.464 18.486l3.315-.277c.092 1.05.244 2.06.45 3.005l-3.253.677c-.235-1.077-.407-2.222-.512-3.405m2.08 7.26c-.338-.626-.647-1.295-.921-1.984l3.104-1.166c.227.573.482 1.126.761 1.641 1.2 2.224 3.157 4.419 5.817 6.526l-2.097 2.516c-3.01-2.386-5.253-4.919-6.664-7.532" transform="translate(-204 -463) translate(65 463) translate(139) translate(9.558 9.172) translate(0 1)"/>
                        </g>
                        <g fill="#231F20" stroke="#000" stroke-width="1.5">
                            <path fill-rule="nonzero" d="M8.902 5.227c.13.152.077.357-.118.458L4.968 7.667c-.195.101-.458.06-.588-.092-.13-.151-.077-.356.118-.458l3.816-1.981c.195-.101.458-.06.588.091z" transform="translate(-204 -463) translate(65 463) translate(139) translate(9.558 9.172) translate(14.349 9.79) rotate(-4 6.64 6.401)"/>
                            <path d="M6.746.68c.118.234.405.328.642.212.236-.116.332-.398.214-.631-.117-.233-.404-.327-.641-.211-.236.115-.332.398-.215.63M.37 4.134c.117.233.404.328.64.212.237-.116.333-.399.215-.632-.118-.232-.405-.327-.641-.211-.237.116-.333.399-.215.631" transform="translate(-204 -463) translate(65 463) translate(139) translate(9.558 9.172) translate(14.349 9.79)"/>
                        </g>
                    </g>
                    <path fill="#88674D" d="M17.787 46.004c4.816 4.956 8.263 8.039 10.342 9.248 7.129 4.144 13.824 5.78 17.837 5.78 5.244 0 9.148-1.926 11.714-5.78-5.247 2.352-11.14 2.862-17.68 1.527-6.54-1.335-13.944-4.926-22.213-10.775z" transform="translate(-204 -463) translate(65 463) translate(139)"/>
                </g>
            </g>
        </g>
    </g>
</svg>
