<?xml version="1.0" encoding="UTF-8"?>
<svg xmlns:xlink="http://www.w3.org/1999/xlink" height="24px" version="1.1" viewBox="0 0 19 24"
    width="19px" xmlns="http://www.w3.org/2000/svg">
    <title>peanut-butter</title>
    <g fill="none" fill-rule="evenodd" id="Page-1" stroke="none" stroke-width="1">
        <g fill="#8E8E93" fill-rule="nonzero" id="home--copy-2"
            transform="translate(-306.000000, -600.000000)">
            <g id="peanut-butter" transform="translate(306.000000, 600.000000)">
                <path
                    d="M19,4.32391428 L19,1.40902648 C19,0.632079861 18.3628417,0 17.5797089,0 L1.42029115,0 C0.637158325,0 0,0.632079861 0,1.40902648 L0,4.32391428 C0,4.8116263 0.251123677,5.24209918 0.631717998,5.49513976 L0.0133036574,8.5628316 C0.00448026949,8.60678147 0,8.65145703 0,8.69622331 L0,18.8982626 C0,21.2824863 1.95513474,23.2222222 4.35834216,23.2222222 L14.6416578,23.2222222 C17.0448653,23.2222222 19,21.2824863 19,18.8982626 L19,8.69622331 C19,8.65145703 18.9955197,8.60673611 18.9866963,8.5628316 L18.368282,5.49513976 C18.7488763,5.24209918 19,4.8116263 19,4.32391428 Z M1.37151107,1.40902648 C1.37151107,1.38417144 1.39519249,1.36067708 1.42024543,1.36067708 L17.5797089,1.36067708 C17.6047618,1.36067708 17.6284432,1.3842168 17.6284432,1.40902648 L17.6284432,4.32391428 C17.6284432,4.34876931 17.6047618,4.37226367 17.5797089,4.37226367 L1.42029115,4.37226367 C1.39523821,4.37226367 1.37151107,4.34872396 1.37151107,4.32391428 L1.37151107,1.40902648 L1.37151107,1.40902648 Z M1.37151107,18.217924 L1.37151107,9.37656185 L17.6284889,9.37656185 L17.6284889,18.217924 L1.37151107,18.217924 Z M1.52224013,8.01588477 L1.98247353,5.73294076 L17.0175265,5.73294076 L17.4777599,8.01588477 L1.52224013,8.01588477 Z M14.6416578,21.8615451 L4.35834216,21.8615451 C2.947423,21.8615451 1.76266603,20.8855768 1.45188162,19.5786011 L17.5481184,19.5786011 C17.237334,20.8855768 16.052577,21.8615451 14.6416578,21.8615451 Z"
                    id="Shape"></path>
                <path
                    d="M12.9581247,10.2651055 C12.4646171,9.77172058 11.8083476,9.5 11.1103503,9.5 C10.4123529,9.5 9.75613006,9.77172058 9.26238937,10.2651521 C8.87191928,10.6556281 8.6191744,11.1604784 8.53184897,11.696742 C7.99078563,11.7821266 7.49200963,12.0349712 7.09743668,12.4295487 C6.07862445,13.4481047 6.07862445,15.105274 7.09748331,16.1237834 C7.5910375,16.6171683 8.24721375,16.8888889 8.9452111,16.8888889 C9.64316182,16.8888889 10.2993847,16.6171683 10.7929389,16.12383 C11.1835489,15.7334006 11.4363404,15.2285037 11.5236658,14.6921468 C12.064496,14.6067157 12.5633186,14.3539176 12.9581713,13.9592936 C13.9769369,12.9407376 13.9768903,11.2835217 12.9581247,10.2651055 Z M11.9691514,12.9705663 C11.7397181,13.1998742 11.4347552,13.32618 11.1104902,13.32618 C11.052957,13.32618 10.994911,13.3220319 10.9380306,13.3139689 C10.7202532,13.2829284 10.5006575,13.3562883 10.3451221,13.5117703 C10.1895868,13.6672522 10.116295,13.8867726 10.1472529,14.1044754 C10.2016156,14.4869815 10.0764787,14.8626364 9.80391894,15.1350561 C9.57453233,15.3643174 9.26956936,15.4906232 8.9452111,15.4906232 C8.62080621,15.4906232 8.31584324,15.364364 8.08645663,15.1350561 C7.61299708,14.6617589 7.61299708,13.8915266 8.0865965,13.4180896 C8.31575,13.1888749 8.62066634,13.0626623 8.94507123,13.0626623 C9.00260438,13.0626623 9.06055713,13.0667637 9.11743755,13.0748268 C9.33502847,13.1060071 9.55481068,13.032554 9.71034599,12.8770254 C9.86583468,12.7215434 9.93917312,12.502023 9.90821525,12.2843203 C9.85385249,11.9019074 9.97898941,11.5262525 10.2514559,11.2538328 C10.4808892,11.0245249 10.7858988,10.8982191 11.1103503,10.8982191 C11.4347552,10.8982191 11.7397648,11.0245249 11.9691047,11.2537862 C12.4425643,11.7270834 12.4425177,12.4972691 11.9691514,12.9705663 L11.9691514,12.9705663 Z"
                    id="Shape"></path>
            </g>
        </g>
    </g>
</svg>