<?xml version="1.0" encoding="UTF-8"?>
<svg xmlns:xlink="http://www.w3.org/1999/xlink" height="79px" version="1.1" viewBox="0 0 60 79"
    width="60px" xmlns="http://www.w3.org/2000/svg">
    <title>Group 26</title>
    <defs>
        <polygon id="path-1"
            points="0 0.317605839 59.758073 0.317605839 59.758073 61.7518248 0 61.7518248"></polygon>
    </defs>
    <g fill="none" fill-rule="evenodd" id="Page-1" stroke="none" stroke-width="1">
        <g id="câu-gợi-ý-xét-mình--2-copy" transform="translate(-201.000000, -468.000000)">
            <g id="Group-2" transform="translate(93.000000, 441.000000)">
                <g id="Group-26" transform="translate(108.000000, 27.000000)">
                    <path
                        d="M31.3850803,4.37956204e-05 L28.3732555,4.37956204e-05 C27.1285839,4.37956204e-05 26.1199708,1.00909489 26.1199708,2.25332847 L26.1199708,8.08646715 L33.6388029,8.08646715 L33.6388029,2.25332847 C33.6388029,1.00909489 32.6297518,4.37956204e-05 31.3850803,4.37956204e-05"
                        fill="#9A9B9D" id="Fill-1"></path>
                    <path
                        d="M46.0545109,4.74626277 L13.704,4.74626277 C11.8256058,4.74626277 10.3028321,6.2690365 10.3028321,8.1469927 L10.3028321,10.413854 L29.8790365,13.5916642 L49.4556788,10.413854 L49.4556788,8.14743066 C49.4556788,6.2690365 47.9329051,4.74626277 46.0545109,4.74626277"
                        fill="#B3B5B7" id="Fill-3"></path>
                    <path
                        d="M16.5967883,10.4136788 L16.5967883,8.14725547 C16.5967883,6.26886131 18.12,4.74652555 19.9979562,4.74652555 L13.7040876,4.74652555 C11.8252555,4.74652555 10.3029197,6.26886131 10.3029197,8.14725547 L10.3029197,10.4136788 L29.8791241,13.5914891 L33.0262774,13.0808321 L16.5967883,10.4136788 Z"
                        fill="#9A9B9D" id="Fill-5"></path>
                    <path
                        d="M49.4555036,10.4136788 L10.3030949,10.4136788 C8.64324088,10.4136788 7.2969635,11.7595182 7.2969635,13.4198102 L7.2969635,16.7688613 L29.8792993,20.7551387 L52.4611972,16.7688613 L52.4611972,13.4198102 C52.4611972,11.7595182 51.1157956,10.4136788 49.4555036,10.4136788"
                        fill="#E3E6E8" id="Fill-7"></path>
                    <path
                        d="M13.5909635,16.7689927 L13.5909635,13.4199416 C13.5909635,11.7596496 14.936365,10.4138102 16.5966569,10.4138102 L10.3027883,10.4138102 C8.64293431,10.4138102 7.29709489,11.7596496 7.29709489,13.4199416 L7.29709489,16.7689927 L29.8789927,20.7552701 L33.026146,20.1999416 L13.5909635,16.7689927 Z"
                        fill="#B3B5B7" id="Fill-9"></path>
                    <g id="Group-13" transform="translate(0.000000, 16.451387)">
                        <mask fill="white" id="mask-2">
                            <use xlink:href="#path-1"></use>
                        </mask>
                        <g id="Clip-12"></g>
                        <path
                            d="M52.4617226,0.317605839 L52.4617226,0.317605839 L7.29705109,0.317605839 C2.69413139,3.88081752 -0.000175182482,9.37366423 -0.000175182482,15.1945401 L-0.000175182482,53.3431533 C-0.000175182482,57.9872409 3.76493431,61.7519124 8.40858394,61.7519124 L51.3493139,61.7519124 C55.9929635,61.7519124 59.758073,57.9872409 59.758073,53.3431533 L59.758073,15.1949781 C59.758073,9.37366423 57.0642044,3.88081752 52.4617226,0.317605839"
                            fill="#96D7E8" id="Fill-11" mask="url(#mask-2)"></path>
                    </g>
                    <path
                        d="M6.29413139,69.7944088 L6.29413139,31.6462336 C6.29413139,25.8253577 8.988,20.3325109 13.5909197,16.7692993 L7.29705109,16.7692993 C2.69413139,20.3325109 0.000262773723,25.8253577 0.000262773723,31.6462336 L0.000262773723,69.7944088 C0.000262773723,74.4384964 3.76493431,78.2031679 8.4090219,78.2031679 L14.7028905,78.2031679 C10.0588029,78.2031679 6.29413139,74.4384964 6.29413139,69.7944088"
                        fill="#68C9E0" id="Fill-14"></path>
                    <path
                        d="M17.4821168,29.8239416 C16.830438,29.8239416 16.3018248,29.2957664 16.3018248,28.6440876 L16.3018248,26.400438 C16.3018248,25.7487591 16.830438,25.220146 17.4821168,25.220146 C18.1333577,25.220146 18.6619708,25.7487591 18.6619708,26.400438 L18.6619708,28.6440876 C18.6619708,29.2957664 18.1333577,29.8239416 17.4821168,29.8239416"
                        fill="#3B484A" id="Fill-16"></path>
                    <path
                        d="M42.2762628,29.8239416 C41.6250219,29.8239416 41.0964088,29.2957664 41.0964088,28.6440876 L41.0964088,26.400438 C41.0964088,25.7487591 41.6250219,25.220146 42.2762628,25.220146 C42.9279416,25.220146 43.4565547,25.7487591 43.4565547,26.400438 L43.4565547,28.6440876 C43.4565547,29.2957664 42.9279416,29.8239416 42.2762628,29.8239416"
                        fill="#3B484A" id="Fill-18"></path>
                    <path
                        d="M29.8787737,27.4586715 C31.6844672,27.4586715 33.3789197,28.2119562 34.5268029,29.5253869 C34.956,30.0163358 34.906073,30.7617372 34.4151241,31.1904964 C33.9246131,31.6192555 33.1787737,31.5693285 32.7504526,31.0788175 C32.0501606,30.2782336 31.0038832,29.8188175 29.8792117,29.8188175 C28.7545401,29.8188175 27.7082628,30.2777956 27.0079708,31.0788175 C26.5792117,31.5693285 25.8338102,31.6196934 25.3432993,31.1904964 C24.8519124,30.7617372 24.8019854,30.0163358 25.2311825,29.5253869 C26.3790657,28.2119562 28.0730803,27.4586715 29.8787737,27.4586715"
                        fill="#3B484A" id="Fill-20"></path>
                    <path
                        d="M27.4614307,63.505927 C28.2370511,63.9780438 29.0446423,64.3805255 29.7734015,64.9253431 C30.9707737,65.8200876 32.0117956,66.9281168 32.817635,68.1868029 C33.728146,69.6079708 35.0796788,70.5381898 36.8109197,70.542142 C38.268,70.5451971 39.6720876,69.8838832 40.6469781,68.8104526 C41.6687299,67.6849051 42.1658102,66.1599416 41.9871241,64.7094307 C41.7164672,62.5170219 40.5554453,60.6596496 39.088292,59.0611095 C37.8650803,57.7284088 36.5529635,56.5665109 34.9259562,55.7282628 C32.378365,54.415708 28.9916496,53.4889927 26.6301898,56.0922044 C25.5896058,57.2392117 25.0671241,58.8285547 25.3154453,60.3670949 C25.4319416,61.0945401 25.7209927,61.7606715 26.1444964,62.3606715 C26.4904818,62.8503066 26.9595328,63.2002336 27.4614307,63.505927"
                        fill="#9B4912" id="Fill-22"></path>
                    <path
                        d="M26.1450219,62.3604526 C25.7210803,61.7600146 25.4324672,61.0947591 25.3150949,60.3673139 C25.0676496,58.8283358 25.5892555,57.2389927 26.6298394,56.0919854 C27.1470657,55.5213285 27.713781,55.1205985 28.3089635,54.855635 C27.3625401,55.9873139 26.8983066,57.5013285 27.1352409,58.9689197 C27.2517372,59.6968029 27.5412263,60.3624964 27.963854,60.9624964 C28.3102774,61.4521314 28.7793285,61.8016204 29.2812263,62.1077518 C30.0564088,62.5798686 30.864,62.9827883 31.5931971,63.5271679 C32.7901314,64.4219124 33.8315912,65.5299416 34.6374307,66.7886277 C35.5479416,68.2093577 36.8994745,69.1404526 38.6307153,69.1435182 C39.3769927,69.1452701 40.1092555,68.9731533 40.7771387,68.6604526 C40.7346569,68.7108175 40.6912993,68.7607445 40.6470657,68.8097956 C39.6721752,69.8841022 38.2685255,70.5449781 36.8110073,70.541923 C35.0788905,70.5379708 33.7277956,69.6077518 32.8172847,68.1870219 C32.0118832,66.9283358 30.9704234,65.8203066 29.7734891,64.925562 C29.0447299,64.3803066 28.2367007,63.9773869 27.4615182,63.506146 C26.9591825,63.2000146 26.4905693,62.8500876 26.1450219,62.3604526"
                        fill="#723B0E" id="Fill-24"></path>
                </g>
            </g>
        </g>
    </g>
</svg>