<?xml version="1.0" encoding="UTF-8"?>
<svg height="132px" version="1.1" viewBox="0 0 130 132" width="130px"
    xmlns="http://www.w3.org/2000/svg">
    <title>congratulation</title>
    <g fill="none" fill-rule="evenodd" id="Page-1" stroke="none" stroke-width="1">
        <g fill-rule="nonzero" id="bản-xet-mình----xong"
            transform="translate(-115.000000, -168.000000)">
            <g id="congratulation" transform="translate(115.000000, 168.000000)">
                <polygon fill="#D69651" id="Path"
                    points="92 98.625 87.6190476 103.075 84.5633333 104.137438 63.9454762 111.301938 43.2208333 118.502594 22.7097619 125.630938 4.38095238 132 0 132 0 127.55 3.74845238 118.410812 9.07678571 105.419594 14.405119 92.4311563 20.125 78.48875 25.0617857 66.4542813 30.390119 53.4658437 32.8571429 47.45 37.2380952 43 58.5779829 64.5458429 82.1544232 88.1127701"></polygon>
                <g fill="#C78640" id="Group" transform="translate(3.000000, 53.000000)">
                    <polygon id="Path"
                        points="40.7622169 64.7060211 20.3885177 72 0.815309761 64.7060211 6.05590808 51.4586871"></polygon>
                    <polygon id="Path"
                        points="81.9563477 50.5057193 61.4124836 57.5879995 11.157644 38.8485606 16.8758446 24.7969697"></polygon>
                    <polygon id="Path"
                        points="78.8870453 34.4963567 21.7589979 13.0989877 26.9139741 0.0799654055 55.317531 10.744874"></polygon>
                </g>
                <path
                    d="M49.0714286,38.55 L58.330611,29.5596326 C59.4909724,28.4329587 60.1428568,26.9048612 60.1428571,25.311504 C60.1428558,22.9082302 58.6678004,20.7361953 56.3927954,19.7894978 L50.6272964,17.3902993 C46.7065009,15.7587425 43.2957504,13.1560044 40.7363312,9.84252006 L38,6.3 L44.6428571,2 C47.5131108,6.18038576 51.7365482,9.31257661 56.6454371,10.9013682 L59.2827289,11.7549451 C65.0857897,13.6331374 69,18.9061507 69,24.8455238 C69,28.1394231 67.7864697,31.3246678 65.5787321,33.8255819 L55.7142857,45 L49.0714286,38.55 Z"
                    fill="#FFC431" id="Path"></path>
                <polygon fill="#D1E4FF" id="Path"
                    points="78.1666667 29 76 16 89 20.3333333"></polygon>
                <polygon fill="#FB6A83" id="Path"
                    points="68.4833153 0.716104314 72.9054686 0.71456866 72.9023027 9.81926972 68.4801495 9.82080538"
                    transform="translate(70.692809, 5.267687) rotate(-75.935963) translate(-70.692809, -5.267687) "></polygon>
                <polygon fill="#FFC431" id="Path"
                    points="87.6512168 1.90849602 95.6170141 1.90307349 95.6140061 6.32426831 87.6482089 6.32969084"
                    transform="translate(91.632611, 4.116382) rotate(-33.705957) translate(-91.632611, -4.116382) "></polygon>
                <polygon fill="#6173E8" id="Path"
                    points="36.4415016 19.4656387 40.8579096 19.4641031 40.8547438 28.5806484 36.4383358 28.582184"
                    transform="translate(38.648123, 24.023144) rotate(-14.064037) translate(-38.648123, -24.023144) "></polygon>
                <path
                    d="M91.45,80.9285714 L100.440367,71.669389 C101.567041,70.5090276 103.095139,69.8571432 104.688496,69.8571429 C107.09177,69.8571442 109.263805,71.3321996 110.210502,73.6072046 L112.609693,79.3727036 C114.241249,83.2934991 116.843988,86.7042496 120.157472,89.2636687 L123.7,92 L128,85.3571429 C123.819614,82.4868892 120.687423,78.2634518 119.098632,73.3545629 L118.245055,70.7172711 C116.366863,64.9142103 111.093849,61 105.154476,61 C101.860577,61 98.6753322,62.2135303 96.1744181,64.4212679 L85,74.2857143 L91.45,80.9285714 Z"
                    fill="#6173E8" id="Path"></path>
                <polygon fill="#FFC431" id="Path"
                    points="108 50.8333333 121 53 116.666667 40"></polygon>
                <polygon fill="#FB6A83" id="Path"
                    points="122.563328 61.4346593 126.979736 61.4331236 126.97657 70.5496689 122.560162 70.5512046"
                    transform="translate(124.769949, 65.992164) rotate(-14.064037) translate(-124.769949, -65.992164) "></polygon>
                <polygon fill="#D1E4FF" id="Path"
                    points="121.913759 36.2347689 129.884068 36.2293464 129.88106 40.6480385 121.910751 40.6534611"
                    transform="translate(125.897410, 38.441404) rotate(-56.294043) translate(-125.897410, -38.441404) "></polygon>
                <polygon fill="#6173E8" id="Path"
                    points="103.816543 87.0028493 108.238696 87.0013136 108.23553 96.1060147 103.813377 96.1075503"
                    transform="translate(106.026036, 91.554432) rotate(-75.935963) translate(-106.026036, -91.554432) "></polygon>
                <path
                    d="M65,55.3478261 L73.6520371,45.0380818 C76.4613068,41.6899207 80.412082,39.5564533 84.7044638,39.069635 L84.9511306,39.0416598 C92.5000108,38.1973423 98.6854073,32.5428189 100.336342,24.9769131 L100.336342,24.9768937 C101.317108,20.4720617 104.661396,16.8921152 109.023205,15.6779002 L125.827586,11 L128,19.8695652 L116.252512,22.5341655 C111.511382,23.6095647 107.843221,27.4470418 106.906715,32.3113478 L106.845034,32.6317193 C105.262152,40.849551 98.5947932,47.0406174 90.4302406,47.873898 L90.1734993,47.9001048 C85.1845945,48.3970277 80.5883517,50.8801316 77.3804016,54.8115306 C74.5331709,58.3059564 71.5172414,62 71.5172414,62 L65,55.3478261 Z"
                    fill="#FB6A83" id="Path"></path>
            </g>
        </g>
    </g>
</svg>