<svg xmlns="http://www.w3.org/2000/svg" xmlns:xlink="http://www.w3.org/1999/xlink" width="154" height="122" viewBox="0 0 154 122">
    <defs>
        <path id="d3btu86baa" d="M0 0.037L153.887 0.037 153.887 121.982 0 121.982z"/>
    </defs>
    <g fill="none" fill-rule="evenodd">
        <g>
            <g>
                <g transform="translate(-103 -224) translate(103 224)">
                    <mask id="oi74i1pidb" fill="#fff">
                        <use xlink:href="#d3btu86baa"/>
                    </mask>
                    <path fill="#F5C376" d="M74.122 120.98c-2.926-1.041-28.98-10.445-42.489-20.16-11.14-8.011-19.65-18.05-25.29-29.837C.617 59.022 0 49.855 0 46.468c0-13.006 3.687-24.261 10.662-32.55C18.306 4.838 29.241.038 42.284.038c13.194 0 25.658 5.344 34.66 14.597C85.944 5.38 98.41.037 111.603.037c13.043 0 23.977 4.8 31.62 13.882 6.976 8.288 10.663 19.543 10.663 32.55 0 3.385-.618 12.553-6.342 24.514-5.641 11.787-14.15 21.826-25.29 29.837-13.513 9.717-39.564 19.12-42.49 20.16l-2.822 1.002-2.821-1.003z" mask="url(#oi74i1pidb)"/>
                </g>
                <path fill="#E5AE48" d="M77.5 28.083C70.678 16.093 57.732 8 42.884 8 20.936 8 9 24.385 9 46.198c0 8.793 5.36 31.28 28.148 47.71C50.068 103.222 77.5 113 77.5 113s27.432-9.777 40.352-19.093C140.64 77.478 146 54.991 146 46.197 146 24.386 134.064 8 112.116 8 97.268 8 84.322 16.093 77.5 28.083z" transform="translate(-103 -224) translate(103 224)"/>
                <g>
                    <g>
                        <path fill="#9B7A5A" d="M54.901 84.523C41.217 81.944 29.318 75.76 19.533 66.14c-9.527-9.365-15.88-20.738-18.878-33.8-1.79-7.797.128-15.883 5.251-22.186C11.157 3.7 18.98 0 27.373 0c11.338 0 21.37 6.843 25.56 17.428 1.673 4.234 3.724 7.56 6.09 9.889 2.47 2.428 6.171 4.622 11 6.527 10.738 4.233 17.549 14.688 16.94 26.017-.412 7.658-4.167 14.761-10.307 19.487C71.863 83.04 65.988 85 59.994 85c-1.693 0-3.4-.154-5.093-.477" transform="translate(-103 -224) translate(103 224) translate(16 17)"/>
                        <path fill="#FDFAFB" d="M7.472 30.894l5.55-.462c.154 1.755.408 3.443.753 5.022l-5.446 1.132c-.393-1.801-.68-3.715-.857-5.692m3.482 12.135c-.566-1.048-1.083-2.166-1.542-3.317l5.196-1.948c.38.958.808 1.881 1.274 2.743 2.009 3.716 5.284 7.384 9.738 10.905l-3.511 4.205c-5.04-3.988-8.793-8.22-11.155-12.588" transform="translate(-103 -224) translate(103 224) translate(16 17)"/>
                        <path fill="#88674D" d="M34.634 77.42c-1.521-1.481-24.28-35.215 22.373-52.235 0 0 4.251 4.967 6.496 5.756.721.254 2.681 47.113 2.681 47.113v6.577s-10.58 2.836-31.55-7.211" transform="translate(-103 -224) translate(103 224) translate(16 17)"/>
                    </g>
                    <g fill="#231F20" stroke="#000" stroke-width="1.5">
                        <path fill-rule="nonzero" d="M14.9 8.736c.218.254.13.597-.196.766l-6.388 3.311c-.326.17-.767.1-.984-.153-.218-.253-.13-.596.196-.765l6.389-3.312c.326-.169.766-.1.984.153z" transform="translate(-103 -224) translate(103 224) translate(16 17) translate(24.018 14.691) rotate(-4 11.116 10.698)"/>
                        <path d="M11.293 1.138c.197.389.677.547 1.073.353.396-.194.557-.666.36-1.055-.197-.389-.678-.547-1.074-.353-.395.193-.556.666-.36 1.055M.618 6.91c.197.388.678.547 1.073.353.396-.194.557-.666.36-1.055-.197-.39-.678-.547-1.074-.354-.395.194-.556.667-.359 1.056" transform="translate(-103 -224) translate(103 224) translate(16 17) translate(24.018 14.691)"/>
                    </g>
                </g>
                <g>
                    <g>
                        <path fill="#FFD375" d="M27.004 85c-5.996 0-11.868-1.96-16.66-5.652C4.204 74.622.445 67.516.038 59.861c-.61-11.33 6.2-21.784 16.938-26.017 4.829-1.905 8.53-4.1 11-6.527 2.368-2.33 4.416-5.655 6.09-9.89C38.257 6.844 48.29 0 59.626 0c8.393 0 16.216 3.7 21.467 10.155 5.126 6.303 7.04 14.389 5.25 22.185-2.998 13.063-9.35 24.439-18.876 33.801C57.683 75.76 45.784 81.947 32.1 84.523c-1.693.323-3.4.477-5.097.477" transform="translate(-103 -224) translate(103 224) translate(50 17)"/>
                        <path fill="#FDFAFB" d="M69.207 45.378l-5.987-3.004c.915-1.743 1.76-3.64 2.51-5.646l6.325 2.252c-.848 2.26-1.805 4.411-2.848 6.398M45.43 66.111l-2.73-6.004c6.34-2.748 11.353-6.031 14.904-9.761.824-.864 1.623-1.813 2.377-2.817l5.43 3.882c-.908 1.206-1.874 2.356-2.876 3.407-4.174 4.383-9.93 8.18-17.105 11.293" transform="translate(-103 -224) translate(103 224) translate(50 17)"/>
                        <path fill="#FEC96B" d="M86.355 25.59c-3 13.101-9.352 24.51-18.88 33.899-9.788 9.646-21.69 15.851-35.375 18.434-1.694.321-3.4.479-5.095.479-5.997 0-11.87-1.966-16.664-5.668C4.71 68.389 1.12 62.032.237 55.088c-.198 1.543-.292 3.107-.204 4.701.412 7.68 4.166 14.803 10.308 19.543C15.134 83.034 21.01 85 27.005 85c1.694 0 3.405-.158 5.095-.478 13.686-2.587 25.587-8.789 35.374-18.435 9.529-9.393 15.882-20.798 18.88-33.898.694-3.033.817-6.104.426-9.103-.107.835-.235 1.67-.425 2.505" transform="translate(-103 -224) translate(103 224) translate(50 17)"/>
                    </g>
                    <g>
                        <path fill="#231F20" fill-rule="nonzero" stroke="#231F20" d="M2.546 7.968c.201-.359.67-.495 1.05-.305.378.191.522.637.32.996-2.002 3.577-.514 7.99 3.33 9.86 3.853 1.873 8.606.481 10.613-3.103.2-.36.67-.496 1.049-.305.378.19.522.636.321.995-2.406 4.298-8.086 5.962-12.69 3.722-4.613-2.243-6.403-7.554-3.993-11.86z" transform="translate(-103 -224) translate(103 224) translate(50 17) translate(38.68 14.5)"/>
                        <path fill="#231F20" stroke="#231F20" d="M21.745 10.267c-.347.503-.216 1.19.292 1.534.509.343 1.203.214 1.55-.29.348-.503.216-1.19-.292-1.533-.509-.344-1.203-.215-1.55.289M6.13 1.436c-.348.503-.217 1.19.292 1.534.508.343 1.203.214 1.55-.29.347-.503.216-1.19-.293-1.534-.508-.343-1.202-.214-1.55.29" transform="translate(-103 -224) translate(103 224) translate(50 17) translate(38.68 14.5)"/>
                        <path fill="#F16A55" d="M25.879 17.036c-.362.644-1.344.638-2.195-.013-.85-.652-1.246-1.702-.885-2.346.362-.644 1.345-.638 2.195.014.85.651 1.246 1.701.885 2.345" transform="translate(-103 -224) translate(103 224) translate(50 17) translate(38.68 14.5) rotate(-14 24.34 15.857)"/>
                        <path fill="#F16A55" d="M1.376 3.776C.526 3.125.13 2.076.492 1.43c.362-.644 1.344-.638 2.195.013.85.65 1.246 1.7.884 2.344-.362.644-1.345.638-2.195-.012z" transform="translate(-103 -224) translate(103 224) translate(50 17) translate(38.68 14.5) rotate(-11 2.031 2.61)"/>
                    </g>
                </g>
                <path fill="#FEFEFE" d="M76.898 16c.813 0 1.477.733 1.477 1.629V23h5.911c.943 0 1.714.65 1.714 1.444v.412c0 .794-.77 1.444-1.714 1.444h-5.911v10.071c0 .896-.664 1.629-1.477 1.629h-.421C75.665 38 75 37.267 75 36.371V26.3h-5.286c-.943 0-1.714-.65-1.714-1.444v-.412c0-.794.771-1.444 1.714-1.444H75v-5.371c0-.896.665-1.629 1.477-1.629h.421z" transform="translate(-103 -224) translate(103 224)"/>
            </g>
        </g>
    </g>
</svg>
