<svg xmlns="http://www.w3.org/2000/svg" width="53" height="40" viewBox="0 0 53 40">
    <g fill="none" fill-rule="evenodd">
        <g fill-rule="nonzero">
            <g transform="translate(-17 -402) translate(24 402)">
                <path fill="#BFBFBD" d="M29.461 1.698c.524.699.808 1.549.808 2.422v3.118c0 .588.233 1.151.648 1.566.446.446.697 1.051.697 1.682 0 1.313-1.065 2.378-2.378 2.378h-8.697c-1.313 0-2.378-1.065-2.378-2.378 0-.63.25-1.236.697-1.682.415-.415.648-.978.648-1.566V4.12c0-.873.284-1.723.808-2.422C21.076.682 22.272.084 23.542.084h2.69c1.271 0 2.467.598 3.23 1.614z"/>
                <path fill="#FEC9A3" d="M28.923 8.156c0 2.229-1.807 4.036-4.035 4.036-.308 0-.614-.035-.914-.104-1.828-.426-3.121-2.055-3.122-3.932V4.793c1.649 0 3.156-.932 3.893-2.407l.143-.284c.06 0 .12.003.18.008 1.183.094 2.096 1.08 2.099 2.266 0 .127-.01.254-.031.38l-.14.844c-.18 1.07.45 2.11 1.482 2.447.146.046.295.082.445.109z"/>
                <path fill="#FEC093" d="M28.923 8.156c0 2.229-1.807 4.036-4.035 4.036-.308 0-.614-.035-.914-.104 1.185-1.14 1.853-2.713 1.851-4.356v-2.69c.002-1.026-.259-2.036-.757-2.932 1.183.094 2.096 1.08 2.099 2.266 0 .127-.01.254-.031.38l-.14.844c-.18 1.07.45 2.11 1.482 2.447.146.046.295.082.445.109z"/>
                <path fill="#D3669A" d="M30.941 15.555V26.99H19.506V15.555c0-1.486 1.205-2.69 2.691-2.69h6.054c.713-.001 1.398.282 1.903.787.504.504.788 1.189.787 1.903z"/>
                <path fill="#CC6395" d="M30.941 15.555V26.99H19.506v-5.51c3.885-2.002 7.26-4.865 9.869-8.37.955.439 1.566 1.394 1.566 2.445z"/>
                <path fill="#FEC9A3" d="M18.161 4.12v2.69c0 2.197-1.756 3.99-3.952 4.035l-.084.001c-2.229 0-4.035-1.807-4.035-4.036V4.12c0-2.229 1.806-4.036 4.035-4.036 2.23 0 4.036 1.807 4.036 4.036z"/>
                <path fill="#FEC093" d="M18.161 4.12v2.69c0 2.197-1.756 3.99-3.952 4.035.668-.995 1.024-2.167 1.022-3.365V4.79c.002-1.607-.636-3.147-1.773-4.281-.104-.105-.213-.205-.325-.302C14.34-.1 15.621.17 16.603.935c.983.764 1.558 1.94 1.558 3.185z"/>
                <g fill="#7A432A">
                    <path d="M10.762.673L12.107.673 12.107 2.018 10.762 2.018zM13.453.673L14.798.673 14.798 2.018 13.453 2.018zM0 0L1.345 0 1.345 1.345 0 1.345zM2.691 0L4.036 0 4.036 1.345 2.691 1.345z" transform="translate(12.107 5.465)"/>
                </g>
                <path fill="#92563A" d="M10.09 6.81l1.216 1.217c.479.478 1.21.597 1.815.295.218-.11.459-.166.703-.166h.603c.244 0 .485.057.703.166.605.302 1.336.184 1.814-.295l1.217-1.217v3.364c0 1.486-1.204 2.69-2.69 2.69h-2.69c-1.487 0-2.691-1.204-2.691-2.69V6.81zM10.09 4.214c0-.795.644-1.44 1.438-1.44h.24c.223 0 .443.053.643.153l.738.368c.2.1.42.152.643.152h.722c.188 0 .373-.036.546-.107l1.117-.458c.173-.07.358-.107.545-.107.795 0 1.44.644 1.44 1.439V2.978c0-.967-.484-1.871-1.29-2.408-.475-.317-1.034-.486-1.605-.486h-2.283c-.572 0-1.13.17-1.606.486-.805.537-1.288 1.44-1.288 2.408v1.236z"/>
                <path fill="#F35244" d="M19.506 15.555V26.99H8.072V15.555c0-1.486 1.204-2.69 2.69-2.69h6.054c.714-.002 1.399.281 1.903.786.505.505.788 1.19.787 1.904z"/>
                <path fill="#E64D40" d="M19.506 15.555V26.99H8.072v-7.248c3.655-1.546 6.952-3.83 9.683-6.71 1.053.393 1.751 1.399 1.751 2.523z"/>
                <path fill="#F35244" d="M8.072 26.99L19.506 26.99 19.506 39.097 8.072 39.097z"/>
                <path fill="#348FD9" d="M10.762 23.626v11.435H3.363v-9.417H0v-2.018c0-1.857 1.506-3.363 3.363-3.363H7.4c1.857.002 3.362 1.506 3.363 3.363z"/>
                <path fill="#3086CD" d="M10.762 23.626v11.435H3.363v-7.995c2.198-1.441 4.302-3.403 6.221-5.995.749.638 1.18 1.572 1.178 2.555z"/>
                <path fill="#7A432A" d="M3.363 35.061L10.762 35.061 10.762 39.097 3.363 39.097z"/>
                <path fill="#FEC9A3" d="M10.09 32.37h-7.4C1.206 32.37 0 31.167 0 29.68v-4.036h4.036v3.363h4.036l2.018-.672v4.036z"/>
                <path fill="#7EB457" d="M38.34 39.097L27.578 39.097 27.578 21.608 35.65 21.608 35.923 23.796 36.995 32.371z"/>
                <path fill="#79AD54" d="M38.34 39.097H27.578V30.84c3.024-1.378 5.9-3.628 8.345-7.044l1.072 8.575 1.345 6.726z"/>
                <path fill="#FEB784" d="M27.578 21.608v8.745h-3.363v-5.381c0-1.858 1.506-3.364 3.363-3.364zM35.65 21.608v7.4h-5.381v3.363h6.053c1.486 0 2.69-1.205 2.69-2.69v-4.71c0-1.857-1.505-3.363-3.362-3.363z"/>
                <path fill="#FEC9A3" d="M10.762 15.555v2.018c0 2.229-1.807 4.035-4.036 4.035-.061 0-.122-.001-.183-.004-2.155-.098-3.852-1.874-3.852-4.031v-2.018c0-2.23 1.806-4.036 4.035-4.036.119 0 .236.005.351.015 2.085.182 3.685 1.928 3.685 4.02z"/>
                <path fill="#FEC093" d="M10.762 15.555v2.018c0 2.229-1.807 4.035-4.036 4.035-.061 0-.122-.001-.183-.004.994-1.108 1.543-2.546 1.541-4.035v-2.69c.002-1.19-.348-2.354-1.007-3.345 2.085.182 3.685 1.928 3.685 4.02z"/>
                <path fill="#7A432A" d="M4.708 16.227L6.054 16.227 6.054 17.573 4.708 17.573zM7.399 16.227L8.744 16.227 8.744 17.573 7.399 17.573z"/>
                <path fill="#804A32" d="M2.69 15.555v-1.346c0-1.114.904-2.017 2.018-2.017l-2.017 3.363z"/>
                <path fill="#92563A" d="M10.762 13.537v2.018l-2.69-2.018H4.708c-1.114 0-2.017-.904-2.017-2.018v-.673h5.38c1.487 0 2.691 1.205 2.691 2.69z"/>
                <path fill="#F7A116" d="M36.322 13.537h-2.018v2.69h2.018v2.69c0 1.487 1.205 2.691 2.69 2.691v-5.38c0-1.487-1.204-2.691-2.69-2.691z"/>
                <path fill="#FEC9A3" d="M36.322 16.9v2.018c0 2.064-1.557 3.795-3.61 4.013-.14.015-.283.023-.425.023-2.23 0-4.036-1.807-4.036-4.036V16.9c0-2.229 1.807-4.036 4.036-4.036.098 0 .195.004.292.011 2.11.153 3.743 1.91 3.743 4.025z"/>
                <path fill="#FEC093" d="M36.322 16.9v2.018c0 2.064-1.557 3.795-3.61 4.013.772-1.04 1.187-2.301 1.185-3.596v-2.69c.002-1.37-.463-2.7-1.318-3.77 2.11.153 3.743 1.91 3.743 4.025z"/>
                <path fill="#7A432A" d="M30.269 17.573L31.614 17.573 31.614 18.918 30.269 18.918zM32.959 17.573L34.304 17.573 34.304 18.918 32.959 18.918z"/>
                <path fill="#FFB531" d="M28.25 17.573s3.364 0 5.382-2.69c0 0 .672 2.017 2.69 2.69v-1.346c0-2.229-1.807-4.035-4.035-4.035-2.23 0-4.036 1.806-4.036 4.035v1.346z"/>
                <path fill="#FEC9A3" d="M28.251 29.007L30.941 29.007 30.941 36.406 28.251 36.406zM1.345 19.59h.673c.743 0 1.345.603 1.345 1.346v1.345H0v-1.345c0-.743.602-1.345 1.345-1.345z"/>
                <path fill="#F59898" d="M20.852 39.097H8.744l1.107-5.534.239-1.192v-3.364c0-1.486 1.204-2.69 2.69-2.69h4.036c.714-.001 1.398.282 1.903.788.045.045.088.091.13.14.425.489.658 1.115.657 1.762v3.364l1.346 6.726z"/>
                <path fill="#ED9191" d="M20.852 39.097H8.744l1.107-5.534c3.195-1.171 6.286-3.183 8.998-6.318.425.489.658 1.115.657 1.762v3.364l1.346 6.726z"/>
                <path fill="#FEC9A3" d="M10.762 36.406L13.453 36.406 12.78 29.68 10.09 29.68z"/>
                <path fill="#FEB784" d="M18.834 36.406L16.143 36.406 16.816 29.68 19.506 29.68z"/>
                <path fill="#F57707" d="M8.072 25.644v-4.036c0-1.486 1.204-2.69 2.69-2.69h2.018v2.69h-2.018v1.346c0 1.486-1.204 2.69-2.69 2.69z"/>
                <path fill="#FEC9A3" d="M18.834 20.936v1.345c0 2.229-1.807 4.036-4.036 4.036-2.229 0-4.036-1.807-4.036-4.036v-1.345c0-2.23 1.807-4.036 4.036-4.036 2.229 0 4.036 1.807 4.036 4.036z"/>
                <path fill="#FEC093" d="M18.834 20.936v1.345c0 1.71-1.078 3.236-2.69 3.806.396-.82.602-1.72.6-2.632v-2.69c.002-1.393-.478-2.743-1.358-3.822 1.98.292 3.448 1.991 3.448 3.993z"/>
                <path fill="#7A432A" d="M12.78 21.608L14.125 21.608 14.125 22.954 12.78 22.954zM15.471 21.608L16.816 21.608 16.816 22.954 15.471 22.954z"/>
                <path fill="#F98500" d="M18.834 20.936h-.59c-1.63 0-3.05-1.11-3.446-2.69-.395 1.58-1.816 2.69-3.446 2.69h-.59v-.673c0-2.229 1.807-4.036 4.036-4.036 2.229 0 4.036 1.807 4.036 4.036v.673z"/>
                <path fill="#FEC9A3" d="M28.923 18.918v1.345c0 2.118-1.637 3.876-3.75 4.026-.095.007-.19.01-.285.01-2.23 0-4.036-1.807-4.036-4.036v-1.345c0-2.229 1.807-4.036 4.036-4.036.136 0 .273.007.409.021 2.06.21 3.626 1.945 3.626 4.015z"/>
                <path fill="#FEC093" d="M28.923 18.918v1.345c0 2.118-1.637 3.876-3.75 4.026.7-1.01 1.075-2.211 1.072-3.44v-2.691c.002-1.153-.327-2.283-.948-3.255 2.06.21 3.626 1.945 3.626 4.015z"/>
                <path fill="#92563A" d="M26.905 15.555s-.672 2.69 2.018 3.363c0-2.229-1.807-4.036-4.035-4.036-1.97 0-3.65 1.421-3.98 3.363.538-.01 4.739-.173 5.997-2.69z"/>
                <path fill="#7A432A" d="M22.87 19.591L24.215 19.591 24.215 20.936 22.87 20.936zM25.56 19.591L26.905 19.591 26.905 20.936 25.56 20.936z"/>
                <path fill="#348FD9" d="M30.941 26.99v2.017h-2.69v4.036h-6.727v-4.036h-2.69V26.99c0-1.486 1.204-2.691 2.69-2.691h6.727c.714-.001 1.399.282 1.903.787.505.505.788 1.19.787 1.904z"/>
                <path fill="#3086CD" d="M30.941 26.99v2.017h-2.69v4.036h-6.727V30.28c2.77-1.215 5.422-3.078 7.773-5.77.996.42 1.644 1.397 1.644 2.48z"/>
                <path fill="#7A432A" d="M21.524 33.043L28.251 33.043 28.251 39.097 21.524 39.097z"/>
                <path fill="#5C2E1A" d="M24.215 35.061L25.56 35.061 25.56 39.097 24.215 39.097z"/>
                <path fill="#FEC9A3" d="M18.834 29.007L21.524 29.007 21.524 36.406 18.834 36.406z"/>
                <rect width="1.345" height="2.691" x="20.852" y="26.99" fill="#2A71AD" rx=".673"/>
                <rect width="1.345" height="2.691" x="27.578" y="26.99" fill="#2A71AD" rx=".673"/>
            </g>
        </g>
    </g>
</svg>
