<svg xmlns="http://www.w3.org/2000/svg" width="58" height="59" viewBox="0 0 58 59">
    <g fill="none">
        <path fill="#D69651" d="M41 44L39.048 46 37.686 46.477 28.497 49.697 19.261 52.934 10.121 56.138 1.952 59 0 59 0 57 1.671 52.892 4.045 47.054 6.42 41.216 8.969 34.95 11.169 29.541 13.543 23.704 14.643 21 16.595 19 26.105 28.684 36.612 39.275z"/>
        <g fill="#C78640">
            <path d="M18.617 29.747L9.535 33 .809 29.747 3.145 23.84zM36.981 23.415L27.822 26.573 5.42 18.216 7.969 11.95zM35.612 16.275L10.146 6.733 12.444.928 25.105 5.684z" transform="translate(1 23)"/>
        </g>
        <path fill="#FFC431" d="M22 17.15l4.182-3.972c.524-.498.818-1.174.818-1.878 0-1.061-.666-2.021-1.694-2.44L22.703 7.8c-1.771-.72-3.311-1.87-4.467-3.335L17 2.9 20 1c1.296 1.847 3.204 3.231 5.42 3.933l1.192.377C29.232 6.14 31 8.47 31 11.095c0 1.455-.548 2.862-1.545 3.967L25 20l-3-2.85z"/>
        <path fill="#D1E4FF" d="M35 13L34 7 40 9z"/>
        <path fill="#FB6A83" d="M30.553 0.324L32.53 0.322 32.526 4.385 30.55 4.387z" transform="rotate(-75.936 31.54 2.354)"/>
        <path fill="#FFC431" d="M39.106 0.855L42.662 0.85 42.659 2.825 39.103 2.83z" transform="rotate(-33.706 40.882 1.84)"/>
        <path fill="#6173E8" d="M16.259 8.701L18.23 8.7 18.227 12.774 16.256 12.776z" transform="rotate(-14.064 17.243 10.738)"/>
        <path fill="#6173E8" d="M40.85 36l3.972-4.182C45.32 31.294 45.996 31 46.7 31c1.061 0 2.021.666 2.44 1.694l1.06 2.603c.72 1.771 1.87 3.311 3.335 4.467L55.1 41l1.9-3c-1.847-1.296-3.231-3.204-3.933-5.42l-.377-1.192C51.86 28.768 49.53 27 46.905 27c-1.455 0-2.862.548-3.967 1.545L38 33l2.85 3z"/>
        <path fill="#FFC431" d="M48 23L54 24 52 18z"/>
        <path fill="#FB6A83" d="M54.683 27.46L56.653 27.459 56.65 31.533 54.68 31.534z" transform="rotate(-14.064 55.667 29.496)"/>
        <path fill="#D1E4FF" d="M54.391 16.199L57.951 16.193 57.948 18.166 54.388 18.171z" transform="rotate(-56.294 56.17 17.182)"/>
        <path fill="#6173E8" d="M46.317 38.892L48.294 38.89 48.291 42.953 46.314 42.954z" transform="rotate(-75.936 47.304 40.922)"/>
        <path fill="#FB6A83" d="M29 25l3.845-4.65c1.249-1.51 3.005-2.472 4.913-2.691l.11-.013c3.354-.38 6.103-2.93 6.837-6.343.436-2.031 1.922-3.646 3.86-4.193L56.036 5 57 9l-5.221 1.202c-2.107.485-3.738 2.215-4.154 4.409l-.027.144c-.704 3.707-3.667 6.499-7.296 6.874l-.114.012c-2.217.224-4.26 1.344-5.686 3.117C33.237 26.334 31.897 28 31.897 28L29 25z"/>
    </g>
</svg>
