<svg height="17" viewBox="0 0 27 17" width="27" xmlns="http://www.w3.org/2000/svg">
    <g fill="none" fill-rule="evenodd">
        <g fill="#88674D" fill-rule="nonzero">
            <g>
                <path
                    d="M27 .38L6.526.374v3.128H0v13.872h20.36v-3.128l6.64.004V.38zM11.562 11.341l5.968 4.673H2.83l5.967-4.673 1.383 1.052 1.382-1.052zm-4.057-.983l-6.13 4.8V5.693l6.13 4.666zm2.675.061L2.878 4.863h14.604L10.18 10.42zm8.804 4.739l-6.13-4.8 6.13-4.666v9.466zm6.526-2.272h-5.15v-1.562h3.465V9.761H20.36V8.197h3.465V6.633H20.36V5.07h3.465V3.505L7.9 3.503V1.735h17.61v11.152z"
                    transform="translate(-314 -234) translate(314 233.625)" />
            </g>
        </g>
    </g>
</svg>
