<?xml version="1.0" encoding="UTF-8"?>
<svg height="15px" version="1.1" viewBox="0 0 15 15" width="15px"
    xmlns="http://www.w3.org/2000/svg">
    <title>close</title>
    <defs>
        <linearGradient id="linearGradient-1" x1="4.88279819e-05%" x2="100.000049%" y1="49.9999658%"
            y2="49.9999658%">
            <stop offset="0%" stop-color="#FF78E5"></stop>
            <stop offset="29.3%" stop-color="#D63FBC"></stop>
            <stop offset="55.4%" stop-color="#D54FC3"></stop>
            <stop offset="79.6%" stop-color="#8E3387"></stop>
            <stop offset="100%" stop-color="#863082"></stop>
        </linearGradient>
    </defs>
    <g fill="none" fill-rule="evenodd" id="Page-1" stroke="none" stroke-width="1">
        <g fill="url(#linearGradient-1)" fill-rule="nonzero" id="câu-gợi-ý-xét-mình--khác"
            transform="translate(-320.000000, -156.000000)">
            <g id="Group-3" transform="translate(27.000000, 127.000000)">
                <g id="close"
                    transform="translate(300.500000, 36.500000) scale(1, -1) translate(-300.500000, -36.500000) translate(293.000000, 29.000000)">
                    <path
                        d="M8.32867433,7.50003296 L14.8283721,1.00029004 C15.0572093,0.77145226 15.0572093,0.400436816 14.8283721,0.171628334 C14.5995349,-0.0571801479 14.2285203,-0.0572094447 13.9997124,0.171628334 L7.49998535,6.67137125 L1.0002876,0.171628334 C0.771450377,-0.0572094447 0.400435839,-0.0572094447 0.171627915,0.171628334 C-0.0571800083,0.400466113 -0.0572093051,0.771481557 0.171627915,1.00029004 L6.67132567,7.5 L0.171627915,13.9997466 C-0.0572093051,14.2285844 -0.0572093051,14.5995998 0.171627915,14.8284083 C0.286031877,14.9428125 0.436002141,15 0.585972404,15 C0.735942668,15 0.885883635,14.9428125 1.00031689,14.8284083 L7.49998535,8.32869466 L13.9996831,14.8284083 C14.1140871,14.9428125 14.2640573,15 14.4140276,15 C14.5639979,15 14.7139388,14.9428125 14.8283721,14.8284083 C15.0572093,14.5995705 15.0572093,14.2285551 14.8283721,13.9997466 L8.32867433,7.50003296 Z"
                        id="Path"></path>
                </g>
            </g>
        </g>
    </g>
</svg>