<?xml version="1.0" encoding="UTF-8"?>
<svg xmlns:xlink="http://www.w3.org/1999/xlink" height="25px" version="1.1" viewBox="0 0 26 25"
    width="26px" xmlns="http://www.w3.org/2000/svg">
    <title>Group 3</title>
    <g fill="none" fill-rule="evenodd" id="Page-1" stroke="none" stroke-width="1">
        <g fill="#8E8E93" fill-rule="nonzero" id="home--copy-2"
            transform="translate(-212.000000, -599.000000)">
            <g id="Group-3" transform="translate(212.000000, 599.000000)">
                <path
                    d="M3.85683594,25 C1.79662634,25 0.108522705,23.3089149 0.00502815115,21.1895506 L0,20.9831562 L0,18.9325826 C0,18.5029205 0.308639423,18.1484257 0.707641642,18.0964304 L0.809148437,18.0898652 L3.006,18.089 L3.11155052,3.07008712 C3.11155052,1.44047379 4.39155693,0.0989750578 5.99986859,0.00523230796 L6.17987259,0 L23,0 C24.60209,0.041246941 25.9039758,1.36306621 25.9949242,3.01710841 L26,3.20220987 L26,6.96624899 C26,7.39591112 25.6913606,7.75040595 25.2923584,7.80240123 L25.1908516,7.80896642 L21.4688398,7.80896642 L21.4688398,20.9831033 C21.4688398,23.198 19.7386719,25 17.6120039,25 L3.85683594,25 Z M20.2137961,1.69339668 L6.17992511,1.69337025 C5.45612572,1.69337025 4.85933163,2.2428764 4.79162506,2.94330306 L4.78522848,3.07630434 L4.679,18.089 L14.5642656,18.0898652 C14.9768125,18.0898652 15.3171863,18.4113091 15.3671104,18.8268646 L15.3734141,18.9325826 L15.3734141,20.9831562 C15.3734141,22.2685462 16.3778164,23.314618 17.6120039,23.314618 C18.7947669,23.314618 19.7664946,22.3539028 19.8454185,21.1425252 L19.8505938,20.9831562 L19.8505938,3.20226276 C19.8505938,2.65705039 19.9820943,2.14323072 20.2137961,1.69339668 Z M16.2404894,16 C16.6599982,16 17,16.2238295 17,16.5 C17,16.751064 16.7190068,16.9588711 16.352734,16.9945793 L16.2404894,17 L7.75951057,17 C7.34000181,17 7,16.7761705 7,16.5 C7,16.248936 7.28099323,16.0411289 7.64726605,16.0054207 L7.75951057,16 L16.2404894,16 Z M16.2404894,13.3333333 C16.6599982,13.3333333 17,13.5571629 17,13.8333333 C17,14.08454 16.7190068,14.2922304 16.352734,14.3279162 L16.2404894,14.3333333 L7.75951057,14.3333333 C7.34000181,14.3333333 7,14.1095038 7,13.8333333 C7,13.5822693 7.28099323,13.3744622 7.64726605,13.338754 L7.75951057,13.3333333 L16.2404894,13.3333333 Z M16.2404894,10.6666667 C16.6599982,10.6666667 17,10.8904962 17,11.1666667 C17,11.4178733 16.7190068,11.6255637 16.352734,11.6612496 L16.2404894,11.6666667 L7.75951057,11.6666667 C7.34000181,11.6666667 7,11.4428371 7,11.1666667 C7,10.9156026 7.28099323,10.7077955 7.64726605,10.6720873 L7.75951057,10.6666667 L16.2404894,10.6666667 Z M16.2404894,8 C16.6599982,8 17,8.22382955 17,8.5 C17,8.75106405 16.7190068,8.95887115 16.352734,8.99457935 L16.2404894,9 L7.75951057,9 C7.34000181,9 7,8.77617045 7,8.5 C7,8.24893595 7.28099323,8.04112885 7.64726605,8.00542065 L7.75951057,8 L16.2404894,8 Z M22.9252969,1.68538197 L23,1.689 L23,1.69337025 L22.7782012,1.69306011 C22.0899641,1.76528848 21.5414103,2.33871746 21.4755295,3.05677552 L21.4688906,3.20220987 L21.4688906,6.12358445 L24.3817031,6.12358445 L24.3817031,3.20220987 C24.3817031,2.36573323 23.7281992,1.68538197 22.9252969,1.68538197 Z M12.1627785,5 C12.6251576,5 13,5.22382955 13,5.5 C13,5.75315625 12.6850724,5.9623316 12.2763944,5.99543613 L12.1627785,6 L7.83722152,6 C7.37478983,6 7,5.77617045 7,5.5 C7,5.24684375 7.31492756,5.0376684 7.72360564,5.00456387 L7.83722152,5 L12.1627785,5 Z M13.7601961,21.1894979 L13.755168,20.9831033 L13.755168,19.7752471 L1.61824609,19.7752471 L1.61824609,20.9831562 C1.61824609,22.2149883 2.54045881,23.2270299 3.70378618,23.3092281 L3.85683594,23.314618 L14.4735214,23.3153999 C14.0574713,22.7098462 13.79877,21.9794162 13.7601961,21.1894979 Z"
                    id="Combined-Shape"></path>
            </g>
        </g>
    </g>
</svg>