<?xml version="1.0" encoding="UTF-8"?>
<svg xmlns:xlink="http://www.w3.org/1999/xlink" height="26px" version="1.1" viewBox="0 0 26 26"
    width="26px" xmlns="http://www.w3.org/2000/svg">
    <title>calendar</title>
    <g fill="none" fill-rule="evenodd" id="Page-1" stroke="none" stroke-width="1">
        <g fill="#8E8E93" fill-rule="nonzero" id="home--copy-2"
            transform="translate(-123.000000, -599.000000)">
            <g id="calendar" transform="translate(123.000000, 599.000000)">
                <path
                    d="M23.5523438,12.0976172 L23.5523438,2.39352344 C23.5523438,1.97285156 23.2112969,1.63180469 22.790625,1.63180469 L19.064957,1.63180469 L19.064957,0.76171875 C19.064957,0.341046875 18.7239102,0 18.3032383,0 C17.8825664,0 17.5415195,0.341046875 17.5415195,0.76171875 L17.5415195,1.63180469 L12.5378906,1.63180469 L12.5378906,0.76171875 C12.5378906,0.341046875 12.1968437,0 11.7761719,0 C11.3555,0 11.0144531,0.341046875 11.0144531,0.76171875 L11.0144531,1.63180469 L6.01082422,1.63180469 L6.01082422,0.76171875 C6.01082422,0.341046875 5.66977734,0 5.24910547,0 C4.82843359,0 4.48738672,0.341046875 4.48738672,0.76171875 L4.48738672,1.63180469 L0.76171875,1.63180469 C0.341046875,1.63180469 0,1.97285156 0,2.39352344 L0,22.7906758 C0,23.2113477 0.341046875,23.5523945 0.76171875,23.5523945 L12.0976172,23.5523945 C13.5704258,25.0614102 15.6251367,26 17.8952617,26 C22.3642148,26 26,22.3642656 26,17.8953125 C26,15.6251367 25.0614102,13.5704258 23.5523438,12.0976172 Z M1.5234375,3.15524219 L22.0289062,3.15524219 L22.0289062,6.52711719 L1.5234375,6.52711719 L1.5234375,3.15524219 Z M1.5234375,22.0289062 L1.5234375,8.05055469 L22.0289062,8.05055469 L22.0289062,10.9267031 C20.8178242,10.2056094 19.4042266,9.790625 17.8953125,9.790625 C13.4264102,9.790625 9.790625,13.4263594 9.790625,17.8953125 C9.790625,19.4042266 10.2056094,20.817875 10.9267031,22.0289062 L1.5234375,22.0289062 L1.5234375,22.0289062 Z M17.8952617,24.4765625 C14.2663828,24.4765625 11.3140117,21.5242422 11.3140117,17.8953125 C11.3140117,14.2663828 14.266332,11.3140625 17.8952617,11.3140625 C21.5241914,11.3140625 24.4765625,14.2664336 24.4765625,17.8953125 C24.4765625,21.5242422 21.5241914,24.4765625 17.8952617,24.4765625 Z"
                    id="Shape"></path>
                <path
                    d="M20.2327366,17.4654731 L18.5345269,17.4654731 L18.5345269,15.7672634 C18.5345269,15.3435294 18.1909974,15 17.7672634,15 C17.3435294,15 17,15.3435294 17,15.7672634 L17,18.2327366 C17,18.6564706 17.3435294,19 17.7672634,19 L20.2327366,19 C20.6564706,19 21,18.6564706 21,18.2327366 C21,17.8090026 20.6564706,17.4654731 20.2327366,17.4654731 Z"
                    id="Path"></path>
            </g>
        </g>
    </g>
</svg>