<?xml version="1.0" encoding="UTF-8"?>
<svg height="17px" version="1.1" viewBox="0 0 17 17" width="17px"
    xmlns="http://www.w3.org/2000/svg">
    <title>edit (1) copy</title>
    <g fill="none" fill-rule="evenodd" id="Page-1" stroke="none" stroke-width="1">
        <g fill="#88674D" fill-rule="nonzero" id="SETTING"
            transform="translate(-317.000000, -183.000000)">
            <g id="edit-(1)-copy" transform="translate(317.000000, 183.000000)">
                <path
                    d="M16.0037729,0.996292969 C15.3613254,0.3538125 14.5071745,0 13.598637,0 C12.6900994,0 11.8359154,0.3538125 11.1934678,0.996259766 L1.68757446,10.5021816 C1.60669161,10.5830645 1.54808806,10.6834707 1.51740836,10.7936719 L0.0243294986,16.1578691 C-0.0400513926,16.3892285 0.0254584054,16.6373555 0.195757318,16.8067246 C0.321929255,16.9322324 0.490999651,17 0.664120831,17 C0.724616954,17 0.785644328,16.9916992 0.845509592,16.9746992 L6.20970951,15.4509746 C6.43602212,15.3866934 6.61146752,15.2074297 6.67083474,14.9797559 C6.73020195,14.752082 6.66465895,14.509998 6.49854364,14.3433516 L3.11673728,10.9512871 L10.9963408,3.0716543 L13.9267836,6.0020957 L7.89463612,12.0178047 C7.63495435,12.2767891 7.6343899,12.6972402 7.8933744,12.9569219 C8.1523257,13.2166367 8.57284349,13.217168 8.83249206,12.9582168 L16.0037065,5.8065293 C16.6461873,5.16408203 17,4.30993164 17,3.40139453 C17,2.49285742 16.6461873,1.63870703 16.0037729,0.996292969 Z M4.76115606,14.4818086 L1.62120138,15.3737109 L2.50058658,12.2143672 L4.76115606,14.4818086 Z M15.0652529,4.86674805 L14.8671962,5.06427344 L11.9354916,2.13253711 L12.1326519,1.93537695 C12.5242165,1.5437793 13.0448418,1.328125 13.598637,1.328125 C14.1524322,1.328125 14.6730242,1.5437793 15.0646221,1.93541016 C15.4562199,2.32697461 15.6718743,2.84759961 15.6718743,3.40139453 C15.6718743,3.95518945 15.4562199,4.47581445 15.0652529,4.86674805 Z"
                    id="Shape"></path>
            </g>
        </g>
    </g>
</svg>