<svg xmlns="http://www.w3.org/2000/svg" width="53" height="40" viewBox="0 0 53 40">
    <g fill="none" fill-rule="evenodd">
        <g fill-rule="nonzero">
            <g>
                <g>
                    <g>
                        <path fill="#CF8151" d="M9.852 0C1.912 0-.065 7.212.022 18.88c0 0-.058 2.022 2.325 3.543h15.01c2.383-1.52 2.325-3.543 2.325-3.543C19.77 7.212 17.793 0 9.853 0z" transform="translate(-17 -187) translate(24 188) translate(19.27)"/>
                        <path fill="#BD6E45" d="M9.852 19.424c-2.664 0-5.595.789-7.505 2.998.383.244.828.475 1.346.683H16.01c.519-.208.964-.439 1.346-.683-1.91-2.21-4.84-2.998-7.504-2.998z" transform="translate(-17 -187) translate(24 188) translate(19.27)"/>
                        <path fill="#F0C69E" d="M6.453 7.561c-.39.838-1.288 2.357-2.889 3.086-.14.064-.232.204-.232.359v2.256c0 3.6 2.92 6.683 6.52 6.683 3.601 0 6.52-3.082 6.52-6.683V10.534c0-.223-.185-.402-.408-.394-1.44.051-6.33.012-8.865-2.681-.192-.204-.527-.151-.646.102z" transform="translate(-17 -187) translate(24 188) translate(19.27)"/>
                        <path fill="#E6BA94" d="M9.852 19.212c-3.6 0-6.52-2.919-6.52-6.52v1.421c0 3.601 2.92 6.52 6.52 6.52 3.601 0 6.52-2.919 6.52-6.52v-1.42c0 3.6-2.919 6.52-6.52 6.52z" transform="translate(-17 -187) translate(24 188) translate(19.27)"/>
                    </g>
                    <g>
                        <path fill="#26457D" d="M15.86 11.326c.065-1.11.058-2.12-.012-3.037H.414c-.07.917-.077 1.927-.013 3.037h15.46z" transform="translate(-17 -187) translate(24 188) translate(2.37 20.57)"/>
                        <path fill="#E2AE84" d="M.26 11.615c0 1.247.63 1.95 1.457 1.95l.564-.72.686-1.23-.688-1.23c-.066-.007-.134-.01-.202-.01-.827 0-1.533.514-1.817 1.24z" transform="translate(-17 -187) translate(24 188) translate(2.37 20.57)"/>
                        <path fill="#D7A379" d="M2.077 12.856c-.827 0-1.533-.514-1.817-1.24-.086.22-.134.459-.134.71 0 1.077.873 1.951 1.951 1.951.137 0 .27-.014.398-.04l.492-.673-.686-.718c-.067.007-.135.01-.204.01z" transform="translate(-17 -187) translate(24 188) translate(2.37 20.57)"/>
                        <path fill="#E2AE84" d="M16.003 11.615c0 1.247-.63 1.95-1.458 1.95l-.563-.72-.687-1.23.688-1.23c.067-.007.134-.01.202-.01.827 0 1.533.514 1.818 1.24z" transform="translate(-17 -187) translate(24 188) translate(2.37 20.57)"/>
                        <path fill="#D7A379" d="M14.185 12.856c.827 0 1.533-.514 1.818-1.24.086.22.134.459.134.71 0 1.077-.874 1.951-1.952 1.951-.136 0-.27-.014-.398-.04l-.492-.673.687-.718c.066.007.134.01.203.01z" transform="translate(-17 -187) translate(24 188) translate(2.37 20.57)"/>
                        <path fill="#F0C69E" d="M12.059 8.289l-3.995-.688-3.86.688c-1.115 1.835-1.925 2.096-1.925 2.096v1.564c0 3.232 2.62 5.945 5.852 5.945s5.852-2.713 5.852-5.945v-1.564s-.81-.26-1.924-2.096z" transform="translate(-17 -187) translate(24 188) translate(2.37 20.57)"/>
                        <path fill="#E6BA94" d="M8.131 17.161c-3.232 0-5.852-2.62-5.852-5.852v1.421c0 3.232 2.62 5.852 5.852 5.852s5.852-2.62 5.852-5.852v-1.42c0 3.231-2.62 5.851-5.852 5.851z" transform="translate(-17 -187) translate(24 188) translate(2.37 20.57)"/>
                        <path fill="#DC4955" d="M16.079 6.868c-.8-5.231-4.456-6.805-7.948-6.805S.983 1.637.183 6.868l7.948.688 7.948-.688z" transform="translate(-17 -187) translate(24 188) translate(2.37 20.57)"/>
                        <path fill="#D82F3C" d="M.182 6.868c-.048.319-.086.65-.113.997-.018.228.164.424.394.424h5.18l2.488-.688 2.489.688h5.18c.229 0 .411-.196.393-.424-.027-.346-.065-.678-.113-.997H.182z" transform="translate(-17 -187) translate(24 188) translate(2.37 20.57)"/>
                        <path fill="#26457D" d="M10.616 6.286c-.07-1.312-1.156-2.354-2.485-2.354S5.717 4.974 5.647 6.286l2.484.688 2.485-.688z" transform="translate(-17 -187) translate(24 188) translate(2.37 20.57)"/>
                        <path fill="#F6E080" d="M5.643 6.868L5.643 6.286 10.62 6.286 10.62 6.868 8.131 7.556z" transform="translate(-17 -187) translate(24 188) translate(2.37 20.57)"/>
                        <path fill="#ECCD61" d="M5.643 6.868L10.62 6.868 10.62 8.289 5.643 8.289z" transform="translate(-17 -187) translate(24 188) translate(2.37 20.57)"/>
                    </g>
                    <g>
                        <path fill="#CF8151" d="M2.898 13.518l-1.234-.493s-1.68.834-1.599 3.92c2.027.303 3.226-1.522 2.833-3.427zM16.58 10.98C18.312 2.461 13.292.063 9.086.063 4.882.063-.138 2.46 1.595 10.98h14.984z" transform="translate(-17 -187) translate(24 188) translate(20.035 20.57)"/>
                        <path fill="#BD6E45" d="M3.605 13.801l-.707-.283C2.631 15.494.942 16.534.065 16.946c.01.351.041.731.101 1.143.038.261.316.413.556.303 1.008-.463 3.25-1.816 2.883-4.591z" transform="translate(-17 -187) translate(24 188) translate(20.035 20.57)"/>
                        <path fill="#E2AE84" d="M1.466 11.239c0 .788.548 1.879 1.341 1.879l.61-.709.663-.578-.665-1.763c-.064-.007-.13-.01-.196-.01-.793 0-1.472.488-1.753 1.18z" transform="translate(-17 -187) translate(24 188) translate(20.035 20.57)"/>
                        <path fill="#D7A379" d="M3.22 12.42c-.794 0-1.473-.49-1.754-1.181-.089.219-.138.459-.138.71 0 1.044.847 1.891 1.891 1.891.133 0 .262-.013.386-.04l.656-.775-.845-.616c-.065.007-.13.01-.197.01z" transform="translate(-17 -187) translate(24 188) translate(20.035 20.57)"/>
                        <path fill="#CF8151" d="M15.277 13.518l1.234-.493s1.68.834 1.598 3.92c-2.026.303-3.225-1.522-2.832-3.427z" transform="translate(-17 -187) translate(24 188) translate(20.035 20.57)"/>
                        <path fill="#BD6E45" d="M14.57 13.801l.707-.283c.267 1.976 1.955 3.016 2.832 3.428-.009.351-.04.731-.1 1.143-.038.261-.316.413-.556.303-1.009-.463-3.25-1.816-2.883-4.591z" transform="translate(-17 -187) translate(24 188) translate(20.035 20.57)"/>
                        <path fill="#E2AE84" d="M16.708 11.239c0 .788-.547 1.879-1.34 1.879l-.61-.709-.663-.578.665-1.763c.064-.007.13-.01.195-.01.794 0 1.472.488 1.753 1.18z" transform="translate(-17 -187) translate(24 188) translate(20.035 20.57)"/>
                        <path fill="#D7A379" d="M14.955 12.42c.794 0 1.472-.49 1.753-1.181.09.219.139.459.139.71 0 1.044-.847 1.891-1.892 1.891-.132 0-.26-.013-.385-.04l-.656-.775.845-.616c.064.007.13.01.196.01z" transform="translate(-17 -187) translate(24 188) translate(20.035 20.57)"/>
                        <path fill="#F0C69E" d="M9.419 5.448c2.029 3.133 5.34 4.621 5.34 4.621v1.584c0 3.133-2.539 5.672-5.672 5.672-3.132 0-5.672-2.54-5.672-5.672v-1.584s3.312-1.488 5.341-4.62c.156-.242.506-.242.663 0z" transform="translate(-17 -187) translate(24 188) translate(20.035 20.57)"/>
                        <path fill="#E6BA94" d="M9.087 16.593c-3.132 0-5.672-2.54-5.672-5.673v1.421c0 3.133 2.54 5.672 5.672 5.672 3.133 0 5.673-2.54 5.673-5.672v-1.42c0 3.132-2.54 5.672-5.673 5.672z" transform="translate(-17 -187) translate(24 188) translate(20.035 20.57)"/>
                    </g>
                    <g>
                        <path fill="#26457D" d="M19.37 11.773c2.799-9.07-4.535-9.394-4.535-9.394S13.963 0 10.04 0C6.27 0 3.888 1.16.617.646.39.61.18.77.159.998.012 2.583-.334 8.219 1.786 11.324l17.584.45z" transform="translate(-17 -187) translate(24 188)"/>
                        <path fill="#21386B" d="M3.757 10.068c-.873 0-1.625.514-1.971 1.256.169.247.353.478.554.69l2.592.052-.95-1.987c-.074-.007-.15-.011-.225-.011zM19.113 12.549c.094-.266.178-.524.256-.776-.214-.975-1.083-1.705-2.123-1.705-.076 0-.15.004-.224.011l-.758 2.403 2.85.067z" transform="translate(-17 -187) translate(24 188)"/>
                        <path fill="#E2AE84" d="M1.702 12.952c0 1.116.627 2.217 1.578 2.217l.709-.766 1.24-.581L3.983 11.5c-.074-.007-.15-.011-.225-.011-.952 0-1.76.611-2.055 1.463z" transform="translate(-17 -187) translate(24 188)"/>
                        <path fill="#D7A379" d="M3.757 14.416c-.952 0-1.76-.612-2.055-1.464-.077.223-.12.462-.12.71 0 1.201.974 2.175 2.175 2.175.152 0 .3-.016.443-.046l.443-.786-.654-.602c-.077.008-.154.013-.232.013z" transform="translate(-17 -187) translate(24 188)"/>
                        <path fill="#E2AE84" d="M19.301 12.952c0 1.116-.627 2.217-1.578 2.217l-.709-.766-1.24-.581 1.248-2.322c.074-.007.149-.011.224-.011.952 0 1.76.611 2.055 1.463z" transform="translate(-17 -187) translate(24 188)"/>
                        <path fill="#D7A379" d="M17.246 14.416c.952 0 1.76-.612 2.055-1.464.077.223.12.462.12.71 0 1.201-.974 2.175-2.175 2.175-.152 0-.3-.016-.443-.046l-.443-.786.654-.602c.077.008.154.013.232.013z" transform="translate(-17 -187) translate(24 188)"/>
                        <path fill="#F0C69E" d="M17.022 10.013V13.273c0 3.602-2.92 6.672-6.52 6.672-3.601 0-6.52-3.07-6.52-6.671V6.785c0-.3.32-.49.583-.346 1.205.662 4.28 1.814 9.292.155.199-.066.414.035.491.23.256.644.95 2.014 2.468 2.843.126.07.206.202.206.346z" transform="translate(-17 -187) translate(24 188)"/>
                        <path fill="#E6BA94" d="M10.502 19.212c-3.601 0-6.52-2.919-6.52-6.52v1.421c0 3.601 2.919 6.52 6.52 6.52 3.6 0 6.52-2.919 6.52-6.52v-1.42c0 3.6-2.92 6.52-6.52 6.52z" transform="translate(-17 -187) translate(24 188)"/>
                    </g>
                </g>
                <g>
                    <g fill="#5E6B75">
                        <path d="M.672.03C.342.03.075.297.075.625v1.464c0 .328.267.593.597.593.33 0 .597-.265.597-.593V.624C1.269.296 1 .03.672.03zM7.04.03c-.33 0-.596.266-.596.594v1.464c0 .328.267.593.596.593.33 0 .597-.265.597-.593V.624C7.637.296 7.37.03 7.04.03zM19.44.03c-.33 0-.597.266-.597.594v1.464c0 .328.267.593.597.593.33 0 .597-.265.597-.593V.624c0-.328-.268-.593-.597-.593zM25.808 2.681c.33 0 .597-.265.597-.593V.624c0-.328-.267-.593-.597-.593-.33 0-.596.265-.596.593v1.464c0 .328.267.593.596.593zM.998 19.46c-.33 0-.596.266-.596.594v1.314c0 .328.267.594.596.594.33 0 .597-.266.597-.594v-1.314c0-.328-.267-.593-.597-.593zM6.715 19.46c-.33 0-.597.266-.597.594v1.314c0 .328.267.594.596.594.33 0 .597-.266.597-.594v-1.314c0-.328-.267-.593-.596-.593zM19.854 19.126c-.33 0-.597.266-.597.593v1.275c0 .327.267.593.597.593.33 0 .597-.266.597-.593v-1.275c0-.327-.268-.593-.597-.593zM25.394 19.126c-.33 0-.596.266-.596.593v1.275c0 .327.267.593.596.593.33 0 .597-.266.597-.593v-1.275c0-.327-.267-.593-.597-.593z" transform="translate(-17 -187) translate(24 188) translate(6.576 11.47)"/>
                    </g>
                    <path fill="#DC4955" d="M24.103 22.72c-.305-.124-.653.02-.779.324-.001.003-.155.292-.698.292-.543 0-.697-.29-.698-.292-.125-.303-.474-.448-.78-.323-.304.125-.45.472-.324.775.158.381.716 1.027 1.802 1.027 1.087 0 1.644-.646 1.802-1.027.126-.303-.02-.65-.325-.775zM24.612 4.912c.036-.077.056-.161.056-.25 0-.33-.268-.596-.599-.596-.25 0-.465.152-.555.37-.02.041-.22.408-.896.408s-.876-.367-.896-.409c-.09-.217-.305-.37-.555-.37-.331 0-.6.267-.6.596 0 .09.021.175.057.251.178.421.794 1.124 1.994 1.124s1.816-.703 1.994-1.124zM5.16 23.097c-.252 0-.467.156-.555.375-.017.033-.184.33-.747.33s-.729-.297-.746-.33c-.088-.22-.303-.375-.555-.375-.33 0-.598.266-.598.595 0 .089.02.173.056.25.161.39.731 1.049 1.843 1.049 1.113 0 1.683-.66 1.844-1.05.035-.076.056-.16.056-.25 0-.327-.268-.594-.598-.594zM5.313 4.072c-.258 0-.477.164-.56.392l-.002-.001c-.02.041-.219.406-.891.406-.673 0-.872-.365-.892-.406-.083-.228-.304-.39-.562-.39-.33 0-.597.265-.597.593 0 .095.022.185.061.264.174.419.788 1.127 1.99 1.127s1.816-.708 1.989-1.127c.04-.08.061-.17.061-.264 0-.328-.267-.594-.597-.594z" transform="translate(-17 -187) translate(24 188) translate(6.576 11.47)"/>
                </g>
            </g>
        </g>
    </g>
</svg>
