<svg xmlns="http://www.w3.org/2000/svg" width="53" height="40" viewBox="0 0 53 40">
    <g fill="none" fill-rule="evenodd">
        <g fill-rule="nonzero">
            <g>
                <g>
                    <g>
                        <g>
                            <path fill="#EAE0DB" d="M2.064 26.195c-.214 0-.388-.163-.388-.362L.039 13.009l1.637-8.945C1.676 1.856 3.6.06 5.965.06h14.822c.215 0 .389.163.389.363v25.41c0 .2-.174.362-.389.362H2.064z" transform="translate(-17 -241) translate(24 242) translate(0 8.76) translate(17.824)"/>
                            <g fill="#76655D">
                                <path d="M7.319 11.486H1.143C.512 11.486 0 10.974 0 10.343c0-.63.512-1.142 1.143-1.142h6.176c.631 0 1.143.511 1.143 1.142 0 .631-.512 1.143-1.143 1.143zM7.319 6.916H1.143C.512 6.916 0 6.404 0 5.773c0-.63.512-1.142 1.143-1.142h6.176c.631 0 1.143.511 1.143 1.142 0 .631-.512 1.143-1.143 1.143zM7.319 2.345H1.143C.512 2.345 0 1.834 0 1.203 0 .572.512.06 1.143.06h6.176c.631 0 1.143.512 1.143 1.143 0 .63-.512 1.142-1.143 1.142z" transform="translate(-17 -241) translate(24 242) translate(0 8.76) translate(17.824) translate(6.55 8.379)"/>
                            </g>
                        </g>
                        <path fill="#FBF4F4" d="M.389 26.195c-.215 0-.389-.163-.389-.362V.423C0 .223.174.06.389.06h14.827c1.148 0 2.226.418 3.036 1.176.808.756 1.251 1.761 1.248 2.83v21.767c0 .2-.174.362-.389.362H.39z" transform="translate(-17 -241) translate(24 242) translate(0 8.76)"/>
                        <g fill="#877872">
                            <path d="M7.319 16.056H1.143C.512 16.056 0 15.545 0 14.914c0-.631.512-1.143 1.143-1.143h6.176c.63 0 1.142.512 1.142 1.143 0 .63-.511 1.142-1.142 1.142zM7.319 11.486H1.143C.512 11.486 0 10.974 0 10.343c0-.63.512-1.142 1.143-1.142h6.176c.63 0 1.142.511 1.142 1.142 0 .631-.511 1.143-1.142 1.143zM5.567 6.916H1.143C.512 6.916 0 6.404 0 5.773c0-.63.512-1.142 1.143-1.142h4.424c.631 0 1.143.511 1.143 1.142 0 .631-.512 1.143-1.143 1.143zM3.053 2.345h-1.91C.512 2.345 0 1.834 0 1.203 0 .572.512.06 1.143.06h1.91c.631 0 1.143.512 1.143 1.143 0 .63-.512 1.142-1.143 1.142z" transform="translate(-17 -241) translate(24 242) translate(0 8.76) translate(6.17 3.809)"/>
                        </g>
                        <g>
                            <path fill="#C7BDB8" d="M38.604.06H23.4c-1.864 0-3.134.79-3.774 2.35-.047.113-.088.23-.127.348l-.967 1.675.967 2.194c.093 0 .183-.033.253-.092.9-.758 2.128-1.143 3.648-1.143l15.203.016c.214 0 .388-.17.396-.38V.44c-.008-.21-.182-.38-.396-.38z" transform="translate(-17 -241) translate(24 242) translate(0 8.76) translate(0 22.852)"/>
                            <path fill="#EAE0DB" d="M19.373 2.41C18.733.85 17.463.06 15.6.06H.396C.182.06.008.231 0 .442V5.03l15.6.363c1.52 0 2.747.385 3.647 1.143.07.06.16.092.253.092V2.758c-.039-.118-.08-.235-.127-.349z" transform="translate(-17 -241) translate(24 242) translate(0 8.76) translate(0 22.852)"/>
                        </g>
                    </g>
                    <g>
                        <path fill="#457899" d="M23.325.06c-1.47 0-2.773.335-3.825.973C18.448.395 17.145.06 15.675.06H0v1.143c0 .63.512 1.142 1.143 1.142h14.532c1.303 0 2.34.323 3.08.96l.002-.002c.211.182.476.277.743.277.264 0 .529-.09.744-.276.741-.636 1.778-.959 3.08-.959h14.533c.631 0 1.143-.511 1.143-1.142V.06H23.325z" transform="translate(-17 -241) translate(24 242) translate(0 8.76) translate(0 26.66)"/>
                        <path fill="#2B495D" d="M23.325.06c-1.468 0-2.77.334-3.821.97v2.55c.262 0 .526-.091.74-.276.741-.636 1.778-.959 3.08-.959h14.533c.631 0 1.143-.511 1.143-1.142V.06H23.325z" transform="translate(-17 -241) translate(24 242) translate(0 8.76) translate(0 26.66)"/>
                    </g>
                </g>
                <g>
                    <path fill="#A56032" d="M12.217 5.514H8.988V1.143C8.988.512 8.477 0 7.846 0H5.56C4.93 0 4.418.512 4.418 1.143v4.371H1.189c-.631 0-1.143.512-1.143 1.143v2.285c0 .63.512 1.142 1.143 1.142h3.229v8.562c0 .63.512 1.142 1.143 1.142h2.285c.63 0 1.142-.511 1.142-1.142v-8.562h3.23c.63 0 1.142-.511 1.142-1.142V6.657c0-.631-.512-1.143-1.143-1.143z" transform="translate(-17 -241) translate(24 242) translate(12.797)"/>
                    <path fill="#854D29" d="M12.217 5.514H8.988V1.143C8.988.512 8.477 0 7.846 0H6.707v19.788h1.139c.63 0 1.142-.511 1.142-1.142v-8.562h3.23c.63 0 1.142-.511 1.142-1.142V6.657c0-.631-.512-1.143-1.143-1.143z" transform="translate(-17 -241) translate(24 242) translate(12.797)"/>
                </g>
            </g>
        </g>
    </g>
</svg>
