<?xml version="1.0" encoding="UTF-8"?>
<svg xmlns:xlink="http://www.w3.org/1999/xlink" height="40px" version="1.1" viewBox="0 0 53 40"
    width="53px" xmlns="http://www.w3.org/2000/svg">
    <title>human-rights</title>
    <g fill="none" fill-rule="evenodd" id="Page-1" stroke="none" stroke-width="1">
        <g fill-rule="nonzero" id="câu-gợi-ý-xét-mình-"
            transform="translate(-17.000000, -317.000000)">
            <g id="human-rights" transform="translate(21.000000, 320.000000)">
                <g fill="#EFEDEF" id="Group" transform="translate(0.090449, 3.617945)">
                    <path
                        d="M38.3352026,0.0710021708 C38.0445912,0.19871563 37.8241679,0.454413893 37.7424023,0.784099132 L36.9541425,3.89896889 C36.8619754,4.26212012 37.0817656,4.63115051 37.4450072,4.72322721 C37.8077967,4.81512301 38.1771889,4.59551375 38.2691751,4.23236252 L38.7677279,2.26609986 L38.7679993,2.26727569 L38.3352026,0.0710021708 Z"
                        id="Path"></path>
                    <path
                        d="M38.2433973,1.8818741 C37.8816932,1.78247106 37.5086831,1.99484443 37.40928,2.35600579 L36.7914255,4.60139291 C36.7899783,4.60672938 36.7886216,4.6119754 36.7872648,4.61731187 L32.9681621,19.9448263 L32.640919,20.9374096 L34.069555,20.9374096 L34.2646527,20.3457851 C34.2698987,20.3298661 34.2745116,20.3136758 34.2785818,20.2973951 L38.1019356,4.95332851 L38.7176194,2.71599132 C38.8168415,2.35473951 38.6045586,1.98127713 38.2433973,1.8818741 L38.2433973,1.8818741 Z"
                        id="Path"></path>
                    <path
                        d="M5.64254703,0.0596960926 C5.33791606,0.182977569 5.10519175,0.443740955 5.02071274,0.784280029 L4.93930897,1.11143271 C4.93813314,1.11613603 4.93713821,1.12083936 4.93596237,1.12563314 L4.47829233,3.1478835 C4.39562229,3.51329595 4.6248191,3.87653763 4.99023155,3.95920767 C5.35600579,4.04178726 5.71888567,3.81259045 5.80164616,3.44726845 L6.05806802,2.31394718 L6.05824891,2.31485166 L5.64254703,0.0596960926 Z"
                        id="Path"></path>
                    <path
                        d="M5.23887482,2.09397612 C4.87074891,2.02315485 4.51546671,2.26465268 4.44500724,2.63259768 L4.06114327,4.63540159 L0.239507959,19.9726845 L0.0432344428,20.7778582 L1.43967077,20.7778582 L1.55680174,20.2973046 L5.38205499,4.94536903 C5.3850398,4.93333936 5.38775326,4.92121925 5.39010492,4.90900868 L5.77740593,2.8878437 C5.84795586,2.5198987 5.60681983,2.16452605 5.23887482,2.09397612 Z"
                        id="Path"></path>
                </g>
                <g fill="#EB9C8D" id="XMLID_424_" transform="translate(17.908828, 4.431983)">
                    <path
                        d="M13.2010673,0.00904486252 L13.2010673,13.0327424 C13.2010673,13.850398 12.9830861,14.6535818 12.5706404,15.359081 L11.8316751,16.6199349 C11.7674566,16.7293777 11.7339906,16.8541968 11.7339906,16.9808249 L11.7339906,28.4919501 C11.7339906,29.0481187 11.2796671,29.4971961 10.7234986,29.4907537 L1.1482453,29.378437 C0.601212012,29.3720152 0.16117945,28.9267366 0.0898154848,28.3718343 L0.0801374819,16.5406114 L0.151501447,0.00904486252 L13.2010673,0.00904486252 Z"
                        id="Path"></path>
                </g>
                <g id="Group" transform="translate(0.087891, 0.000000)">
                    <g id="Group">
                        <path
                            d="M22.1544212,6.77279305 C22.1544212,8.78816932 23.7940739,10.427822 25.8094502,10.427822 C26.3156007,10.427822 26.7978728,10.3242583 27.2365486,10.137301 C27.8596492,10.6305174 28.6460095,10.9261035 29.5005681,10.9261035 C30.0433503,10.9261035 30.5583648,10.806259 31.021914,10.5931621 L31.021914,4.4410275 L22.1543308,4.4410275 L22.1543308,6.77279305 L22.1544212,6.77279305 Z"
                            fill="#D78878" id="Path"></path>
                        <path
                            d="M25.4081296,11.0338278 L25.2788786,10.8782562 C25.5634299,10.382055 25.7152027,9.80960564 25.704168,9.21291606 C25.6940377,8.6383864 25.529783,8.07579595 25.2309408,7.5885492 C24.9320985,7.09976483 24.5070804,6.69826339 24.0031007,6.42809334 L20.3017621,4.4410275 L19.7284987,4.4410275 L19.7284987,18.789526 L22.1498084,18.789526 C24.5846854,18.789526 26.5736506,16.8437952 26.6261108,14.4094609 C26.6261108,14.4075615 26.6262013,14.406657 26.6262013,14.406657 C26.6261108,13.177822 26.1937664,11.9801918 25.4081296,11.0338278 Z"
                            fill="#D78878" id="Path"></path>
                        <g fill="#9B8E99" id="Path" transform="translate(0.000000, 4.884226)">
                            <path
                                d="M17.9009842,0.00904486252 L1.75391473,0.00904486252 C0.785752646,0.00904486252 0.000839476302,0.793867583 0.000839476302,1.76202967 C0.000839476302,2.73019175 0.785662197,3.51501447 1.75391473,3.51501447 L17.9009842,3.51501447 L17.9009842,0.00904486252 Z"></path>
                            <path
                                d="M43.1590341,0.00904486252 L29.5006586,0.00904486252 L29.5006586,3.51510492 L43.1591246,3.51510492 C44.1272867,3.51510492 44.9121998,2.7302822 44.9121998,1.76212012 C44.9121998,0.793867583 44.1271962,0.00904486252 43.1590341,0.00904486252 L43.1590341,0.00904486252 Z"></path>
                        </g>
                        <path
                            d="M23.9634842,2.96861433 L23.9634842,6.00162808 C23.9634842,7.02107453 23.1375978,7.84786541 22.1181513,7.84786541 C21.0987049,7.84786541 20.271914,7.02107453 20.271914,6.00162808 L20.271914,2.34985528 C20.271914,1.33040883 21.0987049,0.504522431 22.1181513,0.504522431 C22.6274676,0.504522431 23.0887555,0.710745297 23.4234155,1.04459117 C23.7571709,1.37925109 23.9634842,1.84062952 23.9634842,2.34985528 L23.9634842,2.96861433 Z"
                            fill="#EB9C8D" id="Path"></path>
                        <path
                            d="M20.4253149,2.71128799 L20.4253149,5.99638205 C20.4253149,7.10057887 19.530778,7.99602026 18.4265812,7.99602026 C17.3223843,7.99602026 16.4269429,7.10048842 16.4269429,5.63910999 L16.4269429,1.68388205 C16.4269429,0.936957308 17.3224748,0.0424204052 18.4265812,0.0424204052 C18.9781369,0.0424204052 19.4778655,0.265828509 19.8403836,0.627351664 C20.2019068,0.989869754 20.4253149,1.48950796 20.4253149,2.04115412 L20.4253149,2.71128799 Z"
                            fill="#EB9C8D" id="Path"></path>
                        <path
                            d="M17.9009842,5.60573444 L17.9009842,1.65050651 C17.9009842,1.09243849 18.4017982,0.45197178 19.1151665,0.16380246 C18.9006224,0.0852930535 18.6682599,0.0425108538 18.4266716,0.0425108538 C17.3224748,0.0425108538 16.4270334,0.937047757 16.4270334,1.6839725 L16.4270334,5.63920043 C16.4270334,7.10057887 17.3224748,7.99611071 18.4266716,7.99611071 C18.7048916,7.99611071 18.9697251,7.93912808 19.2104089,7.83637844 C18.4462085,7.54178726 17.9009842,6.74611071 17.9009842,5.60573444 Z"
                            fill="#D78878" id="Path"></path>
                        <path
                            d="M22.7911796,10.7145441 L24.0167584,12.1897612 C24.5341246,12.8129522 24.8172288,13.5971418 24.8172288,14.406657 L24.8172288,17.2114689 C24.8172288,19.2035999 23.2022686,20.8185601 21.2101376,20.8185601 L17.9015269,20.88911 L12.8490667,15.1664255 C11.3648047,13.4849855 11.0328583,11.0772431 12.00699,9.05752533 L13.4080392,6.151411 C14.109016,4.69699711 15.8809046,4.12083936 17.302757,4.88422576 L23.1475471,8.02188857 C23.3736687,8.14308973 23.5581839,8.32036903 23.6875254,8.53201881 C23.816867,8.74276411 23.8910348,8.98878437 23.8955573,9.24475398 C23.9055066,9.7765919 23.6169755,10.2695369 23.1484516,10.5218886 L22.7911796,10.7145441 Z"
                            fill="#EB9C8D" id="Path"></path>
                        <g fill="#D78878" id="Path" transform="translate(11.399085, 4.522431)">
                            <path
                                d="M6.97630246,13.1249096 L4.78599855,10.6439942 C3.30173661,8.96255427 2.96979016,6.55481187 3.94392185,4.53509407 L5.34497106,1.62897974 C5.56060058,1.18171129 5.87771346,0.817836469 6.25452243,0.550108538 L5.90367221,0.361794501 C4.48181983,-0.401591896 2.70993126,0.174565847 2.00895441,1.62897974 L0.60790521,4.53509407 C-0.366226483,6.55481187 -0.0342800289,8.96255427 1.44998191,10.6439942 L6.50244211,16.3666787 L6.97630246,16.3565485 L6.97630246,13.1249096 Z"></path>
                            <path
                                d="M10.9046671,29.3215449 C10.2543415,28.9900507 9.84759407,28.3190123 9.84696093,27.5890919 L9.83845876,16.6850579 C9.83827786,16.4797395 9.7632055,16.2814761 9.62735166,16.127623 L6.51854197,12.6063676 L6.50198987,16.4501628 L6.51166787,28.2813857 C6.58303184,28.836288 7.0230644,29.2815666 7.57009768,29.2879884 L10.9159732,29.3272431 C10.9158828,29.3272431 10.9119935,29.3253437 10.9046671,29.3215449 L10.9046671,29.3215449 Z"></path>
                        </g>
                    </g>
                    <g fill="#EB9C8D" id="Group" transform="translate(23.880995, 1.266281)">
                        <path
                            d="M3.77360709,2.4737699 L3.77360709,5.5065123 C3.77360709,6.52586831 2.94781114,7.35256874 1.92845514,7.35256874 C0.909099132,7.35256874 0.0823986975,6.52586831 0.0823986975,5.5065123 L0.0823986975,1.8551013 C0.0823986975,0.835745297 0.909099132,0.00994934877 1.92845514,0.00994934877 C2.4376809,0.00994934877 2.89896889,0.216172214 3.2336288,0.549927641 C3.56738423,0.884587554 3.77360709,1.34587554 3.77360709,1.8551013 L3.77360709,2.4737699 Z"
                            id="Path"></path>
                        <path
                            d="M7.46571997,2.4737699 L7.46571997,6.00488423 C7.46571997,7.02424023 6.63901954,7.85094067 5.61966353,7.85094067 C4.60030753,7.85094067 3.77360709,7.02424023 3.77360709,6.00488423 L3.77360709,5.5065123 L3.77360709,2.4737699 C3.77360709,1.45441389 4.60030753,0.627713459 5.61966353,0.627713459 C6.12979378,0.627713459 6.59108177,0.833936324 6.92483719,1.16859624 C7.25859262,1.50235166 7.46571997,1.96454414 7.46571997,2.4737699 Z"
                            id="Path"></path>
                    </g>
                    <g fill="#D78878" id="Group" transform="translate(23.880995, 1.266281)">
                        <path
                            d="M1.55634949,5.47313676 L1.55634949,1.82172576 C1.55634949,1.07914255 1.99710564,0.440484805 2.62943198,0.147793054 C2.41335022,0.0591534009 2.17619392,0.0100397974 1.92836469,0.0100397974 C0.909008683,0.0100397974 0.0823082489,0.835835745 0.0823082489,1.85519175 L0.0823082489,5.50660275 C0.0823082489,6.52595876 0.909008683,7.35121201 1.92836469,7.35266078 C2.20531838,7.35302098 2.46969971,7.29160637 2.70486614,7.18171129 C2.03283285,6.90575253 1.55634949,6.24448263 1.55634949,5.47313676 L1.55634949,5.47313676 Z"
                            id="Path"></path>
                        <path
                            d="M5.24755789,5.97150868 L5.24755789,5.47313676 L5.24755789,2.44039436 C5.24755789,1.69763025 5.68912808,1.05861071 6.32172576,0.765738061 C6.10573444,0.677098408 5.86785456,0.627713459 5.61966353,0.627713459 C4.60030753,0.627713459 3.77360709,1.45441389 3.77360709,2.4737699 L3.77360709,5.5065123 L3.77360709,6.00488423 C3.77360709,7.02424023 4.60030753,7.85012663 5.61966353,7.85094156 C5.89652677,7.85121201 6.16289797,7.78970695 6.39797395,7.67926918 C5.72585022,7.40331042 5.24755789,6.74294501 5.24755789,5.97150868 Z"
                            id="Path"></path>
                    </g>
                    <path
                        d="M11.8557599,23.5786903 L7.07772081,4.40285818 C6.95859997,3.92221418 6.54579244,3.59913169 6.05058622,3.59913169 L6.05049577,3.59913169 C5.90659201,3.59913169 5.76992414,3.62717077 5.64510503,3.6776411 L6.06080691,5.93279667 L6.06062602,5.93189219 L10.5415414,23.9152496 C10.5429885,23.9210384 10.5444357,23.9267366 10.5460638,23.9325253 L10.6536977,24.3206404 L12.0617114,24.3206404 L11.8557599,23.5786903 Z"
                        fill="#EFEDEF" id="Path"></path>
                    <path
                        d="M43.2645877,23.9213097 L43.4649314,24.6952786 L44.8663424,24.6952786 L44.5795298,23.5872829 L39.7993199,4.40276773 C39.6801087,3.92203329 39.2671202,3.59913169 38.771914,3.59913169 C38.6169755,3.59913169 38.4700869,3.63078871 38.3377606,3.68894718 L38.7705573,5.88522069 L38.7702859,5.88404486 L43.2645877,23.9213097 Z"
                        fill="#EFEDEF" id="Path"></path>
                </g>
                <path
                    d="M21.8338459,5.96816208 L21.8338459,2.31647974 C21.8338459,1.57380608 22.2750543,0.935238784 22.9074711,0.642456585 C22.6913893,0.553816932 22.4538712,0.50461288 22.206042,0.50461288 C21.1865955,0.50461288 20.3598046,1.33049928 20.3598046,2.34994573 L20.3598046,6.00171852 C20.3598046,7.02116498 21.1865955,7.84795586 22.206042,7.84795586 C22.4828148,7.84795586 22.7443017,7.78527496 22.97983,7.67610347 C22.3077062,7.40005427 21.8338459,6.73968886 21.8338459,5.96816208 L21.8338459,5.96816208 Z"
                    fill="#D78878" id="Path"></path>
                <path
                    d="M23.5565304,7.4244754 L17.705047,4.28319465 L17.2393271,4.03988784 L17.2393271,5.57299204 L22.9147974,8.61993488 C23.1503256,8.74638205 23.2998372,8.99095514 23.3049023,9.25823082 C23.3103292,9.53708394 23.1609986,9.79242041 22.9151592,9.9244754 L22.1483357,10.3367402 C21.1141462,10.8927279 19.8693017,10.911903 18.8185601,10.3879342 L17.0466715,9.50452243 C16.7111975,9.33728292 16.3040883,9.47367945 16.1368488,9.8089725 C15.9696093,10.1442656 16.1059153,10.5515557 16.4412084,10.7187048 L18.213097,11.6021165 C18.9120839,11.9506151 19.6730282,12.124186 20.4337012,12.124186 C21.245568,12.124186 22.0568017,11.9262844 22.7908828,11.531657 L23.5576158,11.1193922 C24.2536179,10.7452967 24.6766462,10.0220695 24.6614508,9.23209117 C24.6468886,8.47521708 24.2234986,7.78256151 23.5565304,7.4244754 L23.5565304,7.4244754 Z"
                    fill="#D78878" id="Path"></path>
                <path
                    d="M7.2831042,31.3068017 L5.1380246,31.3068017 C2.30037988,31.3068017 1.2490009e-15,29.0064219 1.2490009e-15,26.1687771 L1.2490009e-15,24.5426918 C1.2490009e-15,24.1555716 0.313856729,23.8417149 0.700976845,23.8417149 L11.7200615,23.8417149 C12.1071816,23.8417149 12.4210384,24.1555716 12.4210384,24.5426918 L12.4210384,26.1687771 C12.4210384,29.0064219 10.1207489,31.3068017 7.2831042,31.3068017 Z"
                    fill="#FEE97D" id="Path"></path>
                <path
                    d="M37.7151773,31.3068017 L39.8602569,31.3068017 C42.6979016,31.3068017 44.9982815,29.0064219 44.9982815,26.1687771 L44.9982815,24.406657 C44.9982815,24.0946093 44.7452967,23.8417149 44.4333394,23.8417149 L33.1421852,23.8417149 C32.8301375,23.8417149 32.5772431,24.0946997 32.5772431,24.406657 L32.5772431,26.1687771 C32.5772431,29.0064219 34.877623,31.3068017 37.7151773,31.3068017 L37.7151773,31.3068017 Z"
                    fill="#FEE97D" id="Path"></path>
            </g>
        </g>
    </g>
</svg>