<?xml version="1.0" encoding="UTF-8"?>
<svg xmlns:xlink="http://www.w3.org/1999/xlink" height="40px" version="1.1" viewBox="0 0 53 40"
    width="53px" xmlns="http://www.w3.org/2000/svg">
    <title>brain</title>
    <g fill="none" fill-rule="evenodd" id="Page-1" stroke="none" stroke-width="1">
        <g fill-rule="nonzero" id="câu-gợi-ý-xét-mình-"
            transform="translate(-17.000000, -209.000000)">
            <g id="brain" transform="translate(24.000000, 209.000000)">
                <path
                    d="M26.6119097,39.3429158 L10.8418891,39.3429158 L10.8418891,18.3162218 L29.2402464,18.3162218 L33.8398357,30.8008214 L29.8973306,30.8008214 L29.8973306,36.0574949 C29.8973306,37.8719828 28.4263975,39.3429158 26.6119097,39.3429158 L26.6119097,39.3429158 Z"
                    fill="#FEC9A3" id="Path"></path>
                <path
                    d="M28.7449692,14.1527721 C28.4302065,13.716139 27.9893997,13.3862504 27.4817248,13.2073922 C28.2559185,12.051434 27.9950122,10.4923787 26.8866442,9.65146517 C25.7782762,8.81055164 24.2065636,8.97920773 23.301848,10.0361396 C23.1024513,8.3866088 21.7026065,7.14578816 20.0410678,7.14578816 C18.379529,7.14578816 16.9796842,8.3866088 16.7802875,10.0361396 C15.8744078,8.98338392 14.3058155,8.81711879 13.1993682,9.65657508 C12.0929209,10.4960314 11.8305524,12.0514377 12.6004107,13.2073922 C11.3908621,13.6311792 10.6633318,14.8655709 10.8784449,16.1290303 C11.093558,17.3924896 12.1885851,18.3165778 13.4702259,18.3162219 L26.6119097,18.3162219 C27.5980253,18.3160776 28.5010913,17.7639677 28.9507312,16.88633 C29.4003712,16.0086923 29.3209224,14.9532107 28.7449692,14.1527721 L28.7449692,14.1527721 Z"
                    fill="#F7AFAF" id="Path"></path>
                <path
                    d="M28.7449692,14.1527721 C28.4302065,13.716139 27.9893997,13.3862504 27.4817248,13.2073922 C27.8729869,12.6231328 28.013822,11.9064576 27.8727448,11.2175874 C27.7316676,10.5287171 27.3204435,9.92510083 26.7310062,9.54168378 C23.3404517,14.2094456 18.7080082,16.9166324 14.099384,18.3162218 L26.6119097,18.3162218 C27.5980253,18.3160776 28.5010913,17.7639677 28.9507312,16.88633 C29.4003712,16.0086923 29.3209224,14.9532107 28.7449692,14.1527721 Z"
                    fill="#F1A9A9" id="Path"></path>
                <path
                    d="M17.0657084,11.7293634 C16.8921628,11.8054616 16.6936934,11.8000413 16.5245598,11.7145845 C16.3554263,11.6291278 16.2333195,11.472573 16.1916222,11.2877207 C16.1294871,11.0064612 16.098282,10.7192525 16.0985608,10.4312115 C16.0985608,10.4187269 16.0985608,10.4065708 16.0985608,10.3936756 C16.1014108,10.204826 16.1882864,10.0270735 16.3355418,9.90880222 C16.4827973,9.79053092 16.6751066,9.74405029 16.8601232,9.78201232 L16.9040657,9.79096509 C17.2035404,9.85384328 17.4166228,10.1198951 17.4125667,10.4258727 L17.4125667,10.4312115 C17.4123708,10.6225825 17.4329709,10.8134083 17.4740041,11.0003285 C17.536768,11.2944724 17.3831632,11.5920215 17.1070226,11.7112115 L17.0657084,11.7293634 Z"
                    fill="#E68E8E" id="Path"></path>
                <path
                    d="M13.8928953,15.68789 L13.8451745,15.68789 C13.6392345,15.6887028 13.4457622,15.5893139 13.3264865,15.4214293 C13.2072108,15.2535446 13.1770343,15.0381402 13.2455852,14.8439425 C13.4728519,14.2208847 13.9416163,13.7157028 14.5459623,13.4425416 C15.1503082,13.1693803 15.8392361,13.1512912 16.4570842,13.3923614 C16.6486771,13.4690983 16.7909112,13.6343125 16.8383136,13.8351841 C16.885716,14.0360558 16.8323501,14.2474283 16.6952772,14.4017248 L16.6768789,14.4225873 C16.5022319,14.626418 16.2201098,14.7016745 15.9671458,14.6119097 C15.3731375,14.3876306 14.7097418,14.6870152 14.4849281,15.2808214 C14.3912971,15.526313 14.155636,15.6883464 13.8928953,15.68789 L13.8928953,15.68789 Z"
                    fill="#E68E8E" id="Path"></path>
                <path
                    d="M25.174538,13.7243532 C24.9081692,13.7442878 24.6570371,13.5981015 24.5428337,13.3566324 C24.2815421,12.7778633 23.6005661,12.5204611 23.0217659,12.7816838 C22.7819546,12.8889638 22.5007925,12.836818 22.3154004,12.6506776 L22.2815606,12.6168378 C22.1353202,12.4718212 22.0687349,12.2647467 22.1030461,12.0616733 C22.1373573,11.8586 22.2682788,11.6848961 22.4540452,11.5959754 C23.0553102,11.316115 23.743984,11.2903562 24.3644753,11.5245184 C24.9849666,11.7586806 25.4849179,12.2330053 25.7513758,12.8403285 C25.8325075,13.030057 25.8162179,13.2474015 25.7077118,13.4229169 C25.5992057,13.5984324 25.4120627,13.7101529 25.206078,13.7223819 L25.174538,13.7243532 Z"
                    fill="#E68E8E" id="Path"></path>
                <path
                    d="M19.9780698,18.2514168 C19.833054,18.3976929 19.6259565,18.4643013 19.4228582,18.4299886 C19.2197599,18.3956759 19.0460386,18.2647297 18.9571253,18.0789322 C18.6772474,17.4776942 18.6514805,16.7890347 18.8856469,16.1685632 C19.1198134,15.5480917 19.594151,15.0481719 20.2014784,14.7817659 C20.3912182,14.7005898 20.6085985,14.7168702 20.7841303,14.8254028 C20.9596621,14.9339353 21.0713652,15.1211296 21.0835318,15.3271458 L21.0855031,15.3588501 C21.1054167,15.6251706 20.9592719,15.8762549 20.7178645,15.9904723 C20.1393099,16.2519653 19.8819873,16.9327306 20.1429158,17.51154 C20.2502166,17.7513348 20.198104,18.0324946 20.0119918,18.2179055 L19.9780698,18.2514168 Z"
                    fill="#E68E8E" id="Path"></path>
                <g fill="#FFB531" id="Group">
                    <polygon id="Path"
                        points="19.3839836 3.20328542 20.698152 3.20328542 20.698152 5.17453799 19.3839836 5.17453799"></polygon>
                    <polygon id="Path"
                        points="19.3839836 0.574948665 20.698152 0.574948665 20.698152 1.88911704 19.3839836 1.88911704"></polygon>
                    <polygon id="Path"
                        points="0.328542094 14.3737166 2.29979466 14.3737166 2.29979466 15.687885 0.328542094 15.687885"></polygon>
                    <polygon id="Path"
                        points="3.61396304 14.3737166 8.87063655 14.3737166 8.87063655 15.687885 3.61396304 15.687885"></polygon>
                    <polygon id="Path"
                        points="0.324295801 6.69915921 1.63769188 6.69915921 1.63769188 8.11368679 0.324295801 8.11368679"
                        transform="translate(0.980994, 7.406423) rotate(-68.209236) translate(-0.980994, -7.406423) "></polygon>
                    <polygon id="Path"
                        points="5.90623716 5.75216132 7.21963323 5.75216132 7.21963323 13.5323092 5.90623716 13.5323092"
                        transform="translate(6.562935, 9.642235) rotate(-68.209236) translate(-6.562935, -9.642235) "></polygon>
                    <polygon id="Path"
                        points="12.4784431 0.499894786 13.7919838 0.499894786 13.7919838 1.9685154 12.4784431 1.9685154"
                        transform="translate(13.135213, 1.234205) rotate(-26.565051) translate(-13.135213, -1.234205) "></polygon>
                    <polygon id="Path"
                        points="14.4480346 2.97255161 15.7615753 2.97255161 15.7615753 7.37833135 14.4480346 7.37833135"
                        transform="translate(15.104805, 5.175441) rotate(-26.565051) translate(-15.104805, -5.175441) "></polygon>
                    <polygon id="Path"
                        points="8.18872352 1.19359661 9.50349759 1.19359661 9.50349759 9.15438926 8.18872352 9.15438926"
                        transform="translate(8.846111, 5.173993) rotate(-48.647064) translate(-8.846111, -5.173993) "></polygon>
                    <polygon id="Path"
                        points="3.6160967 0.276689773 4.93087077 0.276689773 4.93087077 2.02805101 3.6160967 2.02805101"
                        transform="translate(4.273484, 1.152370) rotate(-48.647064) translate(-4.273484, -1.152370) "></polygon>
                    <polygon id="Path"
                        points="37.7823409 14.3737166 39.7535934 14.3737166 39.7535934 15.687885 37.7823409 15.687885"></polygon>
                    <polygon id="Path"
                        points="31.211499 14.3737166 36.4681725 14.3737166 36.4681725 15.687885 31.211499 15.687885"></polygon>
                    <polygon id="Path"
                        points="38.3665925 6.76191387 39.7811201 6.76191387 39.7811201 8.07530995 38.3665925 8.07530995"
                        transform="translate(39.073856, 7.418612) rotate(-21.790764) translate(-39.073856, -7.418612) "></polygon>
                    <polygon id="Path"
                        points="29.6005925 8.99291301 37.3807404 8.99291301 37.3807404 10.3063091 29.6005925 10.3063091"
                        transform="translate(33.490666, 9.649611) rotate(-21.790764) translate(-33.490666, -9.649611) "></polygon>
                    <polygon id="Path"
                        points="26.1993425 0.586724757 27.6679632 0.586724757 27.6679632 1.90026547 26.1993425 1.90026547"
                        transform="translate(26.933653, 1.243495) rotate(-63.434949) translate(-26.933653, -1.243495) "></polygon>
                    <polygon id="Path"
                        points="22.75826 4.52762389 27.1640398 4.52762389 27.1640398 5.84116461 22.75826 5.84116461"
                        transform="translate(24.961150, 5.184394) rotate(-63.434949) translate(-24.961150, -5.184394) "></polygon>
                    <polygon id="Path"
                        points="27.2723646 4.50675227 35.2331572 4.50675227 35.2331572 5.82152634 27.2723646 5.82152634"
                        transform="translate(31.252761, 5.164139) rotate(-41.352936) translate(-31.252761, -5.164139) "></polygon>
                    <polygon id="Path"
                        points="34.9465834 0.482684464 36.6979446 0.482684464 36.6979446 1.79745853 34.9465834 1.79745853"
                        transform="translate(35.822264, 1.140071) rotate(-41.352936) translate(-35.822264, -1.140071) "></polygon>
                </g>
                <path
                    d="M22.9979466,28.8295688 C21.3656581,28.8277582 20.0428784,27.5049785 20.0410678,25.8726899 L20.0410678,24.8870637 L21.3552361,24.8870637 L21.3552361,25.8726899 C21.3552361,26.7799339 22.0907027,27.5154004 22.9979466,27.5154004 C23.9051906,27.5154004 24.6406571,26.7799339 24.6406571,25.8726899 L24.6406571,24.8870637 L25.9548255,24.8870637 L25.9548255,25.8726899 C25.9530148,27.5049785 24.6302351,28.8277582 22.9979466,28.8295688 L22.9979466,28.8295688 Z"
                    fill="#92563A" id="Path"></path>
                <path
                    d="M29.8973306,34.0862451 L29.638193,34.0862451 C27.9379629,34.0880141 26.3498558,33.2380838 25.4082136,31.822423 L26.5016016,31.0933881 C27.1997637,32.1432126 28.3774156,32.7734852 29.638193,32.7720739 L29.8973306,32.7720739 L29.8973306,34.0862451 Z"
                    fill="#F7AD7C" id="Path"></path>
                <path
                    d="M17.4127321,18.3162218 C17.4130638,18.9795948 17.3383938,19.6408788 17.1901437,20.2874743 C16.9772585,21.2154998 16.6158618,22.1030436 16.1199179,22.9158111 C14.9857902,24.77501 13.2046467,26.1495532 11.1186858,26.7753593 L10.8418891,26.8583162 L10.8418891,18.3162218 L17.4127321,18.3162218 Z"
                    fill="#92563A" id="Path"></path>
                <path
                    d="M17.1901437,20.2874743 C17.0881027,20.7357654 16.9505008,21.1752124 16.7786448,21.6016427 L10.8418891,21.6016427 L10.8418891,20.2874743 L17.1901437,20.2874743 Z"
                    fill="#6E3D26" id="Path"></path>
                <path
                    d="M16.0985626,22.9158111 C15.8136079,23.3834485 15.4855547,23.8234193 15.1186858,24.2299795 L10.8205339,24.2299795 L10.8205339,22.9158111 L16.0985626,22.9158111 Z"
                    fill="#6E3D26" id="Path"></path>
            </g>
        </g>
    </g>
</svg>