<?xml version="1.0" encoding="UTF-8"?>
<svg xmlns:xlink="http://www.w3.org/1999/xlink" height="26px" version="1.1" viewBox="0 0 29 26"
    width="29px" xmlns="http://www.w3.org/2000/svg">
    <title>home</title>
    <g fill="none" fill-rule="evenodd" id="Page-1" stroke="none" stroke-width="1">
        <g fill="#A2713C" fill-rule="nonzero" id="home--copy-2"
            transform="translate(-30.000000, -597.000000)">
            <g id="home" transform="translate(30.000000, 597.000000)">
                <path
                    d="M24.0833041,11 L24.0833041,24.1891118 L18.8124634,24.1891118 L18.8124634,18.4849051 C18.8124634,17.9847835 18.3834293,17.5794887 17.8541447,17.5794887 L11.113843,17.5794887 C10.5845,17.5794887 10.1555243,17.9848388 10.1555243,18.4849051 L10.1555243,24.1891118 L4.91663741,24.1891118 L4.91663741,11 L3,11 L3,25.0945282 C3,25.5946499 3.42903416,26 3.9583187,26 L11.1139016,26 C11.6432446,26 12.0722203,25.5945946 12.0722203,25.0945282 L12.0722203,19.3903769 L16.895826,19.3903769 L16.895826,25.0945835 C16.895826,25.5947052 17.3248602,26 17.8541447,26 L25.0416813,26 C25.5710244,26 26,25.5946499 26,25.0945835 L26,11 L24.0833041,11 Z"
                    id="Path"></path>
                <path
                    d="M28.706304,13.3328042 L15.2574451,0.260101935 C14.9034413,-0.0845498973 14.3531212,-0.0867859857 13.9960588,0.253982114 L0.299907036,13.3267432 C-0.0772627625,13.6868123 -0.102014708,14.2961464 0.244569164,14.6879914 C0.427291761,14.8951827 0.677076835,15 0.927824801,15 C1.15195168,15 1.37704145,14.9157194 1.55511952,14.7457767 L14.618086,2.27752441 L27.4389705,14.7400099 C27.8137047,15.1039039 28.3998784,15.0830729 28.7498607,14.6946997 C29.0995598,14.3060322 29.0803586,13.6964039 28.706304,13.3328042 Z"
                    id="Path"></path>
            </g>
        </g>
    </g>
</svg>