<?xml version="1.0" encoding="UTF-8"?>
<svg height="122px" version="1.1" viewBox="0 0 120 122" width="120px"
    xmlns="http://www.w3.org/2000/svg">
    <title>logo</title>
    <defs>
        <linearGradient id="linearGradient-1" x1="50.0017412%" x2="50.0017412%" y1="3.2911971%"
            y2="103.935576%">
            <stop offset="0%" stop-color="#8B9AF7"></stop>
            <stop offset="50%" stop-color="#A4D2FF"></stop>
            <stop offset="100%" stop-color="#CFEAFF"></stop>
        </linearGradient>
        <linearGradient id="linearGradient-2" x1="50%" x2="50%" y1="-0.782640848%" y2="92.1277149%">
            <stop offset="0%" stop-color="#FFE892"></stop>
            <stop offset="100%" stop-color="#FFAF44"></stop>
        </linearGradient>
        <linearGradient id="linearGradient-3" x1="49.9999131%" x2="49.9999131%" y1="10.8499603%"
            y2="95.6900973%">
            <stop offset="0%" stop-color="#8B9AF7"></stop>
            <stop offset="50%" stop-color="#A4D2FF"></stop>
            <stop offset="100%" stop-color="#CFEAFF"></stop>
        </linearGradient>
    </defs>
    <g fill="none" fill-rule="evenodd" id="Page-1" stroke="none" stroke-width="1">
        <g fill-rule="nonzero" id="splash-screen" transform="translate(-120.000000, -212.000000)">
            <g id="logo" transform="translate(120.000000, 212.000000)">
                <g id="rpg">
                    <path
                        d="M33.0968538,112.338357 C36.5605666,101.866843 46.8609801,93.8068133 53.4053895,89.5656853 C53.7932455,89.3145953 54.0189359,88.8777898 53.9987514,88.417282 C53.9785669,87.9567741 53.7155177,87.5412474 53.3071701,87.3248224 C50.2110897,85.6850611 46.6487631,83.975322 42.5507661,82.210151 C32.6107102,77.9689976 24.3304866,70.6113577 18.9670674,61.2541511 C13.8943711,52.3209706 11.0420642,40.9637269 18.0424639,29.6697776 C18.4006461,29.0897743 18.4159986,28.3620376 18.0825939,27.767542 C17.7491891,27.1730464 17.1191946,26.8048118 16.4358471,26.8050113 C15.440649,25.9733772 14.0616439,25.7680547 12.8660259,26.2734943 C4.94338939,29.5825019 1.86782073,36.0098472 0.965306804,42.3526688 C0.302597778,47.3149741 0.905625856,52.3637097 2.718661,57.0322867 C5.33390023,63.9368965 10.2815542,73.0292962 19.3571837,79.3784079 C20.1869205,79.9479756 20.4454686,81.0532997 19.9539947,81.9298465 C19.6840838,82.3873901 19.2346231,82.7117163 18.714226,82.8244508 C18.1938289,82.9371854 17.649839,82.8280722 17.2137132,82.5234786 C11.2429054,78.2898964 6.31377439,72.7612364 2.79755208,66.3538834 C2.55391194,65.9182169 2.0628981,65.6809288 1.56879467,65.7600722 C1.07469124,65.8392157 0.68300432,66.2178911 0.588601908,66.7077039 C0.288718953,68.2720213 0.101009212,69.8556398 0.0268974353,71.4465393 C-0.441715566,81.8771666 5.2475145,91.5903246 14.3831013,96.7010647 C18.1876235,98.8290982 22.5151936,100.795947 26.9303327,101.899867 C27.9053986,102.134698 28.5426735,103.068447 28.4036236,104.058565 C28.3191997,104.584631 28.0172253,105.051275 27.5712046,105.344911 C27.125184,105.638546 26.5760261,105.732241 26.057403,105.603188 C22.0035374,104.542406 18.0882153,103.012267 14.3913849,101.044014 C13.9577275,100.815605 13.4290937,100.867554 13.048546,101.175975 C12.6679984,101.484397 12.5091864,101.9896 12.6451308,102.459296 C14.4757983,108.532821 18.731183,112.58721 23.5995514,115.528245 C25.895639,116.903885 28.3263214,118.042904 30.8539805,118.927673 C31.2303244,119.066564 31.6518859,119.002807 31.9699438,118.758893 C32.2880016,118.514979 32.457852,118.125191 32.4195739,117.727042 C32.2495004,115.9031 32.4806318,114.064134 33.0968538,112.338357 L33.0968538,112.338357 Z"
                        fill="url(#linearGradient-1)" id="Path"></path>
                    <path
                        d="M73.680457,19.0138999 C70.1670888,18.6457506 68.0813193,15.9185862 67.5543141,12.3661636 C67.0757153,9.14058777 67.334143,4.7807784 70.1397627,0 L52.8606277,0 C55.6662474,4.77958697 55.9246751,9.14058777 55.4460763,12.3661636 C54.9190711,15.9185862 52.8305689,18.6457506 49.319543,19.0138999 C42.2896837,19.7505957 39,16.6274821 39,16.6274821 L39,31.5333598 C39,31.5333598 42.2904645,28.4102462 49.319543,29.146942 C52.8346334,29.5083477 55.6647456,32.2421594 56.2014505,35.7946783 C56.6800493,39.0202542 54.532991,53.220413 51.7273713,58 L71.2730191,58 C68.4673994,53.220413 66.3203411,39.0202542 66.7989399,35.7946783 C67.3354773,32.2422219 70.1654567,29.5083834 73.680457,29.146942 C80.7107067,28.4090548 84,31.5333598 84,31.5333598 L84,16.6274821 C84,16.6274821 80.7107067,19.7505957 73.680457,19.0138999 L73.680457,19.0138999 Z"
                        fill="url(#linearGradient-2)" id="Path"></path>
                    <path
                        d="M94.2386542,105.761147 C93.7241699,105.932442 93.1612185,105.875438 92.6912915,105.604462 C92.2213646,105.333485 91.889147,104.874304 91.7781379,104.342328 C91.5999341,103.366937 92.1764687,102.41178 93.1210239,102.117541 C97.7974639,100.537533 102.281146,98.4335677 106.486986,95.8455714 C116.08296,89.9870302 121.428165,78.9773868 119.667003,67.8534497 C119.627692,67.6067328 119.585628,67.3581767 119.540813,67.1077814 C119.448831,66.6249216 119.06843,66.2494961 118.58541,66.1648752 C118.10239,66.0802544 117.617535,66.3040946 117.367665,66.7270649 C113.736447,72.8618817 108.319695,79.7435492 100.830432,83.7887606 C100.346914,84.0506122 99.7740028,84.0897915 99.2594965,83.8961908 C98.7449902,83.7025902 98.3392756,83.2951692 98.1470186,82.7790342 C97.8258183,81.8670346 98.2206556,80.8568749 99.0743805,80.4064531 C107.24059,75.9738253 112.805547,67.529486 116.061338,61.1495287 C117.993238,57.4060928 119.11831,53.2971922 119.363517,49.089565 C119.793194,41.0913655 117.993506,30.7883729 107.248845,26.274163 C106.057152,25.7674844 104.682729,25.9733121 103.690748,26.8070084 C103.01066,26.8062708 102.383298,27.1741469 102.050562,27.7687887 C101.717827,28.3634306 101.7317,29.0919415 102.086832,29.6734175 C108.853547,40.6503492 106.389886,51.6871866 101.627279,60.5118483 C96.2896276,70.292455 87.8300723,77.9924023 77.6055011,82.3766413 C46.019768,96.0721884 40.2260167,110.617845 40.2260167,110.617845 C37.2807878,115.296795 39.889509,122 45.4084718,122 L70.0533396,122 C76.1555304,122.024577 82.2200474,121.04026 88.0026468,119.086225 C95.8032579,116.413721 104.699485,111.396225 107.515378,102.134488 C107.663989,101.65646 107.507838,101.135865 107.120891,100.819294 C106.733944,100.502723 106.193904,100.453749 105.756575,100.695569 C102.080048,102.734039 98.2245485,104.429687 94.2386542,105.761147 L94.2386542,105.761147 Z"
                        fill="url(#linearGradient-3)" id="Path"></path>
                </g>
                <g id="beans-(2)" transform="translate(35.000000, 61.000000)">
                    <path
                        d="M41.5523437,4.18046875 C41.5523437,9.35136719 34.9057617,16.3676758 26.7067383,16.3676758 C18.5077148,16.3676758 11.8611328,9.35136719 11.8611328,4.18046875 C11.8611328,-0.990429687 18.5077148,0.211523438 26.7067383,0.211523438 C34.9057617,0.211523438 41.5523437,-0.990429687 41.5523437,4.18046875 Z"
                        fill="#7D472B" id="Path"></path>
                    <path
                        d="M37.3991211,0.283886719 C37.1898438,5.42773437 30.6257813,12.2198242 22.5587891,12.2198242 C19.2321289,12.2198242 16.1611328,11.0646484 13.6858398,9.34648437 C16.209375,13.0795898 21.094043,16.3676758 26.7066406,16.3676758 C34.9055664,16.3676758 41.5522461,9.35136719 41.5522461,4.18046875 C41.5522461,1.65830078 39.9705078,0.652636719 37.3991211,0.283886719 Z"
                        fill="#6D3612" id="Path"></path>
                    <ellipse cx="26.7067383" cy="4.59179688" fill="#F3E1C8" id="Oval"
                        rx="2.85419922" ry="1.53935547"></ellipse>
                    <path
                        d="M50,19.3397461 C50,24.5106445 43.353418,31.5269531 35.1543945,31.5269531 C26.9553711,31.5269531 20.3087891,24.5107422 20.3087891,19.3397461 C20.3087891,14.16875 26.9553711,15.3708008 35.1543945,15.3708008 C43.353418,15.3708008 50,14.1688477 50,19.3397461 Z"
                        fill="#8E5127" id="Path"></path>
                    <path
                        d="M45.8467773,15.4431641 C45.6375,20.5870117 39.0734375,27.3791016 31.0064453,27.3791016 C27.6797852,27.3791016 24.6087891,26.2239258 22.1334961,24.5057617 C24.6570313,28.2388672 29.5416992,31.5269531 35.1542969,31.5269531 C43.3533203,31.5269531 49.9999023,24.5106445 49.9999023,19.3397461 C49.9999023,16.8176758 48.4182617,15.8120117 45.8467773,15.4431641 Z"
                        fill="#7D472B" id="Path"></path>
                    <path
                        d="M20.2033203,27.1307617 C14.4057617,32.9283203 5.57128906,33.4935547 1.91494141,29.837207 C-1.74140625,26.1808594 -0.0056640625,18.5168945 5.79189453,12.7193359 C11.5894531,6.92177734 19.253418,5.18603516 22.9097656,8.84238281 C26.5661133,12.4987305 26.0008789,21.3332031 20.2033203,27.1307617 Z"
                        fill="#F8E1B0" id="Path"></path>
                    <path
                        d="M22.9097656,8.84238281 C22.9041992,8.83681641 22.8983398,8.83154297 22.8926758,8.82597656 C22.6193359,12.394043 21.0160156,16.3405273 17.9299805,19.4266602 C12.4078125,24.9488281 4.13056641,25.7238281 0.196972656,22.6253906 C-0.331835938,25.5086914 0.194433594,28.1166992 1.91494141,29.8373047 C5.57138672,33.4936523 14.4057617,32.928418 20.2033203,27.1308594 C26.0008789,21.3333008 26.5661133,12.4987305 22.9097656,8.84238281 Z"
                        fill="#F9D384" id="Path"></path>
                    <ellipse cx="35.1543945" cy="19.7510742" fill="#F8E1B0" id="Oval"
                        rx="2.85419922" ry="1.53935547"></ellipse>
                    <path
                        d="M28.2461914,3.29580078 C28.2736328,3.38154297 28.2887695,3.46943359 28.2887695,3.559375 C28.2887695,4.40957031 27.0109375,5.09873047 25.4345703,5.09873047 C24.8673828,5.09873047 24.3393555,5.00917969 23.8951172,4.85527344 C24.1270508,5.57978516 25.297168,6.13105469 26.7067383,6.13105469 C28.2830078,6.13105469 29.5609375,5.44189453 29.5609375,4.59169922 C29.5609375,4.04746094 29.0367188,3.56953125 28.2461914,3.29580078 L28.2461914,3.29580078 Z"
                        fill="#A67A3F" id="Path"></path>
                    <path
                        d="M36.6938477,18.4550781 C36.7212891,18.5408203 36.7364258,18.6287109 36.7364258,18.7186523 C36.7364258,19.5688477 35.4585937,20.2580078 33.8822266,20.2580078 C33.3150391,20.2580078 32.7870117,20.168457 32.3427734,20.0145508 C32.574707,20.7390625 33.7448242,21.290332 35.1543945,21.290332 C36.7307617,21.290332 38.0085937,20.6011719 38.0085937,19.7509766 C38.0085937,19.2067383 37.484375,18.7288086 36.6938477,18.4550781 L36.6938477,18.4550781 Z"
                        fill="#B7886F" id="Path"></path>
                    <ellipse cx="10.946242" cy="17.2645518" fill="#FFECE6" id="Oval" rx="2.85465871"
                        ry="1.53960329"
                        transform="translate(10.946242, 17.264552) rotate(-40.458382) translate(-10.946242, -17.264552) "></ellipse>
                    <path
                        d="M13.1194336,15.3963867 C12.803418,15.0261719 12.2026367,14.9693359 11.522168,15.1793945 C11.8342773,15.8785156 11.3019531,17.0710937 10.2200195,17.9947266 C9.70751953,18.4322266 9.15517578,18.7373047 8.64707031,18.894043 C8.68085938,18.9696289 8.72412109,19.0396484 8.77792969,19.1027344 C9.32998047,19.7493164 10.7493164,19.4438477 11.9481445,18.4203125 C13.1469727,17.396875 13.6713867,16.0430664 13.1194336,15.3963867 L13.1194336,15.3963867 Z"
                        fill="#E7CD8A" id="Path"></path>
                </g>
            </g>
        </g>
    </g>
</svg>