<svg height="32" viewBox="0 0 20 32" width="20" xmlns="http://www.w3.org/2000/svg">
    <g fill="none" fill-rule="evenodd">
        <g fill="#88674D" fill-rule="nonzero">
            <g>
                <path
                    d="M17.56 10.086h-1.138c-.593-2.988-2.898-5.336-5.864-5.974V.442c0-.244-.197-.442-.44-.442H7.883c-.243 0-.44.198-.44.442v3.67c-2.967.637-5.272 2.986-5.865 5.974H.44c-.243 0-.44.198-.44.442v2.564c0 .243.197.441.44.441h1.02l.777 16.047c.011.235.204.42.44.42h12.647c.235 0 .428-.185.44-.42l.776-16.047h1.02c.243 0 .44-.198.44-.441v-2.564c0-.244-.197-.441-.44-.442zM8.322.883h1.356v3.094c-.223-.02-.45-.031-.678-.031-.229 0-.454.01-.678.03V.884zM9 4.83c3.128.011 5.834 2.192 6.522 5.257H2.478C3.166 7.021 5.872 4.84 9 4.83zm5.904 24.288H3.096l-.754-15.584H15.66l-.757 15.584zM17.12 12.65H.88v-1.68h16.24v1.68z"
                    stroke="#8F6649" stroke-width=".5"
                    transform="translate(-317 -334) translate(318 335)" />
                <path
                    d="M13.943 8.297c-.487-.876-1.204-1.634-2.089-2.21-.243-.151-.577-.1-.75.114-.175.215-.124.515.113.674.743.483 1.344 1.12 1.753 1.855.134.24.46.339.728.22.269-.12.379-.412.245-.653zM10.569 7.236c-.608-.125-1.238-.204-1.876-.234-.228-.014-.45.05-.58.166-.13.117-.15.269-.049.396.101.128.305.212.533.22.536.024 1.064.09 1.573.196.33.068.687-.043.797-.248.11-.205-.068-.427-.398-.496z"
                    transform="translate(-317 -334) translate(318 335)" />
                <path
                    d="M9.5 26c2.485 0 4.5-1.79 4.5-4s-2.015-4-4.5-4S5 19.79 5 22c.003 2.208 2.016 3.998 4.5 4zm0-7.179c1.975 0 3.576 1.424 3.576 3.179s-1.601 3.179-3.576 3.179S5.924 23.755 5.924 22c.003-1.755 1.602-3.176 3.576-3.179h0z"
                    stroke="#8F6649" stroke-width=".5"
                    transform="translate(-317 -334) translate(318 335)" />
            </g>
        </g>
    </g>
</svg>
