<?xml version="1.0" encoding="UTF-8"?>
<svg xmlns:xlink="http://www.w3.org/1999/xlink" height="40px" version="1.1" viewBox="0 0 53 40"
    width="53px" xmlns="http://www.w3.org/2000/svg">
    <title>loan</title>
    <g fill="none" fill-rule="evenodd" id="Page-1" stroke="none" stroke-width="1">
        <g fill-rule="nonzero" id="câu-gợi-ý-xét-mình-"
            transform="translate(-17.000000, -263.000000)">
            <g id="loan" transform="translate(17.000000, 270.000000)">
                <path
                    d="M47.7,28.2666667 L7.95,28.2666667 C6.48631667,28.2666667 5.3,27.08035 5.3,25.6166667 L50.35,25.6166667 C50.35,27.08035 49.1636833,28.2666667 47.7,28.2666667 Z"
                    fill="#E8E5DF" id="Path"></path>
                <path
                    d="M11.4833333,26.5 L22.0833333,26.5 C24.5222167,26.5 26.5,24.5222167 26.5,22.0833333 L26.5,19.37415 C26.5,15.0166667 23.0064167,8.83333333 21.96585,8.83333333 L11.6008167,8.83333333 C10.56025,8.83333333 7.06666667,15.0166667 7.06666667,19.37415 L7.06666667,22.0833333 C7.06666667,24.5222167 9.04445,26.5 11.4833333,26.5 Z"
                    fill="#FEBE07" id="Path"></path>
                <path
                    d="M23.6468333,2.01488333 L21.8006667,2.93796667 C21.52065,3.07841667 21.1805667,2.99803333 20.9924167,2.74716667 L19.822,1.18631667 C19.5852667,0.870966667 19.1241667,0.838283333 18.8459167,1.11653333 L17.3106833,2.65176667 C17.03155,2.9309 16.5713333,2.89821667 16.3346,2.58198333 L15.28785,1.18631667 C15.0511167,0.870966667 14.5900167,0.838283333 14.3117667,1.11653333 L12.5186,2.9097 C12.3525333,3.07576667 12.1087333,3.13936667 11.8826,3.07488333 L9.20168333,2.30903333 C8.6496,2.1518 8.17966667,2.73833333 8.45526667,3.24271667 L11.4833333,8.83333333 L22.0833333,8.83333333 L24.5345833,2.84345 C24.7660167,2.2896 24.1839,1.74723333 23.6468333,2.01488333 Z"
                    fill="#FEBE07" id="Path"></path>
                <path
                    d="M22.0833333,26.5 C24.5222167,26.5 26.5,24.5222167 26.5,22.0833333 L26.5,19.37415 C26.5,15.0166667 23.0064167,8.83333333 21.96585,8.83333333 L11.6008167,8.83333333 C11.01075,8.83333333 17.2188167,9.21405 20.3166667,14.1333333 C22.68135,17.8883833 22.0833333,26.5 22.0833333,26.5 Z"
                    fill="#E3A800" id="Path"></path>
                <path
                    d="M23.6468333,2.01488333 L22.3978,2.6394 C19.9712833,5.07386667 16.9220167,6.8105 13.5697667,7.64878333 L11.1671,8.24945 L11.4833333,8.83333333 L22.0833333,8.83333333 L24.5345833,2.84345 C24.7660167,2.2896 24.1839,1.74723333 23.6468333,2.01488333 Z"
                    fill="#E3A800" id="Path"></path>
                <path
                    d="M23.85,24.7333333 L13.25,24.7333333 C10.8111167,24.7333333 8.83333333,22.75555 8.83333333,20.3166667 L8.83333333,17.6074833 C8.83333333,14.69955 10.388,10.9869 11.7324333,8.83333333 L11.6008167,8.83333333 C10.56025,8.83333333 7.06666667,15.0166667 7.06666667,19.37415 L7.06666667,22.0833333 C7.06666667,24.5222167 9.04445,26.5 11.4833333,26.5 L22.0833333,26.5 C23.7590167,26.5 25.19885,25.5557167 25.9479167,24.18125 C25.32075,24.5222167 24.6132,24.7333333 23.85,24.7333333 Z"
                    fill="#E3A800" id="Path"></path>
                <polygon fill="#CBE6FE" id="Path"
                    points="29.15 1.76666667 37.9833333 1.76666667 37.9833333 26.5 29.15 26.5"></polygon>
                <polygon fill="#A9C6EB" id="Path"
                    points="37.9833333 12.3666667 34.45 15.9 30.9166667 19.4333333 32.6833333 19.4333333 32.6833333 26.5 37.9833333 26.5"></polygon>
                <polygon fill="#CBE6FE" id="Path"
                    points="24.115 12.3666667 21.2 12.3666667 21.2 26.5 29.15 26.5 29.15 12.3666667"></polygon>
                <polygon fill="#A9C6EB" id="Path"
                    points="39.75 22.0833333 43.2833333 22.0833333 43.2833333 26.5 39.75 26.5"></polygon>
                <polygon fill="#CBE6FE" id="Path"
                    points="46.8166667 19.4333333 36.2166667 19.4333333 36.2166667 26.5 39.75 26.5 39.75 22.0833333 43.2833333 22.0833333 43.2833333 26.5 46.8166667 26.5"></polygon>
                <polygon fill="#E3A800" id="Path"
                    points="48.5833333 19.4333333 41.5166667 12.3666667 37.9833333 15.9 34.45 19.4333333"></polygon>
                <polygon fill="#A9C6EB" id="Path"
                    points="26.5 12.3666667 29.15 12.3666667 29.15 26.5 26.5 26.5"></polygon>
                <path
                    d="M18.55,15.9 L18.55,15.0166667 C18.55,14.5290667 18.15515,14.1333333 17.6666667,14.1333333 L16.7833333,14.1333333 L16.7833333,13.25 L15.0166667,13.25 L15.0166667,14.1333333 L14.1333333,14.1333333 C13.64485,14.1333333 13.25,14.5290667 13.25,15.0166667 L13.25,17.6666667 C13.25,18.1542667 13.64485,18.55 14.1333333,18.55 L16.7833333,18.55 L16.7833333,19.4333333 L13.25,19.4333333 L13.25,20.3166667 C13.25,20.8042667 13.64485,21.2 14.1333333,21.2 L15.0166667,21.2 L15.0166667,22.0833333 L16.7833333,22.0833333 L16.7833333,21.2 L17.6666667,21.2 C18.15515,21.2 18.55,20.8042667 18.55,20.3166667 L18.55,17.6666667 C18.55,17.1790667 18.15515,16.7833333 17.6666667,16.7833333 L15.0166667,16.7833333 L15.0166667,15.9 L18.55,15.9 Z"
                    fill="#FEFEFE" id="Path"></path>
                <g fill="#2B67B3" id="Group" transform="translate(23.850000, 4.416667)">
                    <polygon id="Path"
                        points="7.95 0 8.83333333 0 8.83333333 1.76666667 7.95 1.76666667"></polygon>
                    <polygon id="Path"
                        points="10.6 0 11.4833333 0 11.4833333 1.76666667 10.6 1.76666667"></polygon>
                    <polygon id="Path"
                        points="7.95 3.53333333 8.83333333 3.53333333 8.83333333 5.3 7.95 5.3"></polygon>
                    <polygon id="Path"
                        points="10.6 3.53333333 11.4833333 3.53333333 11.4833333 5.3 10.6 5.3"></polygon>
                    <polygon id="Path"
                        points="7.95 7.06666667 8.83333333 7.06666667 8.83333333 8.83333333 7.95 8.83333333"></polygon>
                    <polygon id="Path"
                        points="10.6 7.06666667 11.4833333 7.06666667 11.4833333 8.83333333 10.6 8.83333333"></polygon>
                    <polygon id="Path"
                        points="0 10.6 0.883333333 10.6 0.883333333 12.3666667 0 12.3666667"></polygon>
                    <polygon id="Path"
                        points="2.65 10.6 3.53333333 10.6 3.53333333 12.3666667 2.65 12.3666667"></polygon>
                    <polygon id="Path"
                        points="0 14.1333333 0.883333333 14.1333333 0.883333333 15.9 0 15.9"></polygon>
                    <polygon id="Path"
                        points="2.65 14.1333333 3.53333333 14.1333333 3.53333333 15.9 2.65 15.9"></polygon>
                    <polygon id="Path"
                        points="0 17.6666667 0.883333333 17.6666667 0.883333333 19.4333333 0 19.4333333"></polygon>
                    <polygon id="Path"
                        points="2.65 17.6666667 3.53333333 17.6666667 3.53333333 19.4333333 2.65 19.4333333"></polygon>
                    <polygon id="Path"
                        points="7.95 10.6 8.83333333 10.6 8.83333333 12.3666667 7.95 12.3666667"></polygon>
                    <polygon id="Path"
                        points="10.6 10.6 11.4833333 10.6 11.4833333 12.3666667 10.6 12.3666667"></polygon>
                </g>
                <polygon fill="#FEBE07" id="Path"
                    points="45.05 1.76666667 46.8166667 1.76666667 46.8166667 3.53333333 45.05 3.53333333"></polygon>
                <polygon fill="#FEBE07" id="Path"
                    points="46.8166667 0 48.5833333 0 48.5833333 1.76666667 46.8166667 1.76666667"></polygon>
                <polygon fill="#FEBE07" id="Path"
                    points="48.5833333 1.76666667 50.35 1.76666667 50.35 3.53333333 48.5833333 3.53333333"></polygon>
                <polygon fill="#FEBE07" id="Path"
                    points="46.8166667 3.53333333 48.5833333 3.53333333 48.5833333 5.3 46.8166667 5.3"></polygon>
                <polygon fill="#FEBE07" id="Path"
                    points="51.2333333 6.18333333 53 6.18333333 53 7.95 51.2333333 7.95"></polygon>
                <polygon fill="#FEBE07" id="Path"
                    points="45.05 8.83333333 46.8166667 8.83333333 46.8166667 10.6 45.05 10.6"></polygon>
                <polygon fill="#FEBE07" id="Path"
                    points="0 7.95 1.76666667 7.95 1.76666667 9.71666667 0 9.71666667"></polygon>
                <polygon fill="#FEBE07" id="Path"
                    points="1.76666667 6.18333333 3.53333333 6.18333333 3.53333333 7.95 1.76666667 7.95"></polygon>
                <polygon fill="#FEBE07" id="Path"
                    points="3.53333333 7.95 5.3 7.95 5.3 9.71666667 3.53333333 9.71666667"></polygon>
                <polygon fill="#FEBE07" id="Path"
                    points="1.76666667 9.71666667 3.53333333 9.71666667 3.53333333 11.4833333 1.76666667 11.4833333"></polygon>
                <polygon fill="#FEBE07" id="Path"
                    points="0 15.0166667 1.76666667 15.0166667 1.76666667 16.7833333 0 16.7833333"></polygon>
                <polygon fill="#FEBE07" id="Path"
                    points="3.53333333 0 5.3 0 5.3 1.76666667 3.53333333 1.76666667"></polygon>
            </g>
        </g>
    </g>
</svg>