<?xml version="1.0" encoding="UTF-8"?>
<svg height="18px" version="1.1" viewBox="0 0 18 18" width="18px"
    xmlns="http://www.w3.org/2000/svg">
    <title>close (1) copy</title>
    <g fill="none" fill-rule="evenodd" id="Page-1" stroke="none" stroke-width="1">
        <g fill="#939393" fill-rule="nonzero" id="Lời-nhắc-"
            transform="translate(-323.000000, -144.000000)">
            <g id="close-(1)-copy"
                transform="translate(332.000000, 153.000000) scale(-1, 1) translate(-332.000000, -153.000000) translate(323.000000, 144.000000)">
                <path
                    d="M9,18 C4.03733827,18 0,13.9626617 0,9 C0,4.03733827 4.03733827,0 9,0 C13.9626617,0 18,4.03733827 18,9 C18,13.9626617 13.9626617,18 9,18 Z M9,1.28567503 C4.74636839,1.28567503 1.28567503,4.74636839 1.28567503,9 C1.28567503,13.2536316 4.74636839,16.714325 9,16.714325 C13.2536316,16.714325 16.714325,13.2536316 16.714325,9 C16.714325,4.74636839 13.2536316,1.28567503 9,1.28567503 Z"
                    id="Shape"></path>
                <path
                    d="M12.1818692,12.8181818 C12.0190101,12.8181818 11.856151,12.756056 11.7318996,12.6316684 L5.36829724,6.26805182 C5.1196585,6.01941252 5.1196585,5.61675005 5.36829724,5.36824668 C5.61680005,5.11974332 6.01959756,5.11960739 6.26810038,5.36824668 L12.6317028,11.7318632 C12.8803415,11.9805025 12.8803415,12.383165 12.6317028,12.6316684 C12.5074513,12.756056 12.3447282,12.8181818 12.1818692,12.8181818 L12.1818692,12.8181818 Z"
                    id="Path"
                    transform="translate(9.000000, 9.000000) rotate(-45.000000) translate(-9.000000, -9.000000) "></path>
            </g>
        </g>
    </g>
</svg>