<svg xmlns="http://www.w3.org/2000/svg" xmlns:xlink="http://www.w3.org/1999/xlink" width="120" height="120" viewBox="0 0 120 120">
    <defs>
        <circle id="cp5s1nluxa" cx="59.938" cy="59.938" r="59.938"/>
    </defs>
    <g fill="none" fill-rule="evenodd">
        <g>
            <g transform="translate(-120 -97) translate(120 97)">
                <circle cx="59.938" cy="59.938" r="59.938" fill="#E5AE48" fill-rule="nonzero"/>
                <g fill="#CF9730" fill-rule="nonzero">
                    <path d="M8.874 47.227H.23c-.066.627-.113 1.255-.141 1.892h8.785c.515 0 .945-.43.945-.946 0-.525-.43-.946-.945-.946zM19.147 47.227h-6.19c-.515 0-.937.421-.937.946 0 .515.422.946.937.946h6.19c.525 0 .946-.43.946-.946 0-.525-.421-.946-.946-.946zM25.923 11.79c-.515 0-.937.421-.937.946 0 .515.422.946.937.946h.168c.515 0 .946-.431.946-.946 0-.525-.43-.946-.946-.946h-.168zM41.713 12.736c0-.525-.422-.946-.946-.946H30.175c-.515 0-.937.421-.937.946 0 .515.422.946.937.946h10.592c.524 0 .946-.431.946-.946zM55.316.157c-.524 0-.946.422-.946.946 0 .515.422.946.946.946h.16c.523 0 .945-.43.945-.946 0-.524-.422-.946-.946-.946h-.16zM103.34 49.119c-.514 0-.936.43-.936.946 0 .524.422.946.937.946h12.418c.515 0 .946-.422.946-.946 0-.515-.43-.946-.946-.946h-12.418zM64.531 1.103c0-.524-.43-.946-.946-.946h-4.017c-.525 0-.946.422-.946.946 0 .515.421.946.946.946h4.017c.516 0 .946-.43.946-.946zM93.165 18.677c0-.524.422-.945.946-.945h10.593c.515 0 .936.42.936.945 0 .516-.421.946-.936.946H94.11c-.524 0-.946-.43-.946-.946zM90.019 17.732c.524 0 .946.42.946.945 0 .516-.422.946-.946.946h-.16c-.524 0-.945-.43-.945-.946 0-.524.421-.945.946-.945h.159zM80.803 18.677c0-.524.431-.945.946-.945h4.018c.525 0 .946.42.946.945 0 .516-.421.946-.946.946h-4.018c-.515 0-.946-.43-.946-.946zM93.601 50.065c0 .524.43.946.946.946h4.71c.516 0 .947-.422.947-.946 0-.515-.431-.946-.946-.946h-4.711c-.515 0-.946.43-.946.946zM48.76 102.61c0-.515.422-.946.946-.946h.16c.524 0 .945.43.945.946 0 .515-.421.946-.945.946h-.16c-.524 0-.946-.431-.946-.946zM90.295 49.119c-.515 0-.946.43-.946.946 0 .524.431.946.946.946h.16c.524 0 .945-.422.945-.946 0-.515-.421-.946-.946-.946h-.159zM69.692 1.103c0-.524-.422-.946-.946-.946h-1.077c-.515 0-.937.422-.937.946 0 .515.422.946.937.946h1.077c.524 0 .946-.43.946-.946zM58.922 102.61c0 .515-.431.946-.946.946h-4.018c-.515 0-.946-.431-.946-.946 0-.515.43-.946.946-.946h4.018c.515 0 .946.43.946.946zM64.082 102.61c0 .515-.421.946-.946.946h-1.068c-.524 0-.946-.431-.946-.946 0-.515.422-.946.946-.946h1.068c.525 0 .946.43.946.946zM30.212 88.097c.515 0 .937-.43.937-.946 0-.524-.422-.945-.937-.945H17.794c-.515 0-.946.421-.946.945 0 .516.43.946.946.946h12.418zM39.952 87.151c0-.524-.43-.945-.946-.945h-4.71c-.516 0-.946.421-.946.945 0 .516.43.946.945.946h4.711c.515 0 .946-.43.946-.946zM43.258 88.097c.515 0 .946-.43.946-.946 0-.524-.43-.945-.946-.945h-.16c-.524 0-.945.421-.945.945 0 .516.421.946.946.946h.16z" transform="translate(0 7.492)"/>
                    <g>
                        <path d="M.147 1.019c0-.515.421-.946.946-.946h.16c.523 0 .945.43.945.946 0 .515-.422.946-.946.946h-.16c-.524 0-.945-.431-.945-.946zM10.308 1.019c0 .515-.43.946-.946.946H5.345c-.516 0-.946-.431-.946-.946 0-.515.43-.946.946-.946h4.017c.515 0 .946.43.946.946zM15.469 1.019c0 .515-.422.946-.946.946h-1.068c-.525 0-.946-.431-.946-.946 0-.515.421-.946.946-.946h1.068c.524 0 .946.43.946.946z" transform="translate(0 7.492) translate(83.592 88.97)"/>
                    </g>
                </g>
                <g>
                    <g>
                        <mask id="fvr1yhs06b" fill="#fff">
                            <use xlink:href="#cp5s1nluxa"/>
                        </mask>
                        <use fill="#E5AE48" fill-rule="nonzero" xlink:href="#cp5s1nluxa"/>
                        <g mask="url(#fvr1yhs06b)">
                            <g>
                                <path fill="#FFD375" d="M37.248 117c-8.271 0-16.371-2.699-22.981-7.78C5.798 102.716.614 92.935.052 82.398c-.84-15.595 8.553-29.985 23.364-35.812 6.66-2.622 11.764-5.642 15.17-8.984 3.268-3.206 6.093-7.784 8.4-13.612C52.77 9.419 66.608 0 82.246 0c11.575 0 22.366 5.094 29.608 13.978 7.071 8.676 9.711 19.806 7.242 30.538-4.135 17.98-12.897 33.638-26.036 46.525-13.497 13.24-29.909 21.757-48.781 25.302-2.336.445-4.69.657-7.03.657" transform="translate(-14 16)"/>
                                <path fill="#FDFAFB" d="M95.457 62.461L87.2 58.326c1.262-2.398 2.427-5.01 3.46-7.77l8.727 3.1c-1.17 3.11-2.49 6.07-3.93 8.805M62.663 91l-3.767-8.265c8.745-3.782 15.66-8.301 20.558-13.435 1.136-1.19 2.238-2.496 3.278-3.878l7.491 5.344c-1.253 1.66-2.586 3.242-3.968 4.69C80.498 81.489 72.56 86.714 62.663 91" transform="translate(-14 16)"/>
                                <path fill="#FEC96B" d="M119.11 35.225c-4.136 18.032-12.9 33.736-26.042 46.66-13.5 13.278-29.915 21.819-48.792 25.374-2.336.442-4.69.659-7.027.659-8.273 0-16.374-2.706-22.986-7.802C6.5 94.136 1.545 85.386.327 75.826c-.273 2.126-.403 4.278-.282 6.472.568 10.57 5.747 20.376 14.218 26.9C20.875 114.294 28.982 117 37.25 117c2.336 0 4.695-.217 7.027-.659 18.877-3.56 35.293-12.096 48.792-25.375 13.143-12.928 21.906-28.626 26.042-46.66.956-4.173 1.126-8.4.586-12.528-.148 1.148-.323 2.297-.586 3.447" transform="translate(-14 16)"/>
                            </g>
                        </g>
                    </g>
                    <g>
                        <path fill="#231F20" stroke="#231F20" d="M30.199 16.39c.697.477 1.648.297 2.124-.402.476-.7.296-1.653-.4-2.13-.698-.478-1.649-.298-2.125.401-.475.7-.296 1.653.4 2.13zM8.4 1.994c-.476.7-.297 1.653.4 2.13.697.478 1.648.298 2.124-.401.476-.7.297-1.654-.4-2.13-.698-.478-1.649-.299-2.124.4" transform="translate(39 36)"/>
                        <path fill="#F16A55" d="M35.46 23.653c-.498.895-1.846.891-3.01-.009-1.163-.9-1.702-2.356-1.203-3.251.499-.895 1.846-.891 3.01.01 1.163.9 1.702 2.355 1.203 3.25" transform="translate(39 36) rotate(-14 33.354 22.023)"/>
                        <path fill="#F16A55" d="M1.881 5.245C.717 4.345.179 2.89.677 1.995c.499-.896 1.846-.891 3.01.009 1.163.9 1.702 2.356 1.203 3.251-.498.896-1.845.891-3.009-.01z" transform="translate(39 36) rotate(-11 2.784 3.625)"/>
                    </g>
                    <g fill-rule="nonzero">
                        <path fill="#E53946" d="M3.908.45l19.649 11.59c.573.338.77 1.087.439 1.673l-1.4 2.478c-.332.586-1.065.787-1.639.449L1.308 5.05C.734 4.712.538 3.963.869 3.377L2.27.899C2.602.313 3.335.112 3.909.45z" transform="rotate(31 -52.932 103.297)"/>
                        <path fill="#F34B50" d="M20.957.45L1.308 12.04c-.574.338-.77 1.087-.439 1.673l1.4 2.478c.332.586 1.065.787 1.639.449L23.557 5.05c.573-.338.77-1.087.439-1.673l-1.4-2.478C22.263.313 21.53.112 20.956.45z" transform="rotate(31 -52.932 103.297)"/>
                    </g>
                </g>
            </g>
        </g>
    </g>
</svg>
