<?xml version="1.0" encoding="UTF-8"?>
<svg height="115px" version="1.1" viewBox="0 0 113 115" width="113px"
    xmlns="http://www.w3.org/2000/svg">
    <title>heaven</title>
    <g fill="none" fill-rule="evenodd" id="Page-1" stroke="none" stroke-width="1">
        <g fill-rule="nonzero" id="câu-gợi-ý-xét-mình---Chúa-Copy"
            transform="translate(-124.000000, -333.000000)">
            <g id="heaven" transform="translate(124.000000, 333.000000)">
                <path
                    d="M102.728558,88.9427755 C102.728558,88.9405675 102.728558,88.9383595 102.728558,88.9383595 L94.3511062,93.3057894 C70.7010171,105.630862 42.4453147,105.240045 19.1437347,92.263612 L8.48112223,86.326292 L8.47891647,86.326292 C3.10349518,77.6753364 0,67.4633227 0,56.524876 C0,46.3194862 2.70204804,36.7477934 7.4289778,28.4832383 C17.1607623,11.4661594 35.4773394,0 56.4672897,0 C77.4572401,0 95.7738172,11.4661594 105.505602,28.4832383 C110.232531,36.7477934 112.934579,46.3194862 112.934579,56.524876 C112.934579,68.5849882 109.160535,79.7641072 102.728558,88.9427755 Z"
                    fill="#FF80B1" id="Path"></path>
                <path
                    d="M112.934579,56.7004133 C112.934579,67.3021582 109.996516,77.2198486 104.883579,85.6880474 C104.38949,86.5062733 103.87555,87.3135016 103.341757,88.1031337 C103.141034,88.4000705 102.935899,88.6970073 102.728558,88.9895451 L94.3511062,93.3402197 C70.7010171,105.618008 42.4453147,105.228691 19.1437347,92.3020405 L8.48112223,86.3874986 C8.33554249,86.1565477 8.19216852,85.9211978 8.05100029,85.6880474 C2.93806367,77.2198486 0,67.3021582 0,56.7004133 C0,46.5341758 2.70204804,36.9992039 7.4289778,28.7663551 C12.402952,37.4303122 19.6179717,44.6491767 28.2865829,49.6333165 C32.1554746,51.8614426 36.3133199,53.6452632 40.6917407,54.9121937 C45.6988011,56.3638849 50.9904038,57.1403197 56.4672897,57.1403197 C61.9441757,57.1403197 67.2357783,56.3638849 72.2428388,54.9121937 C76.6212595,53.6452632 80.7791048,51.8614426 84.6479965,49.6333165 C93.3166078,44.6491767 100.531627,37.4303122 105.505602,28.7663551 C110.232531,36.9992039 112.934579,46.5341758 112.934579,56.7004133 Z"
                    fill="#FF6699" id="Path"></path>
                <g id="Group" transform="translate(7.457944, 6.392523)">
                    <g id="Shape" transform="translate(14.186540, 12.847067)">
                        <path
                            d="M63.6179849,11.0639827 L63.6179849,23.0914955 L59.3112619,23.0914955 C58.39889,10.253067 47.655468,0.0861639497 34.5794685,0.0861639497 C21.503469,0.0861639497 10.7602686,10.253067 9.84789676,23.0914955 L5.54117368,23.0914955 L5.54117368,11.0639827 C5.54117368,9.53496027 4.30073813,8.2952183 2.77036518,8.2952183 C1.24021389,8.2952183 -0.000443329361,9.53473876 -0.000443329361,11.0639827 L-0.000443329361,79.31602 L9.78383566,79.31602 L12.5546442,79.31602 L56.6047361,79.31602 L59.3755446,79.31602 L69.1598236,79.31602 L69.1598236,11.0639827 C69.1598236,9.53496027 67.9193881,8.2952183 66.3890151,8.2952183 C64.8586422,8.2952183 63.6179849,9.53496027 63.6179849,11.0639827 L63.6179849,11.0639827 Z M59.3755446,26.635514 L63.6182066,26.635514 L63.6182066,47.7334991 L59.3755446,47.7334991 L59.3755446,26.635514 Z M53.7514684,23.0914955 L50.8518727,23.0914955 L50.8518727,14.5896166 C52.4405434,17.0934657 53.4664076,19.9869353 53.7514684,23.0914955 Z M21.8556942,10.4366915 C23.0704166,9.36573338 24.4201328,8.44495308 25.8769131,7.70425321 L25.8769131,23.091717 L21.8556942,23.091717 L21.8556942,10.4366915 Z M39.7351673,47.7334991 L36.3530076,47.7334991 L36.3530076,26.635514 L39.7353889,26.635514 L39.7353889,47.7334991 L39.7351673,47.7334991 Z M29.423548,26.635514 L32.8063727,26.635514 L32.8063727,47.7334991 L29.423548,47.7334991 L29.423548,26.635514 Z M36.3530076,23.0914955 L36.3530076,5.70609128 C37.5129789,5.81241184 38.6434687,6.02150893 39.7353889,6.32518701 L39.7353889,23.091717 L36.3530076,23.091717 L36.3530076,23.0914955 Z M32.806151,23.0914955 L29.4233264,23.0914955 L29.4233264,6.32518701 C30.5152466,6.02150893 31.6459581,5.81241184 32.806151,5.70609128 L32.806151,23.0914955 Z M25.8769131,26.635514 L25.8769131,73.7784911 L21.8556942,73.7784911 L21.8556942,26.635514 L25.8769131,26.635514 Z M29.423548,51.2775176 L32.8063727,51.2775176 L32.8063727,73.7784911 L29.423548,73.7784911 L29.423548,51.2775176 Z M36.3530076,51.2775176 L39.7353889,51.2775176 L39.7353889,73.7784911 L36.3530076,73.7784911 L36.3530076,51.2775176 Z M43.2818022,26.635514 L47.3050161,26.635514 L47.3050161,73.7784911 L43.2818022,73.7784911 L43.2818022,26.635514 Z M43.2818022,23.0914955 L43.2818022,7.70381021 C44.7392474,8.44495308 46.0898503,9.36639789 47.3050161,10.4380205 L47.3050161,23.0914955 L43.2818022,23.0914955 Z M18.3090593,14.5871801 L18.3090593,23.0914955 L15.4079119,23.0914955 C15.6931944,19.9858278 16.7195019,17.0914722 18.3090593,14.5871801 Z M9.78383566,26.635514 L9.78383566,47.7334991 L5.54117368,47.7334991 L5.54117368,26.635514 L9.78383566,26.635514 Z M5.54117368,73.7784911 L5.54117368,51.2775176 L9.78383566,51.2775176 L9.78383566,73.7784911 L5.54117368,73.7784911 Z M15.3254527,26.635514 L18.3090593,26.635514 L18.3090593,73.7784911 L15.3254527,73.7784911 L15.3254527,26.635514 Z M50.8518727,73.7784911 L50.8518727,26.635514 L53.8339276,26.635514 L53.8339276,73.7784911 L50.8518727,73.7784911 Z M59.3755446,73.7784911 L59.3755446,51.2775176 L63.6182066,51.2775176 L63.6182066,73.7784911 L59.3755446,73.7784911 Z"
                            fill="#FED500"></path>
                        <path
                            d="M59.3755446,79.31602 L69.1598236,79.31602 L69.1598236,11.0639827 C69.1598236,9.53496027 67.9193881,8.2952183 66.3890151,8.2952183 C64.8586422,8.2952183 63.6182066,9.53496027 63.6182066,11.0639827 L63.6182066,23.0914955 L59.3114835,23.0914955 C58.3991117,10.253067 47.6556896,0.0861639497 34.5796901,0.0861639497 L34.5796901,79.31602 L56.6047361,79.31602 L59.3755446,79.31602 Z M59.3755446,26.635514 L63.6182066,26.635514 L63.6182066,47.7334991 L59.3755446,47.7334991 L59.3755446,26.635514 Z M59.3755446,51.2775176 L63.6182066,51.2775176 L63.6182066,73.7784911 L59.3755446,73.7784911 L59.3755446,51.2775176 Z M50.8518727,14.5896166 C52.4407651,17.0932442 53.4664076,19.9867138 53.7514684,23.0914955 L50.8518727,23.0914955 L50.8518727,14.5896166 Z M39.7351673,73.7784911 L36.3530076,73.7784911 L36.3530076,51.2775176 L39.7353889,51.2775176 L39.7353889,73.7784911 L39.7351673,73.7784911 Z M39.7351673,47.7334991 L36.3530076,47.7334991 L36.3530076,26.635514 L39.7353889,26.635514 L39.7353889,47.7334991 L39.7351673,47.7334991 Z M39.7351673,23.0914955 L36.3530076,23.0914955 L36.3530076,5.70609128 C37.5129789,5.81241184 38.6434687,6.02150893 39.7353889,6.32518701 L39.7353889,23.0914955 L39.7351673,23.0914955 Z M47.3052378,73.7784911 L43.2820238,73.7784911 L43.2820238,26.635514 L47.3052378,26.635514 L47.3052378,73.7784911 Z M47.3052378,23.0914955 L43.2820238,23.0914955 L43.2820238,7.70381021 C44.7396908,8.44495308 46.090072,9.36639789 47.3052378,10.4380205 L47.3052378,23.0914955 Z M53.8339276,73.7784911 L50.8518727,73.7784911 L50.8518727,26.635514 L53.8339276,26.635514 L53.8339276,73.7784911 Z"
                            fill="#FFBC00"></path>
                    </g>
                    <g id="Path" transform="translate(0.443329, 75.531894)">
                        <g transform="translate(0.000000, 0.664503)">
                            <path
                                d="M40.6023195,19.6582276 C40.6023195,19.6958828 40.6001029,19.733538 40.6001029,19.7689782 L15.3148128,19.7689782 C9.79314558,15.8173976 5.01405507,10.9000719 1.2169391,5.26508248 C0.833459198,4.69803952 0.461062535,4.1199215 0.0997491062,3.53737346 C2.80184156,1.40874735 6.21326099,0.139545728 9.9217111,0.139545728 C15.8911409,0.139545728 21.0891777,3.4288379 23.80457,8.29300328 C25.2121408,7.73039035 26.7438437,7.41807372 28.3531293,7.41807372 C35.1183353,7.41807372 40.6023195,12.8980123 40.6023195,19.6582276 L40.6023195,19.6582276 Z"
                                fill="#FFFFFF"></path>
                            <path
                                d="M28.6479433,19.7069579 L28.6479433,19.7689782 L15.3148128,19.7689782 C11.5908461,17.1043193 8.20602647,14.0010881 5.2335031,10.534595 C6.80510569,9.25210329 8.81782099,8.48127927 11.0056514,8.48127927 C14.4392373,8.48127927 17.4272772,10.3728991 18.9900132,13.1704587 C19.7990893,12.8470671 20.679098,12.6676511 21.6034398,12.6676511 C25.4958715,12.6676511 28.6479433,15.8173976 28.6479433,19.7069579 Z"
                                fill="#DFF7FD"></path>
                        </g>
                        <g transform="translate(13.743210, 0.000000)">
                            <g transform="translate(0.000000, 6.645035)">
                                <path
                                    d="M57.5086847,19.543047 C50.4974308,22.6440632 42.739167,24.3651272 34.5796901,24.3651272 C22.2662171,24.3651272 10.8704359,20.4467717 1.57160258,13.788447 C1.10389011,13.4539802 0.640610926,13.1128684 0.183981685,12.7651116 C0.990841121,12.6012008 1.82651697,12.5148153 2.67992599,12.5148153 C2.67992599,5.60619426 8.28360911,0.00664503468 15.1973305,0.00664503468 C17.892773,0.00664503468 20.3865007,0.861639497 22.430249,2.30804205 C24.8020611,1.2071813 27.4443041,0.589193075 30.2328458,0.589193075 C39.3166644,0.589193075 46.8732133,7.11683214 48.469199,15.7354421 C51.9981007,15.7797424 55.1878555,17.2261449 57.5086847,19.543047 L57.5086847,19.543047 Z"
                                    fill="#FFFFFF"></path>
                                <path
                                    d="M47.502741,22.8854994 C43.3509616,23.8534595 39.0262836,24.3651272 34.5796901,24.3651272 C24.695662,24.3651272 15.401262,21.840014 7.30828451,17.3967008 C8.32794204,16.9359784 9.46064856,16.6790371 10.6532045,16.6790371 C10.6532045,12.1980687 14.2885053,8.56544971 18.7727818,8.56544971 C20.5217161,8.56544971 22.1376516,9.1192026 23.4632064,10.0583675 C25.0015593,9.34513378 26.7172439,8.94421668 28.5238111,8.94421668 C34.4178749,8.94421668 39.318881,13.1771038 40.3540551,18.767793 C43.3930778,18.8054482 46.0464041,20.4467717 47.502741,22.8854994 L47.502741,22.8854994 Z"
                                    fill="#DFF7FD"></path>
                            </g>
                            <g transform="translate(29.038073, 0.000000)">
                                <g transform="translate(19.063163, 0.000000)">
                                    <path
                                        d="M32.9681879,6.82223561 C32.0593627,8.12023238 31.097338,9.37835895 30.0821138,10.5899703 C28.6213435,12.3442594 27.0563909,14.0077331 25.3961224,15.5715313 C25.0968751,15.8528377 24.7954112,16.1319292 24.4895139,16.4043756 L0.0997491062,16.4043756 C0.880008781,13.1615987 3.79933262,10.7494511 7.28611805,10.7494511 C7.64521483,10.7494511 7.99766167,10.7760312 8.34345857,10.8269765 C9.50276485,4.75784483 14.8382337,0.17055589 21.2487763,0.17055589 C26.1852487,0.17055589 30.4833269,2.8928051 32.7310067,6.91305108 C32.8085893,6.88204092 32.8883886,6.85103076 32.9681879,6.82223561 L32.9681879,6.82223561 Z"
                                        fill="#FFFFFF"></path>
                                    <path
                                        d="M30.0821138,10.5899703 C28.6213435,12.3442594 27.0563909,14.0077331 25.3961224,15.5715313 C25.0968751,15.8528377 24.7954112,16.1319292 24.4895139,16.4043756 L9.98377721,16.4043756 C10.4337565,14.5393359 12.1117581,13.1527386 14.1178235,13.1527386 C14.3239716,13.1527386 14.5256865,13.1682437 14.7251847,13.1970389 C15.3923954,9.70839567 18.4602346,7.0703169 22.1465182,7.0703169 C24.9860428,7.0703169 27.457604,8.63411506 28.7476924,10.9465871 C29.1710719,10.7782463 29.6188346,10.6564206 30.0821138,10.5899703 L30.0821138,10.5899703 Z"
                                        fill="#DFF7FD"></path>
                                </g>
                                <path
                                    d="M44.459285,15.5715313 C42.6083849,17.3147454 40.6400025,18.9361338 38.5652211,20.4201916 C35.4264492,22.6728583 32.0460628,24.6087784 28.4706116,26.1880817 C25.2786402,27.599044 21.9337201,28.7242699 18.4646679,29.5305341 C15.8423747,30.1418773 13.1491488,30.5715896 10.4005068,30.8041658 C8.80008781,30.9414965 7.179719,31.0101619 5.54161701,31.0101619 C3.68850028,31.0101619 1.85755002,30.9215614 0.0509828765,30.7487905 C0.463279182,25.3463773 4.98302202,21.0891251 10.4980393,21.0891251 C10.4980393,15.3079449 15.1884639,10.6187654 20.9761287,10.6187654 C23.2326752,10.6187654 25.3207564,11.3342142 27.0297911,12.5458255 C29.0159067,11.6243807 31.2281202,11.106068 33.5622493,11.106068 C37.8093445,11.106068 41.6574434,12.8094119 44.459285,15.5715313 L44.459285,15.5715313 Z"
                                    fill="#FFFFFF"></path>
                                <path
                                    d="M38.5652211,20.4201916 C35.4264492,22.6728583 32.0460628,24.6087784 28.4706116,26.1880817 C25.2786402,27.599044 21.9337201,28.7242699 18.4646679,29.5305341 C15.8423747,30.1418773 13.1491488,30.5715896 10.4005068,30.8041658 C10.6842376,27.3155226 13.6079947,24.5755533 17.1723628,24.5755533 C17.1723628,20.8233237 20.2158189,17.7843278 23.9686019,17.7843278 C25.4315888,17.7843278 26.78596,18.2472652 27.8965,19.0335943 C29.1843718,18.4355412 30.6185423,18.0988595 32.1325121,18.0988595 C34.5796901,18.0988595 36.8207201,18.969359 38.5652211,20.4201916 L38.5652211,20.4201916 Z"
                                    fill="#DFF7FD"></path>
                            </g>
                        </g>
                    </g>
                    <path
                        d="M0.0848975726,53.7660831 L0.445324343,53.7660831 C2.04197504,53.7660831 3.33627511,52.4727379 3.33627511,50.877265 L3.33627511,50.5171042 L5.39709164,50.5171042 L5.39709164,50.877265 C5.39709164,52.4727379 6.69139171,53.7660831 8.2880424,53.7660831 L8.64846917,53.7660831 L8.64846917,55.8253794 L8.2880424,55.8253794 C6.69139171,55.8253794 5.39709164,57.1187246 5.39709164,58.7141974 L5.39709164,59.0743583 L3.33627511,59.0743583 L3.33627511,58.7141974 C3.33627511,57.1187246 2.04197504,55.8253794 0.445324343,55.8253794 L0.0848975726,55.8253794 L0.0848975726,53.7660831 Z"
                        fill="#FFFFFF" id="Path"></path>
                    <path
                        d="M23.362349,5.92404842 L23.7227758,5.92404842 C25.3194265,5.92404842 26.6137265,4.63070317 26.6137265,3.03523034 L26.6137265,2.67506946 L28.6745431,2.67506946 L28.6745431,3.03523034 C28.6745431,4.63070317 29.9688431,5.92404842 31.5654938,5.92404842 L31.9259206,5.92404842 L31.9259206,7.98334467 L31.5654938,7.98334467 C29.9688431,7.98334467 28.6745431,9.27668992 28.6745431,10.8721627 L28.6745431,11.2323236 L26.6137265,11.2323236 L26.6137265,10.8721627 C26.6137265,9.27668992 25.3194265,7.98334467 23.7227758,7.98334467 L23.362349,7.98334467 L23.362349,5.92404842 Z"
                        fill="#FFFFFF" id="Path"></path>
                    <path
                        d="M58.104741,3.28087512 L58.4651678,3.28087512 C60.0618185,3.28087512 61.3561185,1.98752987 61.3561185,0.392057046 L61.3561185,0.0318961665 L63.4169351,0.0318961665 L63.4169351,0.392057046 C63.4169351,1.98752987 64.7112352,3.28087512 66.3078858,3.28087512 L66.6683126,3.28087512 L66.6683126,5.34017137 L66.3078858,5.34017137 C64.7112352,5.34017137 63.4169351,6.63351662 63.4169351,8.22898945 L63.4169351,8.58915033 L61.3561185,8.58915033 L61.3561185,8.22876795 C61.3561185,6.63329512 60.0618185,5.33994987 58.4651678,5.33994987 L58.104741,5.33994987 L58.104741,3.28087512 Z"
                        fill="#FFFFFF" id="Path"></path>
                    <path
                        d="M90.4606911,48.8082227 L90.8211179,48.8082227 C92.4177686,48.8082227 93.7120686,47.5148775 93.7120686,45.9194047 L93.7120686,45.5592438 L95.7728852,45.5592438 L95.7728852,45.9194047 C95.7728852,47.5148775 97.0671852,48.8082227 98.6638359,48.8082227 L99.0242627,48.8082227 L99.0242627,50.867519 L98.6638359,50.867519 C97.0671852,50.867519 95.7728852,52.1608642 95.7728852,53.7563371 L95.7728852,54.116498 L93.7120686,54.116498 L93.7120686,53.7563371 C93.7120686,52.1608642 92.4177686,50.867519 90.8211179,50.867519 L90.4606911,50.867519 L90.4606911,48.8082227 Z"
                        fill="#FFFFFF" id="Path"></path>
                </g>
            </g>
        </g>
    </g>
</svg>