<svg xmlns="http://www.w3.org/2000/svg" width="53" height="40" viewBox="0 0 53 40">
    <g fill="none" fill-rule="evenodd">
        <g fill-rule="nonzero">
            <g>
                <path fill="#F2F2F2" d="M37.344 22.405c3.24-.307 5.776-3.037 5.776-6.358h-3.993c3.529 0 6.388-2.86 6.388-6.388h-3.992c3.528 0 6.387-2.86 6.387-6.387h-3.193c-7.056 0-12.775 5.72-12.775 12.775v.987l5.402 5.371zM15.973 16.047v.986l-5.403 5.372c-3.274-.315-5.776-3.064-5.776-6.358h3.993c-3.528 0-6.388-2.86-6.388-6.388h3.992C2.873 9.66.02 6.816.004 3.302c0-.047-.248-.03 3.194-.03 7.055 0 12.775 5.72 12.775 12.775z" transform="translate(-17 -187) translate(20 187)"/>
                <path fill="#ECE2E2" d="M11.98 18.732v1.193l-1.992 2.398c-2.957-.558-5.193-3.156-5.193-6.276h3.992c-3.528 0-6.388-2.86-6.388-6.388h3.992C2.873 9.66.02 6.816.004 3.302c6.683.499 11.977 7.216 11.977 15.43zM35.934 18.732v1.193l1.992 2.398c2.957-.558 5.194-3.156 5.194-6.276h-3.993c3.529 0 6.388-2.86 6.388-6.388h-3.992c3.518 0 6.371-2.843 6.387-6.357-6.683.499-11.976 7.216-11.976 15.43z" transform="translate(-17 -187) translate(20 187)"/>
                <path fill="#EA8692" d="M38.33 23.82c0 8.56-14.373 15.217-14.373 15.217s-3.593-1.664-7.186-4.398c-3.454-2.63-7.186-6.459-7.186-10.82 0-4.292 3.602-7.816 8.065-7.598 2.718.14 5.061 1.682 6.307 3.913 2.485-4.45 8.546-5.25 12.126-1.695 1.4 1.389 2.246 3.295 2.246 5.38z" transform="translate(-17 -187) translate(20 187)"/>
                <path fill="#FE929F" d="M38.29 23.042c-.402 3.261-3.839 6.147-7.246 8.245-4.34 2.673-9.824 2.677-14.165.005-2.964-1.824-6.827-4.776-7.255-8.249.393-3.833 3.652-6.832 7.626-6.832 2.849 0 5.381 1.549 6.707 3.923 1.324-2.37 3.854-3.923 6.707-3.923 3.956 0 7.23 2.981 7.626 6.831z" transform="translate(-17 -187) translate(20 187)"/>
                <path fill="#EFD66C" d="M18.726 8.555c2.944 1.472 7.516 1.473 10.462 0 3.68-1.84 3.686-5.53 0-7.373-2.943-1.472-7.516-1.473-10.462 0-3.68 1.84-3.686 5.53 0 7.373zm1.429-4.516c2.043-1.022 5.562-1.022 7.605 0 .816.408.988.774.988.83 0 .055-.172.421-.988.83-2.044 1.021-5.563 1.021-7.605 0-.817-.409-.988-.775-.988-.83 0-.056.171-.422.988-.83z" transform="translate(-17 -187) translate(20 187)"/>
                <path fill="#FFA4B8" d="M18.885 20.438s-5.073-.845-5.073 2.537c0 3.381.846-.846 3.382-.846s2.536-.845 1.69-1.69z" transform="translate(-17 -187) translate(20 187)"/>
            </g>
        </g>
    </g>
</svg>
