<?xml version="1.0" encoding="UTF-8"?>
<svg height="18px" version="1.1" viewBox="0 0 32 18" width="32px"
    xmlns="http://www.w3.org/2000/svg">
    <title>button copy</title>
    <g fill="none" fill-rule="evenodd" id="Page-1" stroke="none" stroke-width="1">
        <g fill-rule="nonzero" id="Lời-nhắc--Copy-2"
            transform="translate(-309.000000, -244.000000)">
            <g id="button-copy" transform="translate(309.000000, 244.000000)">
                <path
                    d="M10.3967297,18 L23,18 L23,0 L10.3967297,0 C4.65488322,0 0,4.0295314 0,9 C0,13.9706891 4.65488322,18 10.3967297,18 Z"
                    fill="#2872FF" id="Path"></path>
                <path
                    d="M32,9 C32,13.9706891 27.9706891,18 23,18 C18.0295314,18 14,13.9706891 14,9 C14,4.0295314 18.0295314,0 23,0 C27.9706891,0 32,4.0295314 32,9 Z"
                    fill="#F4F4F4" id="Path"></path>
                <g fill="#57565C" id="Group" transform="translate(18.000000, 8.000000)">
                    <path
                        d="M9.54640541,1.53969595 C9.31331115,1.53969595 9.12418885,1.35282941 9.12418885,1.12204389 L9.12418885,0.428842919 C9.12418885,0.198057405 9.31331115,0.0111908649 9.54640541,0.0111908649 C9.77971311,0.0111908649 9.96862191,0.198057405 9.96862191,0.428842919 L9.96862191,1.12204389 C9.96862191,1.35282941 9.77971311,1.53969595 9.54640541,1.53969595 Z"
                        id="Path"></path>
                    <path
                        d="M0.465548142,1.53969595 C0.232240437,1.53969595 0.0433316393,1.35282941 0.0433316393,1.12204389 L0.0433316393,0.428842919 C0.0433316393,0.198057405 0.232240437,0.0111908649 0.465548142,0.0111908649 C0.698642404,0.0111908649 0.887764699,0.198057405 0.887764699,0.428842919 L0.887764699,1.12204389 C0.887764699,1.35282941 0.698642404,1.53969595 0.465548142,1.53969595 Z"
                        id="Path"></path>
                    <path
                        d="M5.00597678,1.97698481 C4.45952869,1.97698481 3.9130806,1.80215373 3.45713798,1.45228043 C3.27292519,1.31102195 3.23941257,1.04856422 3.38242831,0.866342919 C3.52523055,0.683910486 3.79055672,0.650971297 3.97476945,0.79222973 C4.58183913,1.25823481 5.43011443,1.25823481 6.03739754,0.79222973 C6.22161033,0.650971297 6.48672301,0.683910486 6.62973874,0.866342919 C6.77254098,1.04856422 6.73902836,1.31081081 6.55481557,1.45228043 C6.09887295,1.80215373 5.55242486,1.97698481 5.00597678,1.97698481 L5.00597678,1.97698481 Z"
                        id="Path"></path>
                </g>
            </g>
        </g>
    </g>
</svg>