<svg height="19" viewBox="0 0 17 19" width="17" xmlns="http://www.w3.org/2000/svg">
    <g fill="none" fill-rule="evenodd">
        <g fill="#88674D" fill-rule="nonzero">
            <g>
                <path
                    d="M17 15.833C17 17.58 15.614 19 13.91 19c-1.706 0-3.092-1.42-3.092-3.167l.001-.004-5.924-3.77c-.508.378-1.129.608-1.804.608C1.386 12.667 0 11.247 0 9.5c0-1.746 1.386-3.167 3.09-3.167.83 0 1.58.34 2.136.887l5.63-3.667c-.015-.128-.038-.254-.038-.386C10.818 1.42 12.204 0 13.91 0 15.614 0 17 1.42 17 3.167c0 1.746-1.386 3.166-3.09 3.166-1.015 0-1.909-.51-2.472-1.284L6.03 8.571c.09.296.152.604.152.929 0 .476-.11.922-.295 1.328l5.365 3.413c.538-.937 1.521-1.574 2.657-1.574 1.705 0 3.091 1.42 3.091 3.166z"
                    transform="translate(-317 -181) translate(317 181)" />
            </g>
        </g>
    </g>
</svg>
