<svg height="25" viewBox="0 0 25 25" width="25" xmlns="http://www.w3.org/2000/svg">
    <g fill="none" fill-rule="evenodd">
        <g fill="#88674D" fill-rule="nonzero">
            <g>
                <path
                    d="M13.284 25h-1.569c-1.269 0-2.301-1.032-2.301-2.301v-.531c-.54-.173-1.064-.39-1.567-.65l-.376.375c-.911.913-2.37.886-3.256 0l-1.108-1.109c-.887-.885-.912-2.344 0-3.255l.376-.376c-.26-.503-.478-1.027-.65-1.567H2.3C1.032 15.586 0 14.554 0 13.285v-1.57c0-1.269 1.032-2.3 2.301-2.3h.531c.173-.54.39-1.065.65-1.568l-.375-.376c-.912-.91-.887-2.37 0-3.255l1.109-1.11c.887-.887 2.346-.91 3.255 0l.376.377c.503-.26 1.028-.478 1.567-.65V2.3C9.414 1.032 10.446 0 11.716 0h1.569c1.269 0 2.3 1.032 2.3 2.301v.531c.54.173 1.065.39 1.568.65l.376-.375c.911-.913 2.37-.886 3.255 0l1.11 1.109c.886.885.911 2.344 0 3.255l-.377.376c.26.503.478 1.027.65 1.567h.532c1.269 0 2.301 1.032 2.301 2.301v1.57c0 1.269-1.032 2.3-2.301 2.3h-.531c-.173.54-.39 1.065-.65 1.568l.375.376c.912.91.887 2.37 0 3.255l-1.109 1.11c-.887.887-2.346.91-3.255 0l-.376-.377c-.503.26-1.028.478-1.567.65v.532c0 1.269-1.032 2.301-2.302 2.301zm-5.192-5.021c.7.414 1.452.726 2.237.929.324.083.55.375.55.71v1.08c0 .462.375.837.837.837h1.569c.46 0 .836-.375.836-.836v-1.082c0-.334.226-.626.55-.709.785-.203 1.538-.515 2.237-.929.288-.17.655-.124.891.113l.766.766c.33.33.86.323 1.183 0l1.11-1.11c.321-.32.332-.851 0-1.183l-.766-.766c-.237-.236-.283-.603-.113-.89.414-.7.726-1.453.929-2.238.084-.324.375-.55.71-.55h1.08c.462 0 .837-.375.837-.836v-1.57c0-.46-.375-.836-.836-.836h-1.082c-.334 0-.625-.226-.709-.55-.203-.785-.515-1.538-.929-2.237-.17-.288-.124-.655.113-.891l.766-.766c.33-.33.322-.861 0-1.183l-1.11-1.11c-.321-.322-.852-.331-1.182 0l-.767.767c-.236.236-.603.282-.89.112-.7-.414-1.453-.726-2.238-.929-.324-.083-.55-.375-.55-.709V2.301c0-.46-.375-.836-.836-.836h-1.57c-.46 0-.836.375-.836.836v1.082c0 .334-.226.626-.55.709-.785.203-1.538.515-2.237.929-.288.17-.655.124-.891-.113l-.766-.766c-.33-.33-.86-.323-1.183 0l-1.11 1.11c-.321.32-.332.851 0 1.183l.766.766c.237.236.283.603.113.89-.414.7-.726 1.453-.929 2.238-.083.324-.375.55-.71.55h-1.08c-.462 0-.837.375-.837.836v1.57c0 .46.375.836.836.836h1.082c.334 0 .626.226.709.55.203.785.515 1.538.929 2.237.17.288.124.655-.113.891l-.766.766c-.33.33-.322.861 0 1.183l1.11 1.11c.321.322.852.331 1.183 0l.766-.766c.174-.175.537-.322.89-.113z"
                    transform="translate(-314 -285) translate(314 285)" />
                <path
                    d="M12.5 18C9.467 18 7 15.533 7 12.5S9.467 7 12.5 7 18 9.467 18 12.5 15.533 18 12.5 18zm0-9.519c-2.216 0-4.019 1.803-4.019 4.019s1.803 4.019 4.019 4.019 4.019-1.803 4.019-4.019-1.803-4.019-4.019-4.019z"
                    transform="translate(-314 -285) translate(314 285)" />
            </g>
        </g>
    </g>
</svg>
