<?xml version="1.0" encoding="UTF-8"?>
<svg height="43px" version="1.1" viewBox="0 0 99 43" width="99px"
    xmlns="http://www.w3.org/2000/svg">
    <title>Group 2</title>
    <g fill="none" fill-rule="evenodd" id="Page-1" stroke="none" stroke-width="1">
        <g fill-rule="nonzero" id="câu-gợi-ý-xét-mình-"
            transform="translate(-57.000000, -5.000000)">
            <g id="Group-2" transform="translate(57.000000, 5.000000)">
                <g id="snowman" transform="translate(0.000000, 3.000000)">
                    <path
                        d="M3.82972198,40 C3.20570776,40 2.6255351,39.683125 2.29282722,39.1605469 C0.792768821,36.8048437 0,34.0916406 0,31.3142969 C0,28.6328125 0.743732385,26.0014844 2.15091278,23.7047656 C3.10708392,22.1442969 4.35149168,20.7630469 5.81077822,19.6314844 C4.02972451,17.5038281 3.04018027,14.8421094 3.04018027,12.0557812 C3.04025898,5.408125 8.6297042,0 15.5,0 C22.3700597,0 27.9595836,5.408125 27.9595836,12.0557812 C27.9595836,14.8417187 26.9700394,17.5035938 25.1892218,19.6314062 C26.648587,20.763125 27.8928374,22.1442187 28.8490872,23.7047656 C30.2561889,26.0014844 31,28.6328125 31,31.3142969 C31,34.0917969 30.2070738,36.805 28.7070941,39.1607031 C28.3743075,39.683125 27.7942135,40 27.170278,40 L3.82972198,40 L3.82972198,40 Z"
                        fill="#F1F2F2" id="Path"></path>
                    <g fill="#636052" id="Group" transform="translate(11.000000, 11.000000)">
                        <path
                            d="M2.1594697,1.02406897 C2.1594697,1.55317241 1.67628788,1.98234483 1.07992424,1.98234483 L1.07992424,1.98234483 C0.483787879,1.98234483 0.00053030303,1.55317241 0.00053030303,1.02406897 L0.00053030303,1.02406897 C0.00053030303,0.494896552 0.483712121,0.0657931034 1.07992424,0.0657931034 L1.07992424,0.0657931034 C1.67628788,0.0657931034 2.1594697,0.494896552 2.1594697,1.02406897 L2.1594697,1.02406897 Z"
                            id="Path"></path>
                        <path
                            d="M9.9994697,1.02406897 C9.9994697,1.55317241 9.51636364,1.98234483 8.92030303,1.98234483 L8.92030303,1.98234483 C8.32409091,1.98234483 7.84083333,1.55317241 7.84083333,1.02406897 L7.84083333,1.02406897 C7.84083333,0.494896552 8.32401515,0.0657931034 8.92030303,0.0657931034 L8.92030303,0.0657931034 C9.51643939,0.0657931034 9.9994697,0.494896552 9.9994697,1.02406897 L9.9994697,1.02406897 Z"
                            id="Path"></path>
                    </g>
                    <path
                        d="M18,14.0000416 C18,15.1045459 17.1044655,16 16.000284,16 L16.000284,16 C14.8955345,16 14,15.1046291 14,14.0000416 L14,14.0000416 C14,12.8953709 14.8955345,12 16.000284,12 L16.000284,12 C17.1045467,12.0000832 18,12.8952876 18,14.0000416 L18,14.0000416 Z"
                        fill="#EF6B3A" id="Path"></path>
                    <g fill="#636052" id="Group" transform="translate(14.000000, 21.000000)">
                        <ellipse cx="1.50765957" cy="1.76242424" id="Oval" rx="1.47931915"
                            ry="1.75575758"></ellipse>
                        <ellipse cx="1.50765957" cy="8.21386364" id="Oval" rx="1.47931915"
                            ry="1.75575758"></ellipse>
                    </g>
                    <path
                        d="M6.07773346,39.1605469 C4.5140109,36.8048437 3.68747065,34.0916406 3.68747065,31.3142969 C3.68747065,28.6328125 4.46280856,26.0014844 5.92978825,23.7047656 C6.92659267,22.1442969 8.22388257,20.7630469 9.74518269,19.6314844 C7.88844164,17.5039062 6.85676384,14.8421875 6.85676384,12.0557812 C6.85676384,5.98984375 11.7090876,0.956796875 18,0.12234375 C17.3982905,0.042421875 16.7836163,0 16.1585212,0 C8.9962665,0 3.16929319,5.408125 3.16929319,12.0557812 C3.16929319,14.8420313 4.20080687,17.50375 6.05771203,19.6314844 C4.53641192,20.763125 3.23912201,22.144375 2.2423176,23.7047656 C0.775337907,26.0014062 0,28.6328125 0,31.3142969 C0,34.0917187 0.826458186,36.8049219 2.3902628,39.1605469 C2.73694527,39.683125 3.34177284,40 3.99230506,40 L7.67993983,40 C7.02932555,40 6.42458004,39.683125 6.07773346,39.1605469 Z"
                        fill="#414042" id="Path" opacity="0.1"></path>
                </g>
                <g id="snowman-copy" transform="translate(37.000000, 15.000000)">
                    <path
                        d="M2.71786721,28 C2.27501841,28 1.86328298,27.7781875 1.6271677,27.4123828 C0.562610131,25.7633906 0,23.8641484 0,21.9200078 C0,20.0429688 0.52781008,18.2010391 1.52645423,16.5933359 C2.20502729,15.5010078 3.08815539,14.5341328 4.12377809,13.7420391 C2.85980449,12.2526797 2.15754729,10.3894766 2.15754729,8.43904687 C2.15760315,3.7856875 6.12430621,0 11,0 C15.8755262,0 19.8422851,3.7856875 19.8422851,8.43904687 C19.8422851,10.3892031 19.1400279,12.2525156 17.8762219,13.7419844 C18.9119005,14.5341875 19.7949168,15.5009531 20.4735458,16.5933359 C21.4721341,18.2010391 22,20.0429688 22,21.9200078 C22,23.8642578 21.4372782,25.7635 20.3727764,27.4124922 C20.1366053,27.7781875 19.7249257,28 19.2821328,28 L2.71786721,28 L2.71786721,28 Z"
                        fill="#F1F2F2" id="Path"></path>
                    <g fill="#636052" id="Group" transform="translate(8.000000, 8.000000)">
                        <path
                            d="M1.51162879,0.512034483 C1.51162879,0.776586207 1.17340152,0.991172414 0.75594697,0.991172414 L0.75594697,0.991172414 C0.338651515,0.991172414 0.000371212121,0.776586207 0.000371212121,0.512034483 L0.000371212121,0.512034483 C0.000371212121,0.247448276 0.338598485,0.0328965517 0.75594697,0.0328965517 L0.75594697,0.0328965517 C1.17340152,0.0328965517 1.51162879,0.247448276 1.51162879,0.512034483 L1.51162879,0.512034483 Z"
                            id="Path"></path>
                        <path
                            d="M6.99962879,0.512034483 C6.99962879,0.776586207 6.66145455,0.991172414 6.24421212,0.991172414 L6.24421212,0.991172414 C5.82686364,0.991172414 5.48858333,0.776586207 5.48858333,0.512034483 L5.48858333,0.512034483 C5.48858333,0.247448276 5.82681061,0.0328965517 6.24421212,0.0328965517 L6.24421212,0.0328965517 C6.66150758,0.0328965517 6.99962879,0.247448276 6.99962879,0.512034483 L6.99962879,0.512034483 Z"
                            id="Path"></path>
                    </g>
                    <path
                        d="M13,9.50003121 C13,10.3284094 12.3283491,11 11.500213,11 L11.500213,11 C10.6716509,11 10,10.3284719 10,9.50003121 L10,9.50003121 C10,8.67152814 10.6716509,8 11.500213,8 L11.500213,8 C12.32841,8.00006242 13,8.67146572 13,9.50003121 L13,9.50003121 Z"
                        fill="#EF6B3A" id="Path"></path>
                    <g fill="#636052" id="Group" transform="translate(10.000000, 15.000000)">
                        <ellipse cx="1.00510638" cy="1.23369697" id="Oval" rx="1"
                            ry="1.2290303"></ellipse>
                        <ellipse cx="1.00510638" cy="5.74970455" id="Oval" rx="1"
                            ry="1.2290303"></ellipse>
                    </g>
                    <path
                        d="M4.38947416,27.4123828 C3.26011898,25.7633906 2.66317325,23.8641484 2.66317325,21.9200078 C2.66317325,20.0429688 3.22313952,18.2010391 4.28262485,16.5933359 C5.00253915,15.5010078 5.93947075,14.5341328 7.0381875,13.7420391 C5.69720785,12.2527344 4.95210722,10.3895312 4.95210722,8.43904687 C4.95210722,4.19289062 8.45656326,0.669757812 13,0.085640625 C12.565432,0.0296953125 12.1215007,0 11.6700431,0 C6.49730358,0 2.28893397,3.7856875 2.28893397,8.43904687 C2.28893397,10.3894219 3.03391608,12.252625 4.37501425,13.7420391 C3.2762975,14.5341875 2.3393659,15.5010625 1.6194516,16.5933359 C0.559966266,18.2009844 0,20.0429688 0,21.9200078 C0,23.8642031 0.596886468,25.7634453 1.72630091,27.4123828 C1.9766827,27.7781875 2.41350261,28 2.88333143,28 L5.54662321,28 C5.07673512,28 4.63997447,27.7781875 4.38947416,27.4123828 Z"
                        fill="#414042" id="Path" opacity="0.1"></path>
                </g>
                <g fill="#F1F2F2" id="snow" transform="translate(65.000000, 0.000000)">
                    <polygon id="Path"
                        points="13 5.84999543 10.2895021 5.84999543 12.3955005 3.74073692 11.475741 2.82423764 8.44998324 5.84999543 7.15000457 5.84999543 7.15000457 4.54998629 10.1757319 1.52425897 9.25923261 0.604499528 7.15000457 2.71049788 7.15000457 0 5.84999543 0 5.84999543 2.71049788 3.74073692 0.604499528 2.82423764 1.52425897 5.84999543 4.54998629 5.84999543 5.84999543 4.54998629 5.84999543 1.52425897 2.82423764 0.604499528 3.74073692 2.71049788 5.84999543 0 5.84999543 0 7.15000457 2.71049788 7.15000457 0.604499528 9.25923261 1.52425897 10.1757319 4.54998629 7.15000457 5.84999543 7.15000457 5.84999543 8.44998324 2.82423764 11.475741 3.74073692 12.3955005 5.84999543 10.2895021 5.84999543 13 7.15000457 13 7.15000457 10.2895021 9.25923261 12.3955005 10.1757319 11.475741 7.15000457 8.44998324 7.15000457 7.15000457 8.44998324 7.15000457 11.475741 10.1757319 12.3955005 9.25923261 10.2895021 7.15000457 13 7.15000457"></polygon>
                </g>
                <g fill="#F1F2F2" id="snow-copy" transform="translate(84.000000, 10.000000)">
                    <polygon id="Path"
                        points="15 6.74999473 11.8725024 6.74999473 14.3025005 4.31623491 13.2412397 3.25873574 9.74998066 6.74999473 8.25000527 6.74999473 8.25000527 5.24998418 11.7412291 1.75876034 10.6837299 0.697499455 8.25000527 3.12749756 8.25000527 0 6.74999473 0 6.74999473 3.12749756 4.31623491 0.697499455 3.25873574 1.75876034 6.74999473 5.24998418 6.74999473 6.74999473 5.24998418 6.74999473 1.75876034 3.25873574 0.697499455 4.31623491 3.12749756 6.74999473 0 6.74999473 0 8.25000527 3.12749756 8.25000527 0.697499455 10.6837299 1.75876034 11.7412291 5.24998418 8.25000527 6.74999473 8.25000527 6.74999473 9.74998066 3.25873574 13.2412397 4.31623491 14.3025005 6.74999473 11.8725024 6.74999473 15 8.25000527 15 8.25000527 11.8725024 10.6837299 14.3025005 11.7412291 13.2412397 8.25000527 9.74998066 8.25000527 8.25000527 9.74998066 8.25000527 13.2412397 11.7412291 14.3025005 10.6837299 11.8725024 8.25000527 15 8.25000527"></polygon>
                </g>
            </g>
        </g>
    </g>
</svg>