<?xml version="1.0" encoding="UTF-8"?>
<svg height="114px" version="1.1" viewBox="0 0 114 114" width="114px"
    xmlns="http://www.w3.org/2000/svg">
    <title>like</title>
    <g fill="none" fill-rule="evenodd" id="Page-1" stroke="none" stroke-width="1">
        <g fill-rule="nonzero" id="câu-gợi-ý-xét-mình---Chúa-Copy"
            transform="translate(-123.000000, -59.000000)">
            <g id="like" transform="translate(123.000000, 59.000000)">
                <path
                    d="M111,58.5 C111,89.1519806 86.1079305,114 55.4016107,114 C36.2118957,114 19.2930603,104.295271 9.30136277,89.5346973 C6.39467125,85.2416884 2.53122626,76.5647535 1.00024737,68.4679548 C-0.6270141,59.8585581 0.175340248,51.9054948 0.366170484,50.5703152 C4.22094126,23.6745011 27.3920692,3 55.4016107,3 C86.1079305,3 111,27.8480194 111,58.5 Z"
                    fill="#F5C02C" id="Path"></path>
                <path
                    d="M105.945643,8.05435665 C116.684786,18.7943748 116.684786,36.2065012 105.945643,46.9456432 C95.2056252,57.6847856 77.7943749,57.6847856 67.0543568,46.9456432 C56.3152144,36.2065012 56.3152144,18.7943748 67.0543568,8.05435665 C77.7943749,-2.68478555 95.2056252,-2.68478555 105.945643,8.05435665 L105.945643,8.05435665 Z"
                    fill="#00B96F" id="Path"></path>
                <path
                    d="M106.03487,7.96512973 C115.740676,17.6709354 116.575845,32.8867759 108.542976,43.5429759 C97.8867759,51.5758447 82.6718017,50.7406759 72.9651295,41.0348705 C63.2593241,31.3281983 62.4241553,16.1132241 70.4570241,5.45702406 C81.1132241,-2.57584476 96.3281983,-1.74067591 106.03487,7.96512973 L106.03487,7.96512973 Z"
                    fill="#54D680" id="Path"></path>
                <path
                    d="M112.831774,15.7998389 L90.7824352,37.8329569 C90.0041217,38.6106981 88.9830709,39 87.9637479,39 C86.9435612,39 85.9233742,38.6115612 85.1450607,37.8329569 L74.1674703,26.8643055 C72.6108432,25.3079602 72.6108432,22.7856968 74.1674703,21.2302149 C75.7240975,19.6747327 78.2482176,19.6747327 79.8048449,21.2302149 L87.9637479,29.3831159 L107.195263,10.1666116 C108.75189,8.61112947 111.275147,8.61112947 112.832638,10.1666116 C114.389265,11.7220935 114.389265,14.2443567 112.831774,15.7998389 Z"
                    fill="#FFE49F" id="Path"></path>
                <path
                    d="M112.829319,10.1706482 C114.390083,11.7305024 114.390083,14.2589898 112.830184,15.8188442 L93.8179457,34.8296765 C93.0379962,35.6096036 92.0156653,36 90.9933345,36 C89.9710034,36 88.9486725,35.6104693 88.1687233,34.8296765 L77.1680618,23.8293278 C76.1777599,22.839054 75.8185157,21.4583841 76.0851354,20.1824543 C77.3611015,19.9158421 78.7418109,20.2750761 79.7321128,21.2653499 L87.9081631,29.4411677 L107.180096,10.1697824 C108.739995,8.60992825 111.26942,8.60992825 112.829319,10.1706482 L112.829319,10.1706482 Z"
                    fill="#FFF5F5" id="Path"></path>
                <path
                    d="M90.6059848,56.4654334 C90.4090034,56.5711339 90.287186,56.7764698 90.287186,57 C90.287186,57.2235304 90.4090034,57.4297327 90.6059848,57.5345668 C92.0297802,58.2978621 93,59.8010602 93,61.5338533 L93,63.8003467 C93,65.5322733 92.0297802,67.0363377 90.6059848,67.7987666 C90.4090034,67.9044671 90.287186,68.1098031 90.287186,68.3333335 C90.287186,68.5568637 90.4090034,68.7630662 90.6059848,68.8679001 C92.0297802,69.6311954 93,71.1343935 93,72.8671866 L93,75.13368 C93,76.8656067 92.0297802,78.3696712 90.6059848,79.1321001 C90.4090034,79.2378004 90.287186,79.4431363 90.287186,79.6666667 C90.287186,79.8901969 90.4090034,80.0963994 90.6059848,80.2012334 C92.0297802,80.9645287 93,82.4677267 93,84.2005198 L93,86.4670132 C93,88.9708992 90.9757569,91 88.4789312,91 L64.3392064,91 C60.9369577,91 57.6271517,89.8858139 54.9143377,87.8272557 C52.2006598,85.7678312 48.8917178,84.6536453 45.4886049,84.6536453 L27,84.6536453 L27,55.1866321 L43.038433,55.1866321 C46.268755,55.1866321 49.2528505,53.4590375 50.8684434,50.6536453 L58.5152959,37.3709197 C59.1105598,36.3364423 59.4233111,35.1642076 59.4233111,33.9703133 L59.4233111,26.3997403 C59.4233111,24.5222589 60.9412774,23 62.8143286,23 C67.1833414,23 70.7246868,26.5522261 70.7246868,30.9335934 L70.7246868,35.2057946 C70.7246868,37.6039803 70.0922729,39.9597126 68.8922415,42.0329995 L67.3794589,44.6451851 C67.1176809,45.0991769 67.4433915,45.6666667 67.9660833,45.6666667 L88.4789312,45.6666667 C90.9757569,45.6666667 93,47.6966339 93,50.2005198 L93,52.4670132 C93,54.19894 92.0297802,55.7030044 90.6059848,56.4654334 L90.6059848,56.4654334 Z"
                    fill="#FFDFCF" id="Path"></path>
                <path
                    d="M63,23.9416527 L63,28.6472176 C63,29.9468242 62.0346248,31 60.8433636,31 L59,31 L59,26.5291739 C59,24.5802138 60.4484748,23 62.2349547,23 C62.4361088,23 62.6347897,23.0107928 62.8318219,23.0278809 C62.9398187,23.3093873 63,23.6178753 63,23.9416527 Z"
                    fill="#FFEEE6" id="Path"></path>
                <path
                    d="M74.9174531,54.2939629 C74.9174531,53.0268466 75.9300066,52 77.1775555,52 L93,52 C93,53.7529174 92.0297802,55.2752108 90.6059848,56.0468803 C90.4090034,56.1538619 90.287186,56.3616864 90.287186,56.5879258 L77.1775555,56.5879258 C75.9300066,56.5879258 74.9174531,55.5610792 74.9174531,54.2939629 L74.9174531,54.2939629 Z M88.4789312,83.6594941 L64.3392064,83.6594941 C60.9369577,83.6594941 57.6271517,82.5309276 54.9143377,80.44742 C52.2006598,78.3630354 48.8917178,77.2353458 45.4886049,77.2353458 L27,77.2353458 L27,84.5767286 L45.4886049,84.5767286 C48.8917178,84.5767286 52.2006598,85.7044182 54.9143377,87.7888026 C57.6271517,89.8723102 60.9369577,91 64.3392064,91 L88.4789312,91 C90.9757569,91 93,88.9463068 93,86.4120742 L93,84.1181113 C93,83.1859696 92.720943,82.322226 92.2500884,81.5996627 C91.440564,82.8395954 90.0547823,83.6594941 88.4789312,83.6594941 Z M74.9174531,77.2353458 C74.9174531,78.5024621 75.9300066,79.5293087 77.1775555,79.5293087 L90.287186,79.5293087 C90.287186,79.3030691 90.4090034,79.0952445 90.6059848,78.9882632 C92.0297802,78.2165937 93,76.6943003 93,74.9413829 L77.1775555,74.9413829 C75.9300066,74.9413829 74.9174531,75.9682293 74.9174531,77.2353458 L74.9174531,77.2353458 Z M74.9174531,65.7646544 C74.9174531,67.0317707 75.9300066,68.0586173 77.1775555,68.0586173 L90.287186,68.0586173 C90.287186,67.8323778 90.4090034,67.6245532 90.6059848,67.5175716 C92.0297802,66.7459022 93,65.2236087 93,63.4706916 L77.1775555,63.4706916 C75.9300066,63.4706916 74.9174531,64.4975379 74.9174531,65.7646544 L74.9174531,65.7646544 Z"
                    fill="#FFC9C0" id="Shape"></path>
                <path
                    d="M36,51.4026204 L36,88.5982465 C36,90.4768396 34.4600478,92 32.5607442,92 L21.095681,92 C19.5145347,92 18.185811,90.9423702 17.7835126,89.5050339 L9.59731231,89.5050339 C3.53829669,80.6356811 0,69.9432174 0,58.4332578 C0,55.7380355 0.1980814,53.0878928 0.573209443,50.4949659 L17.7835126,50.4949659 C18.185811,49.0576298 19.5145347,48 21.095681,48 L32.5607442,48 C34.4600478,48 36,49.5231602 36,51.4026204 Z"
                    fill="#FF393A" id="Path"></path>
                <path
                    d="M0,58.3502151 C0,55.6764452 0.193699122,53.047396 0.568826941,50.4751074 L10.7770366,50.4751074 L10.7770366,78.0805542 C10.7770366,79.9441949 9.23708437,81.4552317 7.33778061,81.4552317 L5.15800746,81.4552317 C1.84671575,74.4272336 0,66.6011466 0,58.3502151 Z M17.656425,51.3755375 L17.656425,80.6244625 C17.656425,82.4889633 19.1963774,84 21.095681,84 L32.5607442,84 C34.4600478,84 36,82.4889633 36,80.6244625 L36,51.3755375 C36,49.5110367 34.4600478,48 32.5607442,48 L21.095681,48 C19.1963774,48 17.656425,49.5110367 17.656425,51.3755375 L17.656425,51.3755375 Z"
                    fill="#FF6466" id="Shape"></path>
            </g>
        </g>
    </g>
</svg>