<?xml version="1.0" encoding="UTF-8"?>
<svg height="18px" version="1.1" viewBox="0 0 32 18" width="32px"
    xmlns="http://www.w3.org/2000/svg">
    <title>button copy 2</title>
    <g fill="none" fill-rule="evenodd" id="Page-1" stroke="none" stroke-width="1">
        <g id="Lời-nhắc-" transform="translate(-310.000000, -298.000000)">
            <g id="button-copy-2" transform="translate(310.000000, 298.000000)">
                <path
                    d="M19.3967297,18 L32,18 L32,0 L19.3967297,0 C13.6548832,0 9,4.0295314 9,9 C9,13.9706891 13.6548832,18 19.3967297,18 Z"
                    fill="#616161" fill-rule="nonzero" id="Path"
                    transform="translate(20.500000, 9.000000) rotate(-180.000000) translate(-20.500000, -9.000000) "></path>
                <g id="Group-2">
                    <path
                        d="M18,9 C18,13.9706891 13.9706891,18 9,18 C4.0295314,18 0,13.9706891 0,9 C0,4.0295314 4.0295314,0 9,0 C13.9706891,0 18,4.0295314 18,9 Z"
                        fill="#D0D3D3" fill-rule="nonzero" id="Path"></path>
                    <g fill="#57565C" id="Group" transform="translate(4.000000, 8.000000)">
                        <path
                            d="M9.54640541,1.53969595 C9.31331115,1.53969595 9.12418885,1.35282941 9.12418885,1.12204389 L9.12418885,0.428842919 C9.12418885,0.198057405 9.31331115,0.0111908649 9.54640541,0.0111908649 C9.77971311,0.0111908649 9.96862191,0.198057405 9.96862191,0.428842919 L9.96862191,1.12204389 C9.96862191,1.35282941 9.77971311,1.53969595 9.54640541,1.53969595 Z"
                            fill-rule="nonzero" id="Path"></path>
                        <path
                            d="M0.465548142,1.53969595 C0.232240437,1.53969595 0.0433316393,1.35282941 0.0433316393,1.12204389 L0.0433316393,0.428842919 C0.0433316393,0.198057405 0.232240437,0.0111908649 0.465548142,0.0111908649 C0.698642404,0.0111908649 0.887764699,0.198057405 0.887764699,0.428842919 L0.887764699,1.12204389 C0.887764699,1.35282941 0.698642404,1.53969595 0.465548142,1.53969595 Z"
                            fill-rule="nonzero" id="Path"></path>
                        <rect height="1" id="Rectangle" rx="0.5" width="4" x="3" y="1"></rect>
                    </g>
                </g>
            </g>
        </g>
    </g>
</svg>