<?xml version="1.0" encoding="UTF-8"?>
<svg xmlns:xlink="http://www.w3.org/1999/xlink" height="40px" version="1.1" viewBox="0 0 53 40"
    width="53px" xmlns="http://www.w3.org/2000/svg">
    <title>hourglass</title>
    <g fill="none" fill-rule="evenodd" id="Page-1" stroke="none" stroke-width="1">
        <g fill-rule="nonzero" id="câu-gợi-ý-xét-mình-"
            transform="translate(-17.000000, -371.000000)">
            <g id="hourglass" transform="translate(35.000000, 374.000000)">
                <path
                    d="M17.905125,8.63333333 L17.905125,0 L1.92820833,0 L1.92820833,8.63333333 C1.92820833,11.8224167 3.7716875,14.5763333 6.44233333,15.873375 C7.04564583,16.1663542 7.4375,16.7724375 7.4375,17.4477917 L7.4375,17.5523542 C7.4375,18.2277083 7.04564583,18.8336458 6.44233333,19.1267708 C3.7716875,20.4238125 1.92820833,23.1775833 1.92820833,26.3668125 L1.92820833,35 L17.905125,35 L17.905125,26.3666667 C17.905125,23.1775833 16.0616458,20.4236667 13.391,19.126625 C12.7876875,18.8336458 12.3958333,18.2275625 12.3958333,17.5522083 L12.3958333,17.4476458 C12.3958333,16.7722917 12.7876875,16.1663542 13.391,15.8732292 C16.0616458,14.5763333 17.905125,11.8225625 17.905125,8.63333333 Z"
                    fill="#FFEACF" id="Path"></path>
                <path
                    d="M16.7384583,26.8041667 C16.4968125,26.8041667 16.3009583,26.6083125 16.3009583,26.3666667 C16.3009583,23.91025 14.8836042,21.6349583 12.690125,20.5696458 C12.4728333,20.4640625 12.382125,20.2022917 12.4877083,19.985 C12.5934375,19.7677083 12.8550625,19.6771458 13.0723542,19.7825833 C15.5652292,20.9931458 17.1759583,23.5774583 17.1759583,26.3665208 C17.1759583,26.6083125 16.9801042,26.8041667 16.7384583,26.8041667 Z"
                    fill="#FCF9DE" id="Path"></path>
                <path
                    d="M10.5256667,19.126625 C11.1289792,18.8335 11.5208333,18.2275625 11.5208333,17.5522083 L11.5208333,17.4476458 C11.5208333,16.7722917 11.1289792,16.1663542 10.5256667,15.8732292 C7.85502083,14.5761875 6.01154167,11.8224167 6.01154167,8.6331875 L6.01154167,0 L1.92820833,0 L1.92820833,8.63333333 C1.92820833,11.8224167 3.7716875,14.5763333 6.44233333,15.873375 C7.04564583,16.1665 7.4375,16.7724375 7.4375,17.4477917 L7.4375,17.5523542 C7.4375,18.2277083 7.04564583,18.8336458 6.44233333,19.1267708 C3.7716875,20.4238125 1.92820833,23.1775833 1.92820833,26.3668125 L1.92820833,35 L6.01154167,35 L6.01154167,26.3666667 C6.01154167,23.1775833 7.85502083,20.4236667 10.5256667,19.126625 Z"
                    fill="#FFD59A" id="Path"></path>
                <path
                    d="M4.01172917,11.6204375 C5.0981875,13.7875208 7.326375,15.2777917 9.8945,15.2777917 L9.9386875,15.2777917 C12.5068125,15.2777917 14.735,13.7875208 15.8214583,11.6204375 L4.01172917,11.6204375 L4.01172917,11.6204375 Z"
                    fill="#F9BB32" id="Path"></path>
                <path
                    d="M16.5277292,32.7315625 L16.5277292,31.6445208 C16.5277292,27.98075 13.5719792,25.0000625 9.9386875,25.0000625 L9.8945,25.0000625 C6.26135417,25.0000625 3.30545833,27.98075 3.30545833,31.6445208 L3.30545833,32.7315625 L16.5277292,32.7315625 Z"
                    fill="#F9BB32" id="Path"></path>
                <rect fill="#F9BB32" height="11.6666667" id="Rectangle" width="1.16666667"
                    x="9.33333333" y="13.888875"></rect>
                <path
                    d="M6.01154167,26.3666667 C6.01154167,26.3376458 6.01285417,26.3089167 6.01314583,26.27975 C4.37339583,27.4895833 3.30560417,29.4431667 3.30560417,31.644375 L3.30560417,32.7314167 L6.0116875,32.7314167 L6.0116875,26.3666667 L6.01154167,26.3666667 Z"
                    fill="#DB9C2E" id="Path"></path>
                <path
                    d="M9.33333333,19.8412083 C9.70010417,19.5753542 10.0903542,19.3404167 10.5,19.1396042 L10.5,15.8603958 C10.0903542,15.6595833 9.70010417,15.4247917 9.33333333,15.1587917 L9.33333333,19.8412083 Z"
                    fill="#DB9C2E" id="Path"></path>
                <path
                    d="M9.48383333,15.2640833 C8.19116667,14.3720208 7.17295833,13.1060417 6.58204167,11.6204375 L4.01172917,11.6204375 C5.03985417,13.6711458 7.09041667,15.1148958 9.48383333,15.2640833 Z"
                    fill="#DB9C2E" id="Path"></path>
                <path
                    d="M19.0035417,3.0786875 L0.829791667,3.0786875 C0.3714375,3.0786875 0,2.70710417 0,2.24889583 L0,0.852979167 C0,0.394625 0.371583333,0.0231875 0.829791667,0.0231875 L19.0035417,0.0231875 C19.4618958,0.0231875 19.8333333,0.394770833 19.8333333,0.852979167 L19.8333333,2.24889583 C19.8333333,2.70710417 19.46175,3.0786875 19.0035417,3.0786875 Z"
                    fill="#BF6C0D" id="Path"></path>
                <path
                    d="M0.829791667,31.9213125 L19.0035417,31.9213125 C19.4618958,31.9213125 19.8333333,32.2928958 19.8333333,32.7511042 L19.8333333,34.1470208 C19.8333333,34.605375 19.46175,34.9768125 19.0035417,34.9768125 L0.829791667,34.9768125 C0.3714375,34.9768125 0,34.6052292 0,34.1470208 L0,32.7511042 C0,32.2928958 0.371583333,31.9213125 0.829791667,31.9213125 Z"
                    fill="#BF6C0D" id="Path"></path>
                <circle cx="8.03702083" cy="5.12472917" fill="#FFD59A" id="Oval"
                    r="1.3125"></circle>
                <circle cx="8.03702083" cy="30.1838542" fill="#DB9C2E" id="Oval"
                    r="1.3125"></circle>
                <path
                    d="M4.08333333,2.24889583 L4.08333333,0.853125 C4.08333333,0.394625 4.45491667,0.0231875 4.913125,0.0231875 L0.829791667,0.0231875 C0.3714375,0.0231875 0,0.394770833 0,0.853125 L0,2.24889583 C0,2.70725 0.371583333,3.0786875 0.829791667,3.0786875 L4.913125,3.0786875 C4.45491667,3.0786875 4.08333333,2.70710417 4.08333333,2.24889583 Z"
                    fill="#A56021" id="Path"></path>
                <path
                    d="M4.08333333,34.146875 L4.08333333,32.7511042 C4.08333333,32.29275 4.45491667,31.9213125 4.913125,31.9213125 L0.829791667,31.9213125 C0.3714375,31.9213125 0,32.2928958 0,32.7511042 L0,34.146875 C0,34.605375 0.371583333,34.9766667 0.829791667,34.9766667 L4.913125,34.9766667 C4.45491667,34.9768125 4.08333333,34.605375 4.08333333,34.146875 Z"
                    fill="#A56021" id="Path"></path>
            </g>
        </g>
    </g>
</svg>