<?xml version="1.0" encoding="UTF-8"?>
<svg xmlns:xlink="http://www.w3.org/1999/xlink" height="79px" version="1.1" viewBox="0 0 60 79"
    width="60px" xmlns="http://www.w3.org/2000/svg">
    <title>Group 30</title>
    <defs>
        <polygon id="path-1"
            points="0.000218978102 0.31888227 59.7580292 0.31888227 59.7580292 62 0.000218978102 62"></polygon>
    </defs>
    <g fill="none" fill-rule="evenodd" id="Page-1" stroke="none" stroke-width="1">
        <g id="câu-gợi-ý-xét-mình--2-copy" transform="translate(-99.000000, -467.000000)">
            <g id="Group-2" transform="translate(93.000000, 441.000000)">
                <g id="Group-30" transform="translate(6.000000, 26.000000)">
                    <path
                        d="M31.6020503,0 L28.3974837,0 C27.0731594,0 26,0.998266898 26,2.22920277 L26,8 L34,8 L34,2.22920277 C34,0.998266898 32.9263747,0 31.6020503,0"
                        fill="#9A9B9D" id="Fill-1"></path>
                    <path
                        d="M45.6121098,5 L13.3878902,5 C11.516829,5 10,6.54938852 10,8.46016735 L10,10.7666485 L29.4997819,14 L49,10.7666485 L49,8.46061296 C49,6.54938852 47.483171,5 45.6121098,5"
                        fill="#B3B5B7" id="Fill-3"></path>
                    <path
                        d="M16.3703697,10.7664884 L16.3703697,8.46033868 C16.3703697,6.54901961 17.9120957,5 19.8128782,5 L13.4425086,5 C11.5408395,5 10,6.54901961 10,8.46033868 L10,10.7664884 L29.8141503,14 L33,13.4803922 L16.3703697,10.7664884 Z"
                        fill="#9A9B9D" id="Fill-5"></path>
                    <path
                        d="M49.0052363,11 L9.99519999,11 C8.34138182,11 7,12.3014018 7,13.9068733 L7,17.1453437 L29.5002181,21 L52,17.1453437 L52,13.9068733 C52,12.3014018 50.6594908,11 49.0052363,11"
                        fill="#E3E6E8" id="Fill-7"></path>
                    <path
                        d="M13.3601484,17.1453437 L13.3601484,13.9068733 C13.3601484,12.3014018 14.7197181,11 16.3974944,11 L10.037346,11 C8.36001226,11 7,12.3014018 7,13.9068733 L7,17.1453437 L29.8197045,21 L33,20.4630077 L13.3601484,17.1453437 Z"
                        fill="#B3B5B7" id="Fill-9"></path>
                    <g id="hủ-biết-ơn" transform="translate(0.000000, 17.000000)">
                        <mask fill="white" id="mask-2">
                            <use xlink:href="#path-1"></use>
                        </mask>
                        <g id="Clip-12"></g>
                        <path
                            d="M52.4616788,0.31888227 L52.4616788,0.31888227 L7.2970073,0.31888227 C2.69408759,3.89641418 0.000218978102,9.41133617 0.000218978102,15.2556057 L0.000218978102,53.5575348 C0.000218978102,58.2202865 3.76489051,62.0000879 8.4089781,62.0000879 L51.3492701,62.0000879 C55.9929197,62.0000879 59.7580292,58.2202865 59.7580292,53.5575348 L59.7580292,15.2560454 C59.7580292,9.41133617 57.0641606,3.89641418 52.4616788,0.31888227"
                            fill="#96D7E8" id="Fill-11" mask="url(#mask-2)"></path>
                    </g>
                    <path
                        d="M6.42116708,70.5137517 L6.42116708,32.0140297 C6.42116708,26.1395127 9.16952131,20.5960477 13.8655387,17 L7.44437163,17 C2.74835423,20.5960477 0,26.1395127 0,32.0140297 L0,70.5137517 C0,75.2006359 3.84081499,79 8.57883292,79 L15,79 C10.2624289,79 6.42116708,75.2006359 6.42116708,70.5137517"
                        fill="#68C9E0" id="Fill-14"></path>
                    <path
                        d="M17.0001856,30 C16.4479495,30 16,29.4263699 16,28.7186073 L16,26.2818683 C16,25.5741058 16.4479495,25 17.0001856,25 C17.5524216,25 18,25.5741058 18,26.2818683 L18,28.7186073 C18,29.4263699 17.5524216,30 17.0001856,30"
                        fill="#3B484A" id="Fill-16"></path>
                    <path
                        d="M42.0001856,30 C41.4479495,30 41,29.4263699 41,28.7186073 L41,26.2818683 C41,25.5741058 41.4479495,25 42.0001856,25 C42.5520505,25 43,25.5741058 43,26.2818683 L43,28.7186073 C43,29.4263699 42.5520505,30 42.0001856,30"
                        fill="#3B484A" id="Fill-18"></path>
                    <path
                        d="M30.0001109,32 C28.1723939,32 26.4577178,31.2511242 25.2953908,29.9453808 C24.860959,29.4573054 24.9114949,28.7162666 25.4088751,28.2900169 C25.9053687,27.8637673 26.6598616,27.9134021 27.0938502,28.4010421 C27.8022402,29.1969404 28.861722,29.6536676 30.0001109,29.6536676 C31.1380565,29.6536676 32.1975383,29.1973758 32.9063716,28.4010421 C33.3403602,27.9134021 34.0948531,27.8633319 34.5913467,28.2900169 C35.0882836,28.7162666 35.1392628,29.4573054 34.7043877,29.9453808 C33.5429473,31.2511242 31.8278279,32 30.0001109,32"
                        fill="#3B484A" id="Fill-20"></path>
                    <path
                        d="M30.4172404,64.2721327 C29.6121024,63.8695889 28.7820455,63.5416409 28.0147155,63.0585884 C26.7550225,62.265327 25.6250796,61.2346331 24.7086659,60.0224534 C23.6745318,58.6542595 22.2597402,57.8409847 20.5704112,58.0261093 C19.1483158,58.1821235 17.8465185,59.0181409 17.00658,60.2339594 C16.125826,61.507999 15.7984433,63.1368229 16.1223889,64.6155457 C16.6121741,66.850232 17.9363124,68.6418928 19.5328401,70.1328966 C20.8638526,71.3755514 22.263607,72.4321719 23.9374691,73.1203625 C26.5582492,74.1979061 29.9575298,74.7851197 31.9927159,71.8385904 C32.889796,70.5399889 33.2352234,68.8415727 32.8348026,67.279612 C32.6457627,66.5409329 32.29475,65.8845819 31.8200022,65.3110139 C31.4316112,64.8429715 30.9388186,64.5332175 30.4172404,64.2721327"
                        fill="#F4F2B8" id="Fill-22"></path>
                    <path
                        d="M31.8273949,66.1687268 C32.299488,66.7310978 32.6477954,67.3741898 32.8356083,68.0980029 C33.2338568,69.6299176 32.8906716,71.2951781 31.9994144,72.568429 C31.5567737,73.2017096 31.0492523,73.6677507 30.4990461,74 C31.3006653,72.7526155 31.5956168,71.1698599 31.2152959,69.7088547 C31.0279099,68.9845957 30.6791757,68.3415037 30.2075094,67.7791327 C29.8220663,67.3206732 29.3316187,67.0165201 28.8134261,66.760532 C28.0139411,66.3649546 27.1896989,66.0438545 26.4273496,65.570678 C25.1754065,64.7924563 24.0527981,63.7823291 23.1423328,62.593813 C22.1144844,61.2527743 20.7093031,60.454484 19.0309395,60.6368866 C18.3070065,60.7149318 17.615087,60.9677981 17,61.3557939 C17.0354283,61.3000474 17.0729909,61.2451928 17.1105535,61.1903382 C17.9458936,59.9982543 19.2383873,59.1785573 20.6512519,59.0255888 C22.3300423,58.8440781 23.7352237,59.6419225 24.763072,60.9829611 C25.6731104,62.1710313 26.7961457,63.1816045 28.047662,63.9598261 C28.8100113,64.4338946 29.6342535,64.7554406 30.4337385,65.1492341 C30.9519311,65.4056682 31.4423786,65.7093753 31.8273949,66.1687268"
                        fill="#EDE27C" id="Fill-24"></path>
                    <path
                        d="M47.9189692,59.1504431 C47.2239283,59.7541007 46.5851105,60.4108516 45.8342894,60.9466925 C44.6018093,61.8265246 43.212613,62.4886294 41.7508138,62.8754521 C40.1013092,63.312245 38.786044,64.3303874 38.2441778,66.0075115 C37.7873102,67.419169 37.9865257,68.9874295 38.71654,70.2688076 C39.4810849,71.6122023 40.7928084,72.5718974 42.2439829,72.8529797 C44.4366818,73.2781724 46.5842251,72.7351928 48.5777085,71.8138677 C50.2400514,71.0460224 51.7655996,70.1380821 53.0777659,68.8236879 C55.1327847,66.7659874 57.0771283,63.7735768 55.3080944,60.6687334 C54.5289403,59.3003536 53.1623218,58.2960423 51.6053418,58.0537761 C50.8695725,57.9395586 50.1391155,58.0109446 49.4299083,58.2331334 C48.8512978,58.4147214 48.369639,58.7596049 47.9189692,59.1504431"
                        fill="#F4F2B8" id="Fill-26"></path>
                    <path
                        d="M49.4460557,58.2249399 C50.1562437,58.0102142 50.8868241,57.9417946 51.6240541,58.0519544 C53.1831871,58.2856139 54.5516954,59.2538161 55.3319268,60.5735833 C55.7202693,61.2293789 55.9299565,61.8800108 56,62.5168727 C55.2046959,61.2900529 53.8911585,60.398016 52.4038423,60.1759749 C51.6666122,60.0649544 50.9351452,60.1342347 50.2258439,60.3480998 C49.6464334,60.5240974 49.1636652,60.8562984 48.7123722,61.2332517 C48.0159269,61.8150337 47.3766691,62.4484531 46.625253,62.9656882 C45.3910687,63.8142637 43.9995082,64.4524165 42.5361309,64.8254971 C40.8843454,65.2472029 39.5668182,66.2291751 39.0242027,67.8467183 C38.7901333,68.5442542 38.7280694,69.2809485 38.8211652,70 C38.7857001,69.9449201 38.7511217,69.8889795 38.7178732,69.8330389 C37.9864062,68.5967523 37.7873585,67.0842053 38.2439712,65.7231281 C38.7874734,64.1051546 40.104114,63.1231825 41.7558994,62.7014766 C43.2192767,62.328396 44.6108373,61.6902432 45.8454649,60.8420981 C46.5973243,60.3252932 47.2374687,59.6914435 47.932584,59.1092313 C48.383877,58.7322779 48.8662019,58.4000769 49.4460557,58.2249399"
                        fill="#EDE27C" id="Fill-28"></path>
                </g>
            </g>
        </g>
    </g>
</svg>