<svg xmlns="http://www.w3.org/2000/svg" xmlns:xlink="http://www.w3.org/1999/xlink" width="92" height="73" viewBox="0 0 92 73">
    <defs>
        <path id="t8s1gdfdda" d="M0 0.022L91.933 0.022 91.933 72.99 0 72.99z"/>
    </defs>
    <g fill="none" fill-rule="evenodd">
        <g>
            <g>
                <g>
                    <g transform="translate(-65 -463) translate(65 463)">
                        <mask id="rrvqe3nnyb" fill="#fff">
                            <use xlink:href="#t8s1gdfdda"/>
                        </mask>
                        <path fill="#F5C376" d="M44.28 72.39c-1.747-.623-17.312-6.25-25.382-12.063-6.656-4.794-11.739-10.8-15.11-17.854C.37 35.316 0 29.831 0 27.805c0-7.782 2.203-14.517 6.37-19.477C10.936 2.894 17.468.022 25.26.022c7.882 0 15.329 3.198 20.706 8.734C51.344 3.22 58.79.022 66.672.022c7.792 0 14.325 2.872 18.89 8.306 4.168 4.96 6.37 11.695 6.37 19.477 0 2.026-.369 7.511-3.788 14.668-3.37 7.053-8.454 13.06-15.109 17.854-8.072 5.814-23.635 11.44-25.383 12.062l-1.686.6-1.685-.6z" mask="url(#rrvqe3nnyb)"/>
                    </g>
                    <path fill="#E5AE48" d="M46 17.05C41.917 9.856 34.168 5 25.28 5 12.145 5 5 14.831 5 27.919c0 5.276 3.208 18.768 16.847 28.625C29.581 62.134 46 68 46 68s16.419-5.866 24.152-11.456C83.792 46.687 87 33.194 87 27.92 87 14.83 79.856 5 66.72 5 57.831 5 50.082 9.856 46 17.05z" transform="translate(-65 -463) translate(65 463)"/>
                    <g>
                        <g>
                            <path fill="#FFD375" d="M16.14 51c-3.583 0-7.093-1.176-9.958-3.391-3.67-2.836-5.916-7.1-6.16-11.692-.364-6.798 3.707-13.07 10.125-15.61 2.886-1.144 5.098-2.46 6.574-3.917 1.416-1.397 2.64-3.393 3.64-5.933C22.867 4.106 28.863 0 35.639 0c5.016 0 9.692 2.22 12.83 6.093 3.065 3.782 4.209 8.633 3.139 13.311-1.792 7.838-5.589 14.663-11.283 20.28-5.848 5.772-12.96 9.484-21.138 11.03-1.012.193-2.032.286-3.046.286" transform="translate(-65 -463) translate(65 463) translate(30 10)"/>
                            <path fill="#FDFAFB" d="M41.365 27.227l-3.578-1.803c.546-1.045 1.051-2.183 1.5-3.387l3.78 1.351c-.506 1.356-1.078 2.647-1.702 3.839m-14.211 12.44l-1.633-3.603c3.79-1.649 6.786-3.618 8.91-5.856.491-.519.969-1.088 1.42-1.69l3.246 2.329c-.543.723-1.121 1.413-1.72 2.044-2.494 2.63-5.934 4.907-10.223 6.776" transform="translate(-65 -463) translate(65 463) translate(30 10)"/>
                            <path fill="#FEC96B" d="M51.614 15.354c-1.792 7.86-5.59 14.706-11.285 20.34-5.85 5.787-12.963 9.51-21.143 11.06-1.012.192-2.032.287-3.045.287-3.585 0-7.095-1.18-9.96-3.4C2.816 41.033.67 37.218.14 33.052c-.117.926-.174 1.864-.121 2.82.246 4.608 2.49 8.882 6.16 11.726C9.047 49.82 12.56 51 16.142 51c1.013 0 2.035-.095 3.045-.287 8.18-1.552 15.294-5.273 21.143-11.061 5.696-5.635 9.493-12.478 11.285-20.339.415-1.82.488-3.662.254-5.461-.064.5-.14 1.001-.254 1.502" transform="translate(-65 -463) translate(65 463) translate(30 10)"/>
                        </g>
                        <g>
                            <path fill="#231F20" fill-rule="nonzero" stroke="#231F20" d="M1.522 4.781c.12-.215.4-.297.627-.183.226.114.312.382.192.597-1.197 2.146-.308 4.794 1.99 5.916 2.303 1.124 5.144.29 6.343-1.862.12-.215.4-.297.627-.183.226.115.312.382.192.598-1.438 2.578-4.833 3.577-7.585 2.233C1.151 10.55.081 7.364 1.522 4.78z" transform="translate(-65 -463) translate(65 463) translate(30 10) translate(23.12 8.7)"/>
                            <path fill="#231F20" stroke="#231F20" d="M12.997 6.16c-.208.302-.13.714.175.92.304.207.719.129.926-.173.208-.302.13-.714-.175-.92-.304-.207-.719-.13-.926.173M3.664.861c-.208.302-.13.714.174.92.304.207.72.13.927-.173.207-.302.129-.714-.175-.92-.304-.206-.719-.129-.926.173" transform="translate(-65 -463) translate(65 463) translate(30 10) translate(23.12 8.7)"/>
                            <path fill="#F16A55" d="M15.467 10.22c-.216.387-.804.384-1.312-.006s-.744-1.02-.527-1.407c.216-.386.804-.383 1.312.007s.744 1.02.527 1.407" transform="translate(-65 -463) translate(65 463) translate(30 10) translate(23.12 8.7) rotate(-14 14.547 9.514)"/>
                            <path fill="#F16A55" d="M.822 2.266C.314 1.876.078 1.246.294.86c.217-.387.804-.384 1.312.006s.745 1.02.528 1.406c-.217.387-.804.384-1.312-.006z" transform="translate(-65 -463) translate(65 463) translate(30 10) translate(23.12 8.7) rotate(-11 1.214 1.566)"/>
                        </g>
                    </g>
                </g>
            </g>
        </g>
    </g>
</svg>
